<svg xmlns="http://www.w3.org/2000/svg" width="490.527" height="191.039" viewBox="0 0 490.527 191.039">
  <g id="madras-mandi" transform="translate(-796.8 -7453.542)">
    <path id="Path_20519" data-name="Path 20519" d="M284.7,83.89c31.7,26.445,44.133,59.934,33.881,99.572-10.032,38.785-36.275,62.719-75.85,70.06-53,9.831-102.966-26.9-110.867-80.454C124.023,119.925,162.77,70.107,216.2,64.633c25.263-2.588,48,3.864,68.5,19.257m-88.424,97.271c0,4.925-.047,9.851.011,14.775.1,8.757,6.487,13.547,14.752,10.917q28.814-9.171,57.564-18.54c6.416-2.084,7.628-3.905,7.634-10.819q.018-19.133.011-38.266c0-5.7-1.293-7.512-6.848-9.3q-15.835-5.1-31.684-10.148c-10.2-3.268-16.332,1.177-16.335,11.854-.006,18.817.014,37.634-.036,56.452,0,1.294-.13,3.463-.8,3.736-3.78,1.531-7.745,2.6-12.146,3.992-.126-2.334-.273-3.816-.276-5.3q-.075-41.294-.128-82.589c0-1.638.216-3.4-.31-4.881-.641-1.8-1.582-4.22-3.057-4.872-5.674-2.509-11.611-4.418-17.806-6.681-.1,1.859-.19,2.851-.2,3.843-.083,7.86-.118,7.969,7.207,10.6,2.389.858,2.469,2.388,2.467,4.379-.028,23.364-.018,46.727-.018,70.849m8.706,36.331a8.789,8.789,0,1,0,5.675,10.773C211.922,223.873,210.219,220.391,204.981,217.492Z" transform="translate(665.948 7389.464)" fill="#07875a"/>
    <path id="Union_3" data-name="Union 3" d="M126.49,74.264v29.422H116.05V49.994l34.516,30.63c0-10.226,0-19.306.138-28.817a80.871,80.871,0,0,1,10.088-.975v54.109ZM62.546,104a31.426,31.426,0,0,0-4.442-.029C66.559,85.844,74.777,68.221,83.461,49.6,92.024,68,100.26,85.712,108.57,103.58c-11.024,1.115-11.024,1.115-14.647-6.5C90.452,89.549,87.13,82.37,83.491,74.51c-3.833,8.209-7.768,15.475-10.619,23.144-1.671,4.493-4.032,6.578-7.918,6.578A14.018,14.018,0,0,1,62.546,104Zm112.988-.039V51.329c7.751,0,15.436-.6,22.983.165,7.939.806,14.359,4.941,18.379,12.662,9.545,20.526-2.471,39.672-24.621,39.8-2.044.012-4.089.016-6.151.016C182.669,103.976,179.166,103.965,175.534,103.965Zm10.25-42.3v31.48c8.4.491,16.52,1.039,21.208-7.04,3.454-5.954,3.471-12.585-.614-18.332-3.739-5.259-8.916-6.383-14.605-6.383C189.824,61.389,187.816,61.521,185.784,61.664Zm44.92-10.2h9.92c0,17.133,0,34.506-.377,52.151-3.336.274-6.294.274-9.543.274ZM41.079,103.681V82.138C35.488,89.795,30.847,96.152,25.8,103.066L10.62,82.573v21.1H.112V50.367c1.669,2.142,3.02,3.878,4.55,5.922,7.019,9.676,13.86,19.044,21.1,28.957,8.59-11.772,16.912-23.175,25.7-35.219v53.654Zm171.763-65.41,4.147-5.249c4.22.79,8,1.922,11.813,2.014,1.644.039,4.6-1.967,4.708-3.232.144-1.733-1.435-4.291-3.033-5.342-3.3-2.169-7.149-3.474-10.673-5.321-3.813-2-6.163-5.114-5.907-9.6a10.847,10.847,0,0,1,7.2-9.94c7.144-2.831,13.947-1.922,20.512,2.929L237.149,10c-2.66-.677-4.859-1.238-7.47-1.8-2.372,1.189-4.332,2.38-6.292,3.569,1.489,1.541,2.758,3.426,4.514,4.546,2.923,1.86,6.205,3.145,9.251,4.825,4.584,2.526,6.494,6.473,5.788,11.665-.685,5.035-3.844,8.018-8.4,9.533a22.953,22.953,0,0,1-7.28,1.238C222.317,43.577,217.567,41.8,212.842,38.271Zm-13.756-1.216c-2.61-5.532-5.209-11.069-8.185-17.394-2.307,5.011-4.358,9.466-6.617,14.236-.481.92-.758,1.525-1.026,2.131-3.185,7.206-3.184,7.206-11.869,6.017L190.885.061c6.788,14.508,13.147,28.1,19.51,41.705a21.776,21.776,0,0,1-5.472,1.089C202.234,42.855,201.063,41.245,199.086,37.055ZM72.656,35.967C70.3,30.705,67.819,25.5,65.119,19.67c-2.706,5.82-5.743,10.895-7.442,16.383-1.985,6.4-5.934,7.511-12.235,6.107C51.895,28.329,58.3,14.6,65.053.126c1.528,3.2,2.746,5.749,4.168,8.613C74.5,20.009,79.568,30.965,84.664,41.974a39.655,39.655,0,0,1-5.871.772C75.686,42.746,74.974,41.141,72.656,35.967Zm80.895.386c-2.044-3.8-4.375-8.328-10.75-5.888V42.5a56.5,56.5,0,0,1-8.342-.835c-.2-13.692-.2-26.967-.2-40.518,7.066,0,13.724-.341,20.33.1a12.683,12.683,0,0,1,11.793,9.278c1.819,5.769.958,11.221-3.793,15.512-1.209,1.092-2.635,1.943-4.341,3.18l9.662,12.687a19.826,19.826,0,0,1-4.772.663C159.046,42.569,155.92,40.755,153.551,36.353Zm-6.142-14.786c1.606.017,3.211.034,4.808-.077,3.514-.247,6.292-1.86,6.39-5.651.1-3.915-2.427-6.119-6.229-6.429-3.1-.252-6.229-.05-9.735-.05a47.964,47.964,0,0,0,.059,6.265,12.317,12.317,0,0,0,2.531,5.932h.435C146.246,21.555,146.827,21.561,147.408,21.567ZM90.163,42.282V.818c7.275.469,14.157.232,20.75,1.5,9.329,1.8,15.053,10.514,14.6,20.489-.459,10.184-6.657,18.138-16.117,19.329a55.973,55.973,0,0,1-7.018.38C98.5,42.519,94.478,42.282,90.163,42.282Zm8.41-10.676c.419,3.873,2.761,3.363,4.837,2.855a8.962,8.962,0,0,1,1.946-.346c6.62,0,10.939-4.381,11.414-10.652.551-7.254-2.761-12.138-9.494-13.5-2.672-.539-5.476-.431-8.7-.65ZM0,42.483V.728L19.986,28.077C26.678,18.929,33.092,10.162,40.084.6V42.39H31.86c0-4,0-8.088,0-12.613-.038-1.054-.075-1.669-.188-3.5C27.436,31.946,23.85,36.746,20.02,41.873L8.281,26.261V42.483Z" transform="translate(1044.244 7505.485)" fill="#07875a"/>
    <g id="Group_5481" data-name="Group 5481">
      <path id="Path_20531" data-name="Path 20531" d="M214.055,189.524c0-23.743-.011-47.106.017-70.47,0-1.99-.078-3.52-2.467-4.379-7.325-2.632-7.291-2.741-7.207-10.6.011-.992.1-1.983.2-3.843,6.2,2.263,12.133,4.172,17.806,6.681,1.475.652,2.416,3.071,3.057,4.872.526,1.477.307,3.243.31,4.881q.074,41.294.128,82.589c0,1.482.15,2.965.276,5.3,4.4-1.388,8.366-2.461,12.146-3.992.673-.273.8-2.441.8-3.736.049-18.818.03-37.635.036-56.452,0-10.677,6.14-15.122,16.335-11.854q15.841,5.077,31.684,10.148c5.555,1.789,6.852,3.6,6.848,9.3q-.012,19.134-.011,38.266c-.006,6.913-1.218,8.735-7.634,10.819q-28.76,9.337-57.564,18.54c-8.265,2.63-14.649-2.159-14.752-10.917-.058-4.924-.011-9.85-.011-15.154m54.07,1.508c3.952-1.287,7.887-2.629,11.863-3.837,1.925-.585,2.9-1.493,2.878-3.718-.106-10.478.006-20.959-.126-31.437-.014-1.127-.861-2.954-1.731-3.25-9.511-3.232-19.1-6.223-29.277-9.473v57.068C257.052,194.627,262.293,192.895,268.125,191.032Z" transform="translate(648.168 7380.722)" fill="#fdb516"/>
      <path id="Path_20532" data-name="Path 20532" d="M225.232,266.446c4.967,2.761,6.671,6.244,5.4,10.635a8.743,8.743,0,1,1-5.4-10.635Z" transform="translate(645.967 7340.648)" fill="#fdb516"/>
    </g>
    <path id="Path_20536" data-name="Path 20536" d="M282.93,203.562c-5.537,1.8-10.778,3.529-16.1,5.287V151.781c10.174,3.25,19.766,6.241,29.277,9.473.87.3,1.717,2.123,1.731,3.25.132,10.478.02,20.959.126,31.437.022,2.225-.953,3.133-2.878,3.718C291.113,200.867,287.178,202.209,282.93,203.562Z" transform="translate(633.068 7368.258)" fill="#07875a"/>
  </g>
</svg>
