<svg xmlns="http://www.w3.org/2000/svg" width="782.832" height="223.442" viewBox="0 0 782.832 223.442">
  <g id="Alepo" transform="translate(-118.321 -128.932)">
    <path id="Path_22383" data-name="Path 22383" d="M765.067,219.174c7.97,25.133,5.1,47.764-12.231,68.122-20.445,24.017-58.47,23.979-78.35-.611,0,3.827-.22,6.838.036,9.808,1.478,17.125.259,34.278.664,51.411.074,3.129-1.172,4.566-4.425,4.465-4.825-.149-9.66-.147-14.486-.023-3.04.078-4.232-1.348-4.185-4.192.013-.832-.016-1.665-.016-2.5q-.028-75.942-.053-151.882c0-1.5.056-3,.079-4.495.045-2.783,1.257-4.348,4.237-4.322q6.744.06,13.489-.057c3.19-.061,4.516,1.415,4.4,4.567s-.026,6.312-.026,9.469c1.763.556,2.085-.935,2.742-1.65,18.2-19.813,50.087-21.439,70.3-3.55a65.826,65.826,0,0,1,17.83,25.437M741.69,221.88c-.792-1.269-1.542-2.568-2.382-3.8-15.322-22.54-47.382-21.011-60.027,3.156-7.2,13.751-7.3,28.328-1.024,42.4,10.8,24.239,42.066,28.468,58.725,7.824C749.018,256.543,749.1,239.759,741.69,221.88Z"/>
    <path id="Path_22384" data-name="Path 22384" d="M567.663,282.442c17.351,5.2,31.307.574,41.49-13.985,2.623-3.75,4.777-4.71,8.831-2.248,4.382,2.659,9.159,4.668,13.495,6.827.689,2.327-.542,3.626-1.381,4.995-12.756,20.8-37.849,31.025-63.909,26.066-22.282-4.241-40.527-23.193-44.561-46.558-3.554-20.587-.873-39.964,12.939-56.467,16.527-19.745,38.257-23.485,61.69-16.993,22.582,6.256,33.331,23.473,37.036,45.732a107.881,107.881,0,0,1,1.121,12.415c.216,4.342-1.331,5.954-5.7,5.881-11.495-.193-22.995-.064-34.493-.069-15.164-.006-30.328.046-45.491-.069-3.945-.03-5.635.6-4.768,5.386,2.544,14.051,10.394,23.46,23.7,29.087m-16.528-66.771c-2.482,3.861-4.889,7.749-5.155,12.875,2.088.1,3.727.235,5.366.237q25.969.028,51.941.013c6.891-.006,7.646-1.065,5.1-7.509-4.491-11.368-13.343-17.188-25.07-18.686C570.577,200.973,559.56,204.359,551.135,215.671Z"/>
    <path id="Path_22385" data-name="Path 22385" d="M365.373,237.319c14.64-11.671,31.362-12.679,48.661-11.194,6.651.571,12.918,2.8,19.674,5.067,1.852-5.766.165-10.4-2.266-14.678-10.191-17.95-37.732-19.885-51.348-3.41-3.014,3.648-5.07,3.732-8.536,1.212a124.13,124.13,0,0,0-11.426-7.156c-3.153-1.805-3.195-3.613-.975-6.312,4.517-5.492,9.747-10.144,16.159-13.139,18.7-8.734,37.748-9.088,56.477-.508,15.912,7.289,23.833,20.8,24.326,37.838.69,23.8.144,47.644.268,71.468.019,3.664-1.226,5.121-4.921,4.926-4.154-.219-8.332-.167-12.492-.026-3.268.111-4.382-1.327-4.351-4.481.027-2.754.677-5.659-1.038-8.558-3.42,3.054-6.574,6.2-10.057,8.926-20.922,16.377-61.761,7.865-69.287-22.484-3.551-14.316-.357-27.055,11.132-37.491m11.966,32.765c2.15,7.264,7.56,11.214,14.306,13.436,17.881,5.892,40.433-8.92,42.791-27.878.345-2.776-.936-4.412-3.037-5.746-10.382-6.589-34.934-9.334-47.769,1.721C378.263,256.239,375.482,262.024,377.339,270.084Z"/>
    <path id="Path_22386" data-name="Path 22386" d="M247.248,185.447c-1.647,12.589-4.608,24.5-10.479,35.526-1.077,2.022-1.81,4.8-6.165,4.1,8.2-16.021,13.864-32.308,12.716-50.2-1.854,5.906-2.228,12.121-3.824,18.118a113.9,113.9,0,0,1-15.661,34.371c-1.685,2.516-3.57,4.824-6.89,5.283.035-2.726.035-2.726,2.25-6.238-1.3-.357-1.681.766-2.306,1.282a15.748,15.748,0,0,0-1.717,1.81c-17.044,19.386-38.253,31.283-63.8,35.157a101.191,101.191,0,0,1-24.412.532c-1.691-.154-3.367-.428-3.726-2.664,1.179-2.436,3.434-1.472,5.244-1.444,13.352.206,26.655.264,39.494-4.353,33.23-11.948,54.553-35,64.438-68.768-8.291,23.176-22.417,41.845-43.193,55.274-20.526,13.266-42.784,18.6-66.878,15.29,1.261-3.6,3.752-2.585,5.855-2.534,33.859.812,61.736-11.544,83.069-37.974a86.987,86.987,0,0,0,18.273-39.943c-3.321,8.814-6.809,17.537-11.734,25.612a108.2,108.2,0,0,1-18.1,22.522,104.823,104.823,0,0,1-24.083,16.839,90.539,90.539,0,0,1-27.344,9.179c-9.262,1.47-18.566,3.209-28.854.768,2.432-3.592,4.925-2.889,7.064-2.852,23.473.414,44.748-5.989,63.345-20.514a95.214,95.214,0,0,0,34.5-52.757c-3.276,7.059-5.928,14.426-10.145,21.073-20.295,31.986-49.212,49.294-87.117,51.123-6.62.319-7.763,2.076-8.232-8.734,35.915.079,64.416-14.587,84.886-44.093-5.772,5.136-11.013,11.016-17.043,16.154a101.259,101.259,0,0,1-55.018,23.9c-3.3.391-6.617.695-9.936.867-1.458.075-3.367-.027-3.3-2.087.066-1.965,1.925-2.1,3.416-2.057a75.7,75.7,0,0,0,20.8-2.224c22.557-5.724,41.3-17.346,55.46-35.995a51.4,51.4,0,0,0,2.823-4.79c-2.19,0-2.7,1.391-3.421,2.222-15.205,17.582-33.448,30.441-56.307,35.97-5.97,1.444-12.09,2.271-18.152,3.323-1.954.34-4.6.894-4.727-1.91-.117-2.654,2.617-2.528,4.577-2.573,20.093-.457,37.654-7.928,53.437-19.8a89.434,89.434,0,0,0,25.955-30.588c1.6-3.1,3.458-3.957,5.884-1.038,10.241-7.116,21.639-10.278,33.331-13.111,8.763-2.123,17.477-1.706,26.24-1.748a40.854,40.854,0,0,1,36.784,23.273c2.127,4.449,4.015,25.981,2.641,29.619a6.154,6.154,0,0,1-2.993-3.353c-.943,6.192-5.679,1.524-8.01,3.983-2.431-3.315-.849-6.853-1.722-9.973-.849-3.032-.364-6.327-2.03-9.745-.057,6.836,2.259,13.372-1.193,19.519-2.472-6.049-.8-12.611-3.063-18.746-1.019,6.477,1.712,13.188-2.536,19.251-1.761-8.052-.122-16.475-3.112-24.91-.862,8.8,2.386,17.483-2.534,25.327-2.139-9.519.4-19.372-2.837-30.2.226,11.3,2.291,21.331-2.631,30.793-1.784-10.422.838-21.069-2.132-32.751-.5,12.229,1.172,23.349-2.562,33.747L267,216.385c.889-11.039,3.294-22.1.545-33.122-.053,9.491-.119,18.975-1.966,28.315-.457,2.312-.4,5.079-4.835,5.947,1.534-11.487,4.321-22.43,2.176-33.589-1.533,11.808-.672,24.125-7.612,34.8.708-11.634,4.666-22.964,2.6-34.687-4.506,32.031-5.185,34.553-11.433,36.633,5.358-14.813,7.839-29.342,5.88-44.352a126.561,126.561,0,0,1-3.143,27.335c-1.1,4.686-2.415,9.338-3.942,13.9-.749,2.238-1.591,4.876-5.994,4.865,1.57-4.642,3.039-8.9,4.447-13.168a79.051,79.051,0,0,0,4.127-24.005c0-.166.045-.4-.044-.488-.787-.757-.347.265-.56.675m-98.205,54.776c-8.164,1.9-16.266,4.144-24.758,4.2,20.345,1.928,50.008-8.776,58.812-20.129A105.034,105.034,0,0,1,149.043,240.223Z" fill="#e20000"/>
    <path id="Path_22387" data-name="Path 22387" d="M874.633,295.745c-34.464,20.77-76.456,7.3-89.43-29.167-10.268-28.862-2.082-64.233,28.43-78.933,37-17.828,81.351,2.369,86.811,45.844,3.207,25.543-4.3,46.59-25.811,62.256m-30.472-93.384c-15.7-.785-27.718,5.719-34.865,19.514-7.788,15.032-7.477,30.636,1.145,45.309a35.687,35.687,0,0,0,50.092,11.767c10.946-7.023,16.206-17.548,17.59-30.4C880.719,224.448,866.507,204.915,844.161,202.361Z"/>
    <path id="Path_22388" data-name="Path 22388" d="M479.768,167c0-10.321.119-20.144-.058-29.962-.069-3.834,1.207-5.5,5.171-5.3,4.483.224,8.988.138,13.48.04,3.164-.069,4.489,1.269,4.481,4.462q-.187,80.362-.209,160.727c0,3.593-1.142,4.744-4.582,4.52-3.481-.226-6.988-.054-10.484-.06-7.782-.013-7.785-.014-7.786-7.588q-.006-43.446-.008-86.891C479.772,193.8,479.769,180.65,479.768,167Z"/>
    <path id="Path_22389" data-name="Path 22389" d="M183.557,273.921a4.684,4.684,0,0,1,1.262.317c-1.26,3.177.7,7.473-3.4,9.747.678.955,2.764.548,2.532,2.455-1.567,12.894,2.858,24.327,8.629,35.437.364.7.568,1.483,1.406,3.726-15.433-2.921-29.036-7.2-40.4-16.863-11.085-9.427-20.239-20.4-25.569-35.5,20.5,2.524,40.339.042,59.736-8.577.041,5.04-3.419,5.276-5.662,6.161-12.024,4.747-24.651,6.653-37.5,7.3a26.582,26.582,0,0,0-4.382.325C155.009,281.512,169.178,278.43,183.557,273.921Z" fill="#e20000"/>
    <path id="Path_22390" data-name="Path 22390" d="M305.053,265.986c-16.026,2.4-29.472,10.161-41.556,20.452a92.443,92.443,0,0,0-22.468,27.833c-.853,1.643-1.509,3.841-4.135,3.618-1.934-15.227,34.7-46.591,65.178-55.9-8.633-.453-29.043,9.044-40.8,18.327-12.018,9.491-20.773,21.608-28.243,34.8-3.227-2.068-1.769-3.783-.957-5.249a105.426,105.426,0,0,1,52.45-47.193c1.314-.556,2.8-.819,4.138-2.8-27.5,8.57-46.918,25.841-60.072,50.619-3.135-2.75-1.523-4.457-.623-6.1,10.782-19.677,26.951-33.586,46.765-43.577a15.836,15.836,0,0,0,3.4-2.048,73.069,73.069,0,0,0-20.964,9.878c-6.871,4.546-12.53,10.412-18.369,16.122-5.668,5.542-9.088,12.824-14.147,18.913-2.9-2.25-1.425-4.035-.421-5.632,15.453-24.558,37.118-40.553,65.454-47.267,4.7-1.113,9.479-1.763,14.257-2.478,4.634-.694,6.063.974,5.689,5.3a60.112,60.112,0,0,0-.15,8.337c.159,2.988-2.471,2.651-4.209,3.87C305.018,266,305.053,265.986,305.053,265.986Z" fill="#e20000"/>
    <path id="Path_22391" data-name="Path 22391" d="M168.08,201.156c-12.921,9.345-27.254,14.548-42.188,18.364a4.669,4.669,0,0,1-.968.238c-2.027.057-5.057,1.512-5.59-1.278-.561-2.935,2.7-2.724,4.714-3.059,29.729-4.946,52.108-20.81,68.344-45.864,2.576-3.975,3.6-8.906,7.85-12.8,1.768,3.537,2.039,7.213,3.465,10.374,1.369,3.035-1.82,6.789-4.088,10.068a119.094,119.094,0,0,1-27.055,28.429c-14.515,10.764-30.862,16.814-48.535,19.661-2.015.325-5,1.413-5.411-1.556-.418-3,2.674-2.7,4.745-2.882,20.833-1.866,38.721-10.347,54.2-24.172,1.8-1.6,3.785-3.145,4.084-6.3C177.229,193.906,172.807,197.436,168.08,201.156Z" fill="#e20000"/>
    <path id="Path_22392" data-name="Path 22392" d="M245.74,135.4c-14.6,3.041-28.827,6.037-41.87,13.166-1.832-1.468-1-3.34-.434-4.919a23.807,23.807,0,0,0,1.429-8.777c-.093-3.67,1.785-5.57,5.366-5.769a117.05,117.05,0,0,1,34.94,3.417c1.133.282,2.908.152,2.646,2.127C247.776,134.958,246.706,135.13,245.74,135.4Z" fill="#e20000"/>
    <path id="Path_22393" data-name="Path 22393" d="M143.132,202.119c19.144-8.927,34.075-22.047,44.695-39.9a88.124,88.124,0,0,0,10.213-24.29,22.137,22.137,0,0,1,.87-3.383c.667-1.591,1.036-4.075,3.542-3.156,2,.734,1.351,2.77.892,4.381-8.229,28.9-24.829,51.268-51.363,65.939a108.85,108.85,0,0,1-27.468,10.364c-1.8.432-1.808.394-5.567-1.682C127.216,206.853,135.527,205.918,143.132,202.119Z" fill="#e20000"/>
    <path id="Path_22394" data-name="Path 22394" d="M183.322,155.33a101.863,101.863,0,0,0,8.171-17.475c.774-2.075.9-6.087,4.256-4.793,3.049,1.175.51,4.025-.252,6q-18.181,47.049-65.844,63.637c-3.785,1.317-3.784,1.32-7.157.756-.6-2.644,1.556-3.037,3.166-3.506C150.607,192.666,169.6,177.707,183.322,155.33Z" fill="#e20000"/>
    <path id="Path_22395" data-name="Path 22395" d="M273.635,248.461c11.817-3.813,23.356-6.761,35.411-5.391q.276,1.237.551,2.475c-17.669,1-34.568,4.433-49.979,13.226-15.485,8.834-27.364,21.337-37.33,36.674-2.372-3.287-.875-5.225.344-7.037a102.531,102.531,0,0,1,43.276-36.688C268.331,250.613,270.815,249.64,273.635,248.461Z" fill="#e20000"/>
    <path id="Path_22396" data-name="Path 22396" d="M234.938,254.891c2.632-1.736,4.6-3.9,7.335-4.428,2,.186.635,2.155,2.279,3,11.047-5.566,21.733-13.434,35.71-12.42C256.587,248.055,237,261.007,222,281.478c-1.129-5.133-1.043-5.413,6.151-13.311,3.318-3.644,6.836-7.1,10.807-11.212-5.228,1.1-6.867,6.283-12.064,7.987C228.32,260,231.72,257.724,234.938,254.891Z" fill="#e20000"/>
    <path id="Path_22397" data-name="Path 22397" d="M151.82,180.879c-8.079,5.46-16.032,10.359-25.764,12.933.053-4.584,3.321-4.748,5.439-5.657A98.416,98.416,0,0,0,171.754,156.4a86.361,86.361,0,0,0,10.018-16.624c.871-1.935,1.424-4.689,6.088-3.951C180.151,154.6,168.036,169.084,151.82,180.879Z" fill="#e20000"/>
    <path id="Path_22398" data-name="Path 22398" d="M305,266.012c1.424-.037,2.952-.674,4.205.578.544,2.723-1.537,3.086-3.224,3.549-26.813,7.36-46.236,23.937-59.854,47.813-.766,1.343-1.267,3.234-3.782,2.768-1.569-2.69.555-4.582,1.715-6.549,13.972-23.689,34.516-39.111,60.679-48C305.053,265.986,305.018,266,305,266.012Z" fill="#e20000"/>
    <path id="Path_22399" data-name="Path 22399" d="M281.608,287.644c-7.225,4.7-12.489,11-18.326,16.69-5.544,5.4-8.264,13.15-14.873,19.244.488-17.131,45.958-54.82,60.839-51.779.079,3-2.4,3.141-4.317,3.8A88.963,88.963,0,0,0,281.608,287.644Z" fill="#e20000"/>
    <path id="Path_22400" data-name="Path 22400" d="M134.092,266.968c11.153.239,21.769-.022,32.118-3.078,10-2.954,19.108-8.012,28.95-13.064-.049,4.055-2.476,5.344-4.611,6.646-8.736,5.325-18.262,8.7-28.139,11.2a100.368,100.368,0,0,1-31.169,2.441c-2.4-.15-4.957-.14-6.128-3.407C128.069,266.064,130.911,267.16,134.092,266.968Z" fill="#e20000"/>
    <path id="Path_22401" data-name="Path 22401" d="M257.413,322.541c-3.49-.534-3.533-.591-1.7-3.6a102.846,102.846,0,0,1,30.214-31.374,138.628,138.628,0,0,1,17.425-9.672c1.853-.914,3.81-1.962,5.934-.668.051,2.5-1.879,2.856-3.281,3.438-19.838,8.239-35.243,21.676-46.8,39.668A17.917,17.917,0,0,1,257.413,322.541Z" fill="#e20000"/>
    <path id="Path_22402" data-name="Path 22402" d="M165.892,147.894c2.166-2.758,3.235-6.245,7.22-6.709-.219,9.633-28.724,37.08-40.678,39.2-.4-2.685,1.414-3.836,3.222-4.9A101.5,101.5,0,0,0,165.892,147.894Z" fill="#e20000"/>
    <path id="Path_22403" data-name="Path 22403" d="M273.266,306.283c9.646-9.646,19.908-17.776,32.745-23.157.257,3.326-1.679,4.2-3.34,5.083a102.793,102.793,0,0,0-35.837,31.882c-1.03,1.444-1.942,3.246-5.074,1.9C264.779,316.169,268.938,311.379,273.266,306.283Z" fill="#e20000"/>
    <path id="Path_22404" data-name="Path 22404" d="M275.551,315.86c-1.489-1.359-.265-2.157.414-2.964a106.522,106.522,0,0,1,20.015-17.835c.629-.449,1.419-.949,2.967.379C291.585,302.716,284.425,310.046,275.551,315.86Z" fill="#e20000"/>
  </g>
</svg>
