<?xml version="1.0" encoding="UTF-8"?>
<svg version="1.1" xmlns="http://www.w3.org/2000/svg" width="200" height="200">
<path d="M0 0 C66 0 132 0 200 0 C200 66 200 132 200 200 C134 200 68 200 0 200 C0 134 0 68 0 0 Z " fill="#FDFEFE" transform="translate(0,0)"/>
<path d="M0 0 C1.37478516 0.01740234 1.37478516 0.01740234 2.77734375 0.03515625 C3.69644531 0.04417969 4.61554687 0.05320312 5.5625 0.0625 C6.27277344 0.07410156 6.98304687 0.08570312 7.71484375 0.09765625 C21.99699899 32.61194476 21.99699899 32.61194476 26.71484375 46.09765625 C23.08484375 46.09765625 19.45484375 46.09765625 15.71484375 46.09765625 C12.71484375 39.47265625 12.71484375 39.47265625 12.71484375 36.09765625 C5.78484375 36.09765625 -1.14515625 36.09765625 -8.28515625 36.09765625 C-8.78015625 38.57265625 -8.78015625 38.57265625 -9.28515625 41.09765625 C-9.91952969 42.77688005 -10.57804947 44.44774043 -11.28515625 46.09765625 C-14.58515625 46.09765625 -17.88515625 46.09765625 -21.28515625 46.09765625 C-20.64803638 42.2666514 -19.52041418 38.97992474 -17.9921875 35.4140625 C-17.52925293 34.32730225 -17.06631836 33.24054199 -16.58935547 32.12084961 C-16.09709473 30.9788208 -15.60483398 29.83679199 -15.09765625 28.66015625 C-14.35153076 26.91520874 -14.35153076 26.91520874 -13.59033203 25.13500977 C-12.60496333 22.83169034 -11.61770708 20.52917737 -10.62841797 18.22753906 C-9.4969437 15.5911341 -8.37369359 12.95162289 -7.2578125 10.30859375 C-2.94672962 0.12592862 -2.94672962 0.12592862 0 0 Z " fill="#164160" transform="translate(31.28515625,78.90234375)"/>
<path d="M0 0 C5.75116216 2.48196542 8.21644207 5.72493187 10.8046875 11.38671875 C10.8046875 14.68671875 10.8046875 17.98671875 10.8046875 21.38671875 C2.8846875 21.38671875 -5.0353125 21.38671875 -13.1953125 21.38671875 C-10.87279824 26.271674 -10.87279824 26.271674 -8.1953125 27.38671875 C-2.86564042 27.72763916 -2.86564042 27.72763916 1.8046875 25.38671875 C4.83921123 25.76603422 6.18029771 26.63712556 8.8046875 28.38671875 C8.43479787 30.79860181 8.20513359 32.04796018 6.30859375 33.65234375 C-0.29296825 36.99961463 -6.35922166 37.64082537 -13.4453125 35.32421875 C-17.50054288 32.46712462 -20.96116867 28.85500641 -23.1953125 24.38671875 C-23.68418982 18.58430597 -24.05076688 13.22923589 -21.5703125 7.88671875 C-15.08725236 1.06244492 -9.6164304 -2.68644052 0 0 Z " fill="#1B4461" transform="translate(139.1953125,89.61328125)"/>
<path d="M0 0 C3.3 0 6.6 0 10 0 C10 2.97 10 5.94 10 9 C12.64 9 15.28 9 18 9 C18 11.64 18 14.28 18 17 C15.36 17 12.72 17 10 17 C10.33 22.94 10.66 28.88 11 35 C13.31 35 15.62 35 18 35 C18 37.64 18 40.28 18 43 C14.30082559 45.46611627 10.29682956 45.71613826 6 45 C3.1899654 43.20636089 1.49059532 41.98119065 0 39 C-0.08426094 37.3325394 -0.10725143 35.66174813 -0.09765625 33.9921875 C-0.09282227 32.51298828 -0.09282227 32.51298828 -0.08789062 31.00390625 C-0.07951172 29.97136719 -0.07113281 28.93882813 -0.0625 27.875 C-0.05798828 26.83472656 -0.05347656 25.79445313 -0.04882812 24.72265625 C-0.03701952 22.14838038 -0.02055075 19.57421854 0 17 C-1.32 17 -2.64 17 -4 17 C-4 14.36 -4 11.72 -4 9 C-2.68 9 -1.36 9 0 9 C0 6.03 0 3.06 0 0 Z " fill="#174260" transform="translate(78,81)"/>
<path d="M0 0 C0 3.63 0 7.26 0 11 C-1.6396875 11.37125 -1.6396875 11.37125 -3.3125 11.75 C-7.72043323 13.2308285 -7.72043323 13.2308285 -10 17 C-10.50340078 20.24372067 -10.60276213 23.47185481 -10.6875 26.75 C-10.72166016 27.63816406 -10.75582031 28.52632812 -10.79101562 29.44140625 C-10.87327542 31.62716639 -10.93832034 33.81356233 -11 36 C-14.3 36 -17.6 36 -21 36 C-21 24.45 -21 12.9 -21 1 C-17.7 1 -14.4 1 -11 1 C-10.67 2.32 -10.34 3.64 -10 5 C-9.38125 4.360625 -8.7625 3.72125 -8.125 3.0625 C-5.04667814 0.07471702 -4.4599219 0 0 0 Z " fill="#16415F" transform="translate(176,89)"/>
<path d="M0 0 C3.3 0 6.6 0 10 0 C10 15.84 10 31.68 10 48 C8.35 48 6.7 48 5 48 C-1.59233514 38.88221337 -0.57509065 29.07086234 -0.3125 18.375 C-0.28737794 16.58987509 -0.26457169 14.80471601 -0.24414062 13.01953125 C-0.1894722 8.67883282 -0.10341948 4.33979939 0 0 Z " fill="#1C4562" transform="translate(58,77)"/>
<path d="M0 0 C0.66 0 1.32 0 2 0 C2 0.66 2 1.32 2 2 C3.65 2 5.3 2 7 2 C8.65093337 5.74777513 10.29485547 9.49858535 11.9375 13.25 C12.64036133 14.84521484 12.64036133 14.84521484 13.35742188 16.47265625 C14.0293457 18.00986328 14.0293457 18.00986328 14.71484375 19.578125 C15.12855225 20.52075195 15.54226074 21.46337891 15.96850586 22.43457031 C17 25 17 25 18 29 C14.37 29 10.74 29 7 29 C5.68 25.7 4.36 22.4 3 19 C-2.94 18.67 -8.88 18.34 -15 18 C-15.33 16.35 -15.66 14.7 -16 13 C-15.34 13 -14.68 13 -14 13 C-14 12.01 -14 11.02 -14 10 C-9.38 9.67 -4.76 9.34 0 9 C0.33 8.01 0.66 7.02 1 6 C0.34 5.34 -0.32 4.68 -1 4 C-0.625 1.875 -0.625 1.875 0 0 Z " fill="#16415F" transform="translate(40,96)"/>
<path d="M0 0 C3.63 0 7.26 0 11 0 C11 11.55 11 23.1 11 35 C9.02 35 7.04 35 5 35 C0.12419536 27.22729677 -0.65475694 20.93164522 -0.3125 11.875 C-0.28994141 10.72773437 -0.26738281 9.58046875 -0.24414062 8.3984375 C-0.18580616 5.59838332 -0.09614923 2.79901084 0 0 Z " fill="#1C4766" transform="translate(180,90)"/>
<path d="M0 0 C3.3 0 6.6 0 10 0 C10 11.55 10 23.1 10 35 C8.02 35 6.04 35 4 35 C-0.32962925 27.54273835 -0.49386338 20.91175236 -0.25 12.4375 C-0.23195313 11.23802734 -0.21390625 10.03855469 -0.1953125 8.80273438 C-0.14853808 5.86763948 -0.08300583 2.93425597 0 0 Z " fill="#19415E" transform="translate(101,90)"/>
<path d="M0 0 C3.5087884 3.84295873 6 9.74687196 6 15 C1.71 15 -2.58 15 -7 15 C-7.33 17.31 -7.66 19.62 -8 22 C-2.06 22.33 3.88 22.66 10 23 C10 23.33 10 23.66 10 24 C3.4 24 -3.2 24 -10 24 C-10.33 25.65 -10.66 27.3 -11 29 C-11.63437344 30.6792238 -12.29289322 32.35008418 -13 34 C-16.3 34 -19.6 34 -23 34 C-22.29807915 29.06678166 -20.36469225 24.74025318 -18.4375 20.1875 C-18.10814453 19.39923828 -17.77878906 18.61097656 -17.43945312 17.79882812 C-16.63041094 15.86416204 -15.81576148 13.93184247 -15 12 C-12.5 13.375 -12.5 13.375 -10 15 C-10 15.66 -10 16.32 -10 17 C-9.34 17 -8.68 17 -8 17 C-8.33 16.01 -8.66 15.02 -9 14 C-7.68 14 -6.36 14 -5 14 C-4.70996094 13.11248047 -4.70996094 13.11248047 -4.4140625 12.20703125 C-3.05585281 8.0853355 -1.67949415 4.0049476 0 0 Z " fill="#1F445F" transform="translate(33,91)"/>
<path d="M0 0 C3.71693054 -0.35399338 5.75121713 -0.12439143 9.125 1.5625 C12.60838822 4.5158074 14.22874048 6.77622731 16 11 C16 14.3 16 17.6 16 21 C8.08 21 0.16 21 -8 21 C-8 19.02 -8 17.04 -8 15 C-3.05 15 1.9 15 7 15 C3.10292221 8.80420613 3.10292221 8.80420613 -3 7 C-2.505 6.566875 -2.01 6.13375 -1.5 5.6875 C0.33218192 4.00259517 0.33218192 4.00259517 0 1 C0 0.67 0 0.34 0 0 Z " fill="#18415C" transform="translate(134,90)"/>
<path d="M0 0 C2 0.75 2 0.75 5 2.75 C4.8125 4.5625 4.8125 4.5625 4 6.75 C0.21238548 9.58729246 -2.50397293 10.11636092 -7.1875 10 C-8.75564453 9.97679688 -8.75564453 9.97679688 -10.35546875 9.953125 C-13 9.75 -13 9.75 -15 8.75 C-15 8.09 -15 7.43 -15 6.75 C-16.32 6.42 -17.64 6.09 -19 5.75 C-18 2.75 -18 2.75 -16.0625 1.5 C-15.381875 1.2525 -14.70125 1.005 -14 0.75 C-13.34 1.08 -12.68 1.41 -12 1.75 C-7.50716506 1.99506372 -3.72820596 -0.46602574 0 0 Z " fill="#16405D" transform="translate(143,115.25)"/>
<path d="M0 0 C7.92 0 15.84 0 24 0 C22.02 0.99 22.02 0.99 20 2 C19.19471111 4.05000871 19.19471111 4.05000871 19 6 C18.401875 5.79375 17.80375 5.5875 17.1875 5.375 C14.71549154 4.69328085 14.71549154 4.69328085 12 7 C8.625 7.4375 8.625 7.4375 5 7 C2.0625 4.625 2.0625 4.625 0 2 C0 1.34 0 0.68 0 0 Z " fill="#ECF6F8" transform="translate(126,111)"/>
<path d="M0 0 C3.5087884 3.84295873 6 9.74687196 6 15 C2.37 15 -1.26 15 -5 15 C-4.43174347 9.45949887 -2.37113483 4.96284034 0 0 Z " fill="#E7F0F4" transform="translate(33,91)"/>
<path d="M0 0 C2.9375 0.8125 2.9375 0.8125 4.9375 2.8125 C5.3125 5.25 5.3125 5.25 4.9375 7.8125 C3.25 9.6875 3.25 9.6875 0.9375 10.8125 C-2.43286311 10.57175978 -3.65048021 10.22451979 -6.0625 7.8125 C-6.4258156 4.97863833 -6.4193671 3.40727849 -4.9375 0.9375 C-3.0625 -0.1875 -3.0625 -0.1875 0 0 Z " fill="#274A63" transform="translate(186.0625,74.1875)"/>
<path d="M0 0 C2.06851541 1.84809983 3.38379514 3.69113592 5 6 C5 6.66 5 7.32 5 8 C0.05 8 -4.9 8 -10 8 C-9 3 -9 3 -7.25 1.1875 C-4.42670464 -0.30257255 -3.14218576 -0.68974809 0 0 Z " fill="#E3EDF2" transform="translate(136,97)"/>
<path d="M0 0 C3.3 0 6.6 0 10 0 C10 11.55 10 23.1 10 35 C8.02 35 6.04 35 4 35 C4 34.34 4 33.68 4 33 C5.32 33 6.64 33 8 33 C8 22.44 8 11.88 8 1 C5.69 1 3.38 1 1 1 C1 2.98 1 4.96 1 7 C0.67 7 0.34 7 0 7 C0 4.69 0 2.38 0 0 Z " fill="#3F5C71" transform="translate(181,90)"/>
<path d="M0 0 C2.875 0.6875 2.875 0.6875 3.875 1.6875 C4.32878151 6.90598739 4.32878151 6.90598739 2.75 9.625 C0.875 10.6875 0.875 10.6875 -2.25 10.5 C-3.19875 10.231875 -4.1475 9.96375 -5.125 9.6875 C-6.51931504 6.89886993 -6.38160094 4.76671132 -6.125 1.6875 C-3.125 -0.3125 -3.125 -0.3125 0 0 Z " fill="#274960" transform="translate(107.125,74.3125)"/>
<path d="M0 0 C1.85811 2.787165 3.22897347 5.46303 4.625 8.5 C5.07101563 9.4590625 5.51703125 10.418125 5.9765625 11.40625 C7 14 7 14 7 17 C5.68 17 4.36 17 3 17 C3 16.34 3 15.68 3 15 C2.01 15.495 2.01 15.495 1 16 C1.50603992 18.16874252 1.99983813 19.99967627 3 22 C2.01 22.99 1.02 23.98 0 25 C-0.99 22.03 -1.98 19.06 -3 16 C-2.67 15.67 -2.34 15.34 -2 15 C-1.95936168 13.33382885 -1.957279 11.66611905 -2 10 C-1.01 10 -0.02 10 1 10 C0.67 6.7 0.34 3.4 0 0 Z " fill="#244A63" transform="translate(39,81)"/>
<path d="M0 0 C1.32 0 2.64 0 4 0 C4 3.63 4 7.26 4 11 C2.3603125 11.37125 2.3603125 11.37125 0.6875 11.75 C-3.72043323 13.2308285 -3.72043323 13.2308285 -6 17 C-6.50340078 20.24372067 -6.60276213 23.47185481 -6.6875 26.75 C-6.72166016 27.63816406 -6.75582031 28.52632812 -6.79101562 29.44140625 C-6.87328714 31.62747803 -6.94250172 33.81315951 -7 36 C-7.33 36 -7.66 36 -8 36 C-8.2568091 32.79325939 -8.47543559 29.58498545 -8.6875 26.375 C-8.76033203 25.47136719 -8.83316406 24.56773438 -8.90820312 23.63671875 C-9.24161582 18.26289053 -9.14412585 14.62989416 -6 10 C-2.88649771 8.44324885 -0.29142415 9.17714396 3 10 C3 7.03 3 4.06 3 1 C2.01 0.67 1.02 0.34 0 0 Z " fill="#38566A" transform="translate(172,89)"/>
<path d="M0 0 C1.9375 0.875 1.9375 0.875 4.9375 2.875 C4.75 4.75 4.75 4.75 3.9375 6.875 C1.375 8.125 1.375 8.125 -1.0625 8.875 C-1.3925 8.215 -1.7225 7.555 -2.0625 6.875 C-3.7125 7.205 -5.3625 7.535 -7.0625 7.875 C-6.49578262 3.90797835 -4.50510789 -0.27303684 0 0 Z " fill="#164261" transform="translate(143.0625,115.125)"/>
<path d="M0 0 C1.32 0.33 2.64 0.66 4 1 C3.34 1 2.68 1 2 1 C1.67 3.31 1.34 5.62 1 8 C6.94 8.33 12.88 8.66 19 9 C19 9.33 19 9.66 19 10 C12.4 10 5.8 10 -1 10 C-1.33 10.99 -1.66 11.98 -2 13 C-3.47006623 8.58980132 -2.43537323 5.30611969 -1 1 C-1 1.66 -1 2.32 -1 3 C-0.34 3 0.32 3 1 3 C0.67 2.01 0.34 1.02 0 0 Z " fill="#30556D" transform="translate(24,105)"/>
<path d="M0 0 C1.125 1.6875 1.125 1.6875 2 4 C1.125 6.75 1.125 6.75 0 9 C-1.32 9 -2.64 9 -4 9 C-4.33 9.99 -4.66 10.98 -5 12 C-5.6875 10.375 -5.6875 10.375 -6 8 C-4.5625 4.75 -4.5625 4.75 -3 2 C-2.01 2 -1.02 2 0 2 C0 1.34 0 0.68 0 0 Z " fill="#104062" transform="translate(19,112)"/>
<path d="M0 0 C0.99 0.66 1.98 1.32 3 2 C2.01 3.485 2.01 3.485 1 5 C0.61500109 6.65549531 0.27206865 8.3222433 0 10 C-0.99 10.33 -1.98 10.66 -3 11 C-3.33 11.66 -3.66 12.32 -4 13 C-3.71812064 11.20676747 -3.4241719 9.41542874 -3.125 7.625 C-2.96257812 6.62726563 -2.80015625 5.62953125 -2.6328125 4.6015625 C-2 2 -2 2 0 0 Z " fill="#153F5D" transform="translate(122,93)"/>
<path d="M0 0 C1.65 0 3.3 0 5 0 C4.67 2.64 4.34 5.28 4 8 C2.68 8 1.36 8 0 8 C0 5.36 0 2.72 0 0 Z " fill="#1A3D57" transform="translate(74,90)"/>
<path d="M0 0 C1.29132785 3.87398355 0.41113572 6.81988786 -0.4375 10.6875 C-0.58509766 11.38939453 -0.73269531 12.09128906 -0.88476562 12.81445312 C-1.2495932 14.54444194 -1.62388689 16.27242963 -2 18 C-2.33 18 -2.66 18 -3 18 C-3.08150744 15.93816367 -3.1394194 13.87538651 -3.1875 11.8125 C-3.22230469 10.66394531 -3.25710937 9.51539062 -3.29296875 8.33203125 C-2.97622579 4.72960801 -2.08533398 2.90633161 0 0 Z " fill="#305065" transform="translate(119,96)"/>
<path d="M0 0 C0.625 2.375 0.625 2.375 1 5 C0.34 5.66 -0.32 6.32 -1 7 C-2.32 7 -3.64 7 -5 7 C-5.1875 4.625 -5.1875 4.625 -5 2 C-2 0 -2 0 0 0 Z " fill="#103F60" transform="translate(109,75)"/>
<path d="M0 0 C1.423125 0.4021875 1.423125 0.4021875 2.875 0.8125 C3.205 1.4725 3.535 2.1325 3.875 2.8125 C2.59625 2.895 1.3175 2.9775 0 3.0625 C-2.17833418 3.27119931 -2.17833418 3.27119931 -4.125 3.8125 C-5.7149433 5.73314793 -5.7149433 5.73314793 -6.125 7.8125 C-6.34917836 5.0476335 -6.44733508 3.34972513 -5 0.9375 C-3.125 -0.1875 -3.125 -0.1875 0 0 Z " fill="#315064" transform="translate(186.125,74.1875)"/>
<path d="M0 0 C2.64 0 5.28 0 8 0 C8 2.64 8 5.28 8 8 C5.36 8 2.72 8 0 8 C0.33 7.01 0.66 6.02 1 5 C2.98 5.66 4.96 6.32 7 7 C7 5.02 7 3.04 7 1 C4.69 1 2.38 1 0 1 C0 0.67 0 0.34 0 0 Z " fill="#193D53" transform="translate(88,90)"/>
<path d="M0 0 C0.99 0.33 1.98 0.66 3 1 C2.01 1.495 2.01 1.495 1 2 C1 4.31 1 6.62 1 9 C-0.98 9.99 -0.98 9.99 -3 11 C-2.53199289 6.94393835 -2.12046792 3.53411321 0 0 Z " fill="#244760" transform="translate(28,80)"/>
<path d="M0 0 C-0.33 1.32 -0.66 2.64 -1 4 C-1.99 3.67 -2.98 3.34 -4 3 C-4.33 4.32 -4.66 5.64 -5 7 C-5.66 6.67 -6.32 6.34 -7 6 C-6.625 3.5625 -6.625 3.5625 -6 1 C-4 0 -4 0 0 0 Z " fill="#134162" transform="translate(188,77)"/>
<path d="M0 0 C2.6855594 2.6855594 3.06049974 5.37621328 4 9 C2.02 9.99 2.02 9.99 0 11 C0.020625 10.2575 0.04125 9.515 0.0625 8.75 C0.10561995 6.06766043 0.10561995 6.06766043 -0.5625 3.8125 C-1 2 -1 2 0 0 Z " fill="#264D69" transform="translate(50,107)"/>
<path d="M0 0 C2.97 0 5.94 0 9 0 C7.68 0.33 6.36 0.66 5 1 C4.67 1.99 4.34 2.98 4 4 C1.4375 5.6875 1.4375 5.6875 -1 7 C-0.649375 6.21625 -0.29875 5.4325 0.0625 4.625 C0.371875 3.75875 0.68125 2.8925 1 2 C0.67 1.34 0.34 0.68 0 0 Z " fill="#183E55" transform="translate(29,79)"/>
<path d="M0 0 C0.598125 0.20625 1.19625 0.4125 1.8125 0.625 C1.8125 1.285 1.8125 1.945 1.8125 2.625 C-0.1675 2.625 -2.1475 2.625 -4.1875 2.625 C-3.8575 4.935 -3.5275 7.245 -3.1875 9.625 C-5.1875 7.625 -5.1875 7.625 -5.5 4.625 C-5.396875 3.635 -5.29375 2.645 -5.1875 1.625 C-2.1875 -0.375 -2.1875 -0.375 0 0 Z " fill="#345266" transform="translate(106.1875,74.375)"/>
<path d="M0 0 C1.65 0 3.3 0 5 0 C5 0.66 5 1.32 5 2 C8.63 2.33 12.26 2.66 16 3 C16 3.33 16 3.66 16 4 C9.86946489 4.32712342 5.37330889 4.39366878 0 1 C0 0.67 0 0.34 0 0 Z " fill="#426173" transform="translate(123,122)"/>
<path d="M0 0 C0 1.32 0 2.64 0 4 C-1.65 4.66 -3.3 5.32 -5 6 C-5.33 5.01 -5.66 4.02 -6 3 C-3.375 0 -3.375 0 0 0 Z " fill="#0C4166" transform="translate(128,94)"/>
<path d="M0 0 C0.66 0.33 1.32 0.66 2 1 C1.8125 2.875 1.8125 2.875 1 5 C-1.5625 6.25 -1.5625 6.25 -4 7 C-2.79618552 4.50638429 -1.54571278 2.31856917 0 0 Z " fill="#35546A" transform="translate(146,117)"/>
<path d="M0 0 C1.32 0.66 2.64 1.32 4 2 C3.34 3.32 2.68 4.64 2 6 C0.68 4.68 -0.64 3.36 -2 2 C-1.34 2 -0.68 2 0 2 C0 1.34 0 0.68 0 0 Z " fill="#234C66" transform="translate(138,95)"/>
</svg>
