<svg xmlns="http://www.w3.org/2000/svg" width="173" height="41" viewBox="0 0 173 41" fill="none"><path fill-rule="evenodd" clip-rule="evenodd" d="M46.5735 40.6303L23.2602 0L0 40.6303H46.5735ZM36.6251 34.0123L23.2425 10.2197L9.94843 34.0123H36.6251Z" fill="white"></path><path d="M48.5562 28.3345C48.5562 26.6135 48.8925 24.9634 49.5652 23.4198C50.2378 21.8585 51.1406 20.5101 52.2735 19.339C53.4242 18.1858 54.7341 17.2632 56.2564 16.5712C57.7611 15.8615 59.372 15.5244 61.0536 15.5244C62.1689 15.5244 63.1779 15.6664 64.063 15.9502C64.9658 16.2341 65.7446 16.5535 66.3996 16.9261C67.0546 17.2987 67.5679 17.689 67.9397 18.0793C68.3114 18.4697 68.5592 18.789 68.6654 19.0019L68.8956 16.1454H74.0999V40.009H68.6654V38.43C68.6654 38.2525 68.6831 38.0751 68.7008 37.8977C68.7185 37.738 68.7185 37.6138 68.7185 37.5428C68.5769 37.7203 68.3114 38.0041 67.9397 38.359C67.5679 38.7138 67.0546 39.0509 66.4173 39.3881C65.7977 39.7252 65.0366 40.0268 64.1515 40.2574C63.2841 40.5058 62.2574 40.63 61.1068 40.63C59.2658 40.63 57.5841 40.2929 56.0617 39.6187C54.5217 38.9445 53.194 38.0396 52.0788 36.9219C50.9636 35.8041 50.0962 34.4911 49.4766 33.0185C48.8571 31.5459 48.5562 29.9845 48.5562 28.3345ZM53.9906 27.9974C53.9906 29.0442 54.1676 30.02 54.5217 30.9071C54.8757 31.812 55.3714 32.5927 56.0263 33.2492C56.6813 33.9056 57.4602 34.4202 58.363 34.7928C59.2481 35.1653 60.2394 35.3428 61.3192 35.3428C62.4167 35.3428 63.3903 35.1653 64.2931 34.7928C65.1959 34.4202 65.9748 33.8879 66.6297 33.2137C67.267 32.5395 67.7803 31.7588 68.1344 30.8539C68.4884 29.9491 68.6654 29.0087 68.6654 27.9974C68.6654 26.9861 68.4884 26.028 68.1344 25.1586C67.7803 24.2715 67.267 23.5263 66.6297 22.8875C65.9748 22.2488 65.1959 21.7343 64.2931 21.3617C63.3903 20.9891 62.4167 20.8117 61.3192 20.8117C60.2394 20.8117 59.2481 20.9891 58.363 21.3439C57.4602 21.6988 56.6813 22.1956 56.0263 22.8521C55.3714 23.5085 54.8757 24.2715 54.5217 25.1586C54.1676 26.028 53.9906 26.9861 53.9906 27.9974ZM94.0499 22.4795C93.0055 22.4795 91.9964 22.6214 91.0583 22.8875C90.1024 23.1359 89.2527 23.544 88.5269 24.094C87.8011 24.6263 87.217 25.3005 86.7744 26.1167C86.3142 26.9151 86.1017 27.8554 86.1017 28.9555V40.009H80.7204V16.1454H85.4291C85.4999 17.4938 85.5884 18.5761 85.6769 19.4278C85.7654 20.2617 85.8539 21.2198 85.9247 22.2666C86.4027 21.2198 87.0576 20.2794 87.8896 19.4632C88.7039 18.6293 89.5536 17.9374 90.4387 17.3519C91.3061 16.7664 92.1912 16.3228 93.0409 16.0035C93.9082 15.6841 94.634 15.5244 95.2182 15.5244L94.0499 22.4795ZM114.336 33.7814C114.903 34.4911 115.434 35.1653 115.965 35.8218C116.478 36.4783 117.027 37.1525 117.593 37.8267C116.496 38.6784 115.292 39.3703 113.947 39.8671C112.601 40.3816 111.168 40.63 109.627 40.63C107.875 40.63 106.211 40.2929 104.671 39.6542C103.113 38.9977 101.768 38.0929 100.635 36.9573C99.502 35.8041 98.5815 34.4734 97.9089 32.9298C97.2362 31.4039 96.8999 29.7716 96.8999 28.0506C96.8999 26.3296 97.2362 24.715 97.9089 23.1892C98.5815 21.6811 99.502 20.3504 100.635 19.1971C101.768 18.0616 103.113 17.1567 104.671 16.5003C106.211 15.8438 107.875 15.5244 109.627 15.5244C111.203 15.5244 112.654 15.7728 114.035 16.2873C115.398 16.7841 116.637 17.4761 117.753 18.3277L114.336 22.3198C113.026 21.3085 111.451 20.8117 109.627 20.8117C108.548 20.8117 107.556 20.9891 106.654 21.3617C105.768 21.7343 104.99 22.2488 104.335 22.8875C103.68 23.5263 103.166 24.2715 102.812 25.1586C102.458 26.028 102.281 27.0038 102.281 28.0506C102.281 29.0619 102.458 30.0023 102.812 30.8894C103.166 31.7588 103.68 32.5395 104.335 33.2137C104.99 33.8879 105.768 34.4202 106.654 34.7928C107.556 35.1653 108.548 35.3428 109.627 35.3428C111.504 35.3428 113.062 34.8282 114.336 33.7814ZM119.877 28.0506C119.877 26.3296 120.213 24.715 120.868 23.1892C121.523 21.6811 122.426 20.3504 123.577 19.2326C124.745 18.1148 126.09 17.21 127.648 16.5712C129.188 15.9147 130.852 15.5776 132.604 15.5776C134.392 15.5776 136.056 15.9147 137.596 16.5712C139.119 17.21 140.446 18.1148 141.544 19.2326C142.641 20.3504 143.509 21.6811 144.146 23.1892C144.783 24.715 145.102 26.3296 145.102 28.0506C145.102 29.7716 144.783 31.4039 144.181 32.9298C143.562 34.4734 142.694 35.8041 141.562 36.9573C140.446 38.0929 139.119 38.9977 137.596 39.6542C136.056 40.2929 134.375 40.63 132.551 40.63C130.799 40.63 129.153 40.3284 127.613 39.7252C126.09 39.1397 124.745 38.288 123.612 37.1702C122.461 36.0702 121.559 34.7395 120.886 33.1782C120.213 31.6346 119.877 29.9136 119.877 28.0506ZM125.205 28.1038C125.205 29.1152 125.4 30.0555 125.772 30.9426C126.143 31.812 126.657 32.5927 127.312 33.2492C127.967 33.9056 128.728 34.4202 129.613 34.7928C130.48 35.1653 131.418 35.3428 132.427 35.3428C133.436 35.3428 134.392 35.1653 135.26 34.7928C136.145 34.4202 136.906 33.9056 137.561 33.2492C138.216 32.5927 138.747 31.812 139.136 30.9426C139.526 30.0555 139.721 29.1152 139.721 28.1038C139.721 27.0925 139.526 26.1522 139.136 25.265C138.747 24.3957 138.216 23.615 137.561 22.9585C136.906 22.302 136.145 21.7875 135.26 21.3972C134.392 21.0068 133.436 20.8117 132.427 20.8117C131.418 20.8117 130.48 21.0068 129.613 21.3972C128.728 21.7875 127.967 22.302 127.312 22.9585C126.657 23.615 126.143 24.3957 125.772 25.265C125.4 26.1522 125.205 27.0925 125.205 28.1038ZM150.2 16.1454H154.909C154.98 17.4938 155.068 18.5761 155.157 19.4278C155.245 20.2617 155.334 21.2198 155.404 22.2666C156.272 20.2439 157.476 18.6116 159.051 17.3696C160.626 16.1454 162.574 15.5244 164.928 15.5244C167.371 15.5244 169.3 16.1809 170.734 17.5116C172.168 18.8423 172.929 20.581 173 22.7101V40.009H167.672V25.2473C167.601 24.0763 167.194 23.0827 166.45 22.2311C165.707 21.3972 164.539 20.9359 162.981 20.8649C161.883 20.8649 160.892 21.0601 159.971 21.4504C159.069 21.8407 158.272 22.373 157.617 23.0472C156.962 23.7214 156.467 24.5199 156.112 25.4602C155.758 26.4006 155.581 27.4119 155.581 28.4942V40.009H150.2V16.1454Z" fill="white"></path></svg>