<svg version="1.1" id="Layer_1" xmlns="http://www.w3.org/2000/svg" xmlns:xlink="http://www.w3.org/1999/xlink" x="0px" y="0px"
	 width="100%" viewBox="0 0 1247 294" enable-background="new 0 0 1247 294" xml:space="preserve">
<path fill="#FBFDFE" opacity="1.000000" stroke="none" 
	d="
M1248.000000,291.000000 
	C1248.000000,292.331299 1248.000000,293.662567 1248.000000,294.996948 
	C1155.311279,295.000000 1062.622681,295.000000 969.575134,294.667511 
	C970.467651,293.844147 971.718994,293.353271 973.342651,292.876312 
	C974.428223,292.699097 975.141541,292.507965 976.131836,292.434387 
	C976.925110,292.300262 977.441406,292.048676 978.343262,291.778503 
	C1000.251831,286.254761 1017.606445,274.721344 1030.426270,256.114777 
	C1031.036865,255.312302 1031.358276,254.606812 1031.914062,253.639984 
	C1033.886475,250.074554 1035.624512,246.770447 1037.627197,243.304199 
	C1038.097412,242.385361 1038.303223,241.628677 1038.686035,240.608215 
	C1039.072632,239.746857 1039.282227,239.149292 1039.741211,238.368240 
	C1040.158203,237.413330 1040.325928,236.641891 1040.682129,235.554413 
	C1041.479736,233.139709 1042.088989,231.041092 1042.927734,228.748901 
	C1043.186035,227.983948 1043.214600,227.412567 1043.413330,226.510086 
	C1043.682251,225.445160 1043.781250,224.711319 1044.102173,223.771667 
	C1044.317139,222.992981 1044.310059,222.420105 1044.460693,221.511047 
	C1044.688843,220.439453 1044.759155,219.704071 1045.042114,218.757263 
	C1045.235962,217.978149 1045.217285,217.410461 1045.343506,216.435852 
	C1045.590332,214.005859 1045.692261,211.982788 1046.010864,209.625000 
	C1046.069336,204.878876 1045.911255,200.467453 1045.779785,195.628265 
	C1045.594360,193.515930 1045.382324,191.831360 1045.317871,189.883789 
	C1045.241699,189.094864 1045.017944,188.568924 1044.798584,187.670135 
	C1044.619995,186.581039 1044.437378,185.864792 1044.388672,184.878998 
	C1044.292114,184.084778 1044.061890,183.560074 1043.824951,182.653946 
	C1043.322510,180.563248 1042.826660,178.853973 1042.428711,176.812500 
	C1041.817139,174.820404 1041.107422,173.160492 1040.354492,171.183029 
	C1040.052368,170.284409 1039.793457,169.703354 1039.598267,168.822617 
	C1039.233276,167.855957 1038.804565,167.188995 1038.295654,166.182465 
	C1028.174683,143.900528 1012.200623,128.202240 989.336914,119.314453 
	C988.392334,118.901588 987.626160,118.741257 986.567505,118.391533 
	C985.164734,117.901253 984.054321,117.600372 982.748657,117.072548 
	C981.983643,116.794510 981.414062,116.743408 980.559692,116.521568 
	C979.839294,116.292175 979.403687,116.233521 978.761719,115.958351 
	C977.984619,115.745255 977.414001,115.748680 976.551147,115.592590 
	C975.822266,115.376900 975.385681,115.320724 974.706421,115.028275 
	C973.591736,114.771507 972.719604,114.751007 971.476257,114.595444 
	C970.056763,114.376511 969.008484,114.292633 967.679077,113.984192 
	C966.213562,113.776428 965.029053,113.793251 963.407593,113.678528 
	C958.362488,113.611183 953.754395,113.675377 948.811890,113.589630 
	C947.330566,113.682953 946.183716,113.926231 944.622314,114.154236 
	C942.854126,114.367714 941.500427,114.596458 939.880859,114.687210 
	C939.087891,114.753349 938.560791,114.957474 937.658691,115.171738 
	C936.571899,115.407295 935.860107,115.632713 934.821167,115.742554 
	C933.010071,116.152092 931.526062,116.677208 929.678955,117.219315 
	C927.252258,117.986870 925.188660,118.737427 922.826172,119.427551 
	C921.843689,119.763618 921.160095,120.160110 920.136597,120.636971 
	C902.155884,128.462753 887.714233,139.941788 877.514526,156.818695 
	C876.931702,157.656464 876.633118,158.378815 876.109619,159.374786 
	C874.478333,162.618942 873.071960,165.589508 871.402588,168.717865 
	C870.946960,169.630615 870.754456,170.385559 870.356445,171.449371 
	C869.511108,173.853256 868.871277,175.948257 868.003296,178.238678 
	C867.746155,179.006897 867.717041,179.579712 867.520203,180.439423 
	C867.284912,181.160233 867.217407,181.594162 866.925354,182.230576 
	C866.722107,183.006927 866.743408,183.580780 866.619507,184.452896 
	C866.414429,185.186890 866.354675,185.622650 866.043091,186.291580 
	C865.778259,187.401154 865.765198,188.277573 865.617188,189.543762 
	C865.394958,191.302963 865.307617,192.672409 865.017700,194.229340 
	C864.835449,195.286438 864.855835,196.156036 864.795227,197.482849 
	C864.767822,202.285873 864.821350,206.631729 864.713013,211.199265 
	C864.765320,212.266663 864.979675,213.112366 865.159119,214.371216 
	C865.336243,216.140488 865.548340,217.496613 865.612122,219.161377 
	C865.735229,220.292770 866.006531,221.115524 866.282227,222.270996 
	C866.430237,223.020691 866.573853,223.437637 866.583130,224.165375 
	C866.805786,225.499100 867.162781,226.522018 867.557617,227.918854 
	C867.975647,229.478531 868.355896,230.664291 868.638428,232.181396 
	C869.237976,234.167267 869.935303,235.821808 870.692017,237.813782 
	C871.324280,239.393158 871.897095,240.635101 872.411011,242.176956 
	C872.800903,243.121994 873.249634,243.767136 873.749023,244.683670 
	C873.987061,245.268478 874.174377,245.581879 874.332520,246.226151 
	C875.125122,247.816833 875.946838,249.076614 876.866577,250.662796 
	C888.836426,271.048737 905.934387,284.317444 928.623596,290.815796 
	C929.602173,291.127594 930.375305,291.211700 931.443359,291.446625 
	C932.174377,291.648438 932.610474,291.699402 933.245789,291.975891 
	C934.015564,292.218414 934.586121,292.235382 935.490723,292.410553 
	C936.543823,292.741821 937.262756,292.914886 938.118530,293.415588 
	C939.182190,293.793274 940.109009,293.843323 941.275879,293.939758 
	C941.515930,293.986176 941.977600,293.825104 942.215576,293.959839 
	C942.635742,294.396362 942.817871,294.698181 943.000000,295.000000 
	C895.977966,295.000000 848.955994,295.000000 801.680176,294.666565 
	C818.508118,291.419189 834.174683,285.349030 847.911560,274.083344 
	C839.945435,264.161591 832.365295,254.720642 824.803711,245.302750 
	C798.574768,264.121460 765.681519,256.292694 751.025208,239.243561 
	C735.258789,220.903076 733.217590,192.434433 746.971741,172.842346 
	C753.720459,163.229126 762.924072,156.768204 774.180603,153.574203 
	C792.159668,148.472733 809.061157,151.224472 824.755066,161.955536 
	C832.985657,152.302689 840.929382,142.986359 848.721924,133.847290 
	C848.264404,132.984482 848.178223,132.612396 847.944275,132.418030 
	C847.051086,131.675797 846.139404,130.948563 845.182983,130.290878 
	C832.925659,121.862358 819.571716,116.255272 804.789612,113.938469 
	C755.050293,106.142822 708.228149,139.903412 700.011719,189.627762 
	C692.042603,237.855484 725.772339,284.573669 774.706970,293.169952 
	C776.199097,293.432098 777.571655,294.374634 779.000000,295.000000 
	C670.977966,295.000000 562.955994,295.000000 454.609131,294.661743 
	C455.832397,293.776184 457.380493,293.228912 459.263733,292.694885 
	C460.016876,292.562073 460.434906,292.415985 461.134094,292.381714 
	C462.124268,292.162170 462.833252,291.830811 463.914917,291.462891 
	C467.145172,290.419861 470.002716,289.413483 473.153320,288.479889 
	C474.099426,288.135010 474.752441,287.717346 475.743286,287.232971 
	C478.697021,285.707001 481.312958,284.247711 484.234680,282.789062 
	C485.109802,282.247803 485.679138,281.705963 486.504425,281.075378 
	C487.163147,280.630859 487.565918,280.275146 488.276001,279.895233 
	C489.088318,279.267120 489.593384,278.663239 490.385986,277.898865 
	C491.726868,276.609680 492.780212,275.480957 494.191132,274.414612 
	C494.954773,274.738770 495.360809,275.000549 495.694397,275.706421 
	C495.698395,280.459198 495.774841,284.767944 495.942017,289.456360 
	C508.460632,289.957092 520.888550,290.085754 533.316772,290.156128 
	C533.637146,290.157959 533.961182,289.520966 534.466919,288.793365 
	C534.674500,232.342987 534.700012,176.281143 534.708191,120.219299 
	C534.708313,119.434677 534.491272,118.650032 534.364441,117.789986 
	C522.024048,117.789986 509.952209,117.789986 497.516968,117.908920 
	C497.025604,120.402512 496.897614,122.777176 496.653748,125.567596 
	C496.440948,128.004486 496.344086,130.025620 496.018311,132.345444 
	C495.133759,133.647583 494.478088,134.651031 493.667023,135.336517 
	C491.061951,132.644714 488.612335,130.270859 486.076447,127.602676 
	C485.304779,126.935638 484.619354,126.562950 483.800201,126.046143 
	C483.666473,125.902008 483.285004,125.806549 483.166779,125.523468 
	C482.341278,124.899849 481.633972,124.559319 480.703186,124.016876 
	C479.761932,123.467674 479.044128,123.120377 478.176147,122.480415 
	C476.640381,121.621941 475.254852,121.056122 473.584778,120.296661 
	C472.022552,119.615120 470.744781,119.127213 469.257385,118.356133 
	C465.311951,117.003082 461.576233,115.933197 457.499207,114.711357 
	C456.418243,114.477951 455.678589,114.396507 454.669647,114.074615 
	C453.216187,113.790924 452.032043,113.747673 450.476074,113.565887 
	C449.051605,113.375710 447.998901,113.324059 446.621948,113.049568 
	C442.548981,112.961212 438.800232,113.095695 434.638000,113.192238 
	C432.865692,113.343300 431.506927,113.532295 429.837921,113.585098 
	C428.699707,113.700760 427.871735,113.952614 426.672119,114.200867 
	C425.582855,114.373589 424.865173,114.549911 423.831299,114.599831 
	C422.704620,114.773392 421.894135,115.073357 420.746277,115.391113 
	C419.988007,115.563705 419.567078,115.718506 418.872559,115.747437 
	C417.915985,115.962952 417.233002,116.304352 416.194031,116.698944 
	C414.267853,117.334023 412.697662,117.915916 410.828003,118.426277 
	C409.845886,118.758705 409.163300,119.162674 408.138580,119.646042 
	C402.219818,122.881531 396.643219,126.037621 390.762146,129.204651 
	C389.913116,129.773102 389.368530,130.330597 388.517700,131.018402 
	C378.275146,138.738388 369.818481,147.639923 363.511200,158.817017 
	C362.943054,159.663086 362.653137,160.385956 362.140808,161.380371 
	C360.847626,163.968796 359.776855,166.285690 358.442871,168.757248 
	C357.974945,169.655090 357.770294,170.398270 357.381104,171.406509 
	C357.001862,172.285263 356.807190,172.898941 356.339508,173.719208 
	C355.616486,175.668579 355.166473,177.411392 354.542389,179.478424 
	C354.021271,181.222427 353.674194,182.642227 353.121216,184.176605 
	C352.917511,184.865814 352.919769,185.440430 352.798401,186.297546 
	C352.587097,187.189011 352.499390,187.797943 352.167145,188.669189 
	C351.850861,190.337830 351.779114,191.744156 351.566040,193.520142 
	C351.358185,194.940765 351.291687,195.991745 351.016174,197.223969 
	C350.823090,198.279800 350.839020,199.154419 350.769714,200.473999 
	C350.728424,203.935349 350.772369,206.951736 350.648865,210.226807 
	C350.724731,211.641495 350.968048,212.797501 351.196289,214.349823 
	C351.359833,215.781860 351.538391,216.817566 351.563965,218.190979 
	C351.702545,219.664642 351.994080,220.800613 352.291992,222.268066 
	C352.433167,223.017960 352.567993,223.436371 352.583862,224.171982 
	C352.749664,225.302673 353.034454,226.116150 353.324799,227.297928 
	C353.801605,229.060516 354.272888,230.454803 354.633759,232.176315 
	C355.244415,234.143692 355.965515,235.783844 356.745117,237.764206 
	C357.368683,239.359818 357.933685,240.615204 358.456635,242.210831 
	C359.533386,244.477737 360.652222,246.404404 361.865875,248.659149 
	C365.005646,253.308395 368.050629,257.629608 371.126099,262.255402 
	C371.752350,263.071045 372.348083,263.582062 373.095093,264.388245 
	C381.796295,274.059082 391.773254,281.451294 403.682190,286.699677 
	C405.304718,287.432709 406.726837,287.902832 408.455933,288.567078 
	C410.368408,289.275818 411.973877,289.790466 413.727325,290.664734 
	C418.250214,292.349609 422.625092,293.674805 427.000000,295.000000 
	C396.977997,295.000000 366.955963,295.000000 336.468384,294.644531 
	C335.075348,292.679535 334.147919,291.069977 333.226379,289.215240 
	C332.933167,288.605011 332.634094,288.239929 332.276672,287.545959 
	C331.908844,286.912384 331.599396,286.607666 331.296173,285.966400 
	C329.563110,282.737183 327.823853,279.844482 326.065735,276.617126 
	C325.500580,275.604095 324.954254,274.925720 324.428162,273.967773 
	C324.042633,273.092133 323.636871,272.496124 323.181610,271.581329 
	C322.826172,270.974640 322.520233,270.686707 322.207703,270.056335 
	C321.588928,268.773621 320.976746,267.833374 320.440796,266.730713 
	C320.435822,266.280151 320.249481,266.171112 319.981934,266.157715 
	C320.005798,266.074249 319.836365,266.036316 319.846680,265.710083 
	C319.329102,264.720703 318.801208,264.057556 318.249451,263.056641 
	C315.619049,258.073486 313.044922,253.409592 310.401276,248.785431 
	C264.023499,167.663467 217.632736,86.548927 171.292847,5.405338 
	C170.554489,4.112442 170.417587,2.476078 170.000000,1.000000 
	C529.333313,1.000000 888.666687,1.000000 1248.000000,1.000000 
	C1248.000000,52.768993 1248.000000,104.417519 1247.729370,156.502747 
	C1247.105713,156.871185 1246.752686,156.802933 1246.353394,156.325058 
	C1242.756714,137.061539 1232.198242,123.458626 1214.147095,117.258316 
	C1182.331665,106.330200 1146.064087,113.750755 1124.989258,152.173798 
	C1123.765015,154.405716 1122.600586,156.670380 1120.695435,160.264557 
	C1120.328247,158.067886 1120.187622,157.481689 1120.137207,156.887833 
	C1119.136719,145.108597 1118.233521,133.319717 1117.045532,121.559570 
	C1116.895752,120.078247 1115.294312,117.558105 1114.307373,117.529556 
	C1104.027100,117.232147 1093.734985,117.346291 1083.183716,117.346291 
	C1083.183716,175.086182 1083.183716,232.274292 1083.183716,289.665100 
	C1096.080566,289.665100 1108.636719,289.665100 1121.739380,289.665100 
	C1121.739380,287.570129 1121.738892,285.780823 1121.739624,283.991486 
	C1121.749146,257.501801 1121.564209,231.010254 1121.819458,204.522949 
	C1122.113281,174.050873 1145.683472,150.933075 1175.309814,151.625443 
	C1193.086182,152.040878 1205.196167,162.031479 1208.329712,179.071518 
	C1208.866699,181.991165 1208.847168,185.037842 1208.854736,188.026428 
	C1208.940674,221.675949 1208.981445,255.325562 1209.055542,289.370178 
	C1210.817017,290.026794 1212.553711,290.485046 1214.298462,290.518066 
	C1225.531250,290.730560 1236.765991,290.850006 1248.000000,291.000000 
M582.350525,157.499893 
	C582.350525,201.560089 582.350525,245.620300 582.350525,289.681274 
	C595.639282,289.681274 608.057495,289.681274 621.030396,289.681274 
	C621.030396,287.593719 621.030212,285.802429 621.030396,284.011139 
	C621.032227,259.854248 620.948669,235.696976 621.062378,211.540619 
	C621.158142,191.197037 631.627258,175.522064 650.707703,168.479324 
	C657.937012,165.810913 665.853088,164.703308 673.563293,163.762192 
	C677.508118,163.280670 678.915955,162.020554 679.480225,158.288147 
	C681.371826,145.775940 683.560242,133.308685 685.620605,120.821831 
	C686.015503,118.428825 686.345154,116.025055 686.927917,112.138962 
	C680.846619,113.774452 675.626831,114.653748 670.815613,116.562569 
	C649.455872,125.036858 632.783752,139.283676 620.177490,159.482422 
	C619.618530,157.693405 619.106750,156.711014 619.025635,155.694275 
	C618.231567,145.741165 617.491699,135.783569 616.772095,125.824699 
	C616.157349,117.316071 616.177979,117.314789 607.540039,117.315071 
	C599.280334,117.315338 591.020630,117.315117 582.350708,117.315117 
	C582.350708,130.904022 582.350708,143.701950 582.350525,157.499893 
z"/>
<path fill="#EA2D3C" opacity="1.000000" stroke="none" 
	d="
M332.335022,287.874847 
	C332.634094,288.239929 332.933167,288.605011 333.150940,289.670410 
	C332.578674,294.481903 329.344055,292.939758 327.225952,292.941193 
	C221.535751,293.013519 115.845528,293.005798 10.155297,293.005524 
	C8.990329,293.005524 7.676588,293.324768 6.698854,292.892303 
	C5.532691,292.376526 4.654446,291.209747 3.695994,289.988373 
	C11.812268,275.469818 19.872665,261.281403 27.957720,247.107040 
	C64.178284,183.606827 100.425720,120.121956 136.618530,56.605946 
	C147.155518,38.114220 157.543640,19.537670 168.000000,1.000000 
	C168.444443,1.000000 168.888901,1.000000 169.666672,1.000000 
	C170.417587,2.476078 170.554489,4.112442 171.292847,5.405338 
	C217.632736,86.548927 264.023499,167.663467 310.401276,248.785431 
	C313.044922,253.409592 315.619049,258.073486 318.183472,263.420471 
	C318.706390,264.760101 319.271393,265.398224 319.836365,266.036316 
	C319.836365,266.036316 320.005798,266.074249 320.013184,266.286621 
	C320.090881,266.669037 320.205536,266.800446 320.364532,266.893158 
	C320.976746,267.833374 321.588928,268.773621 322.227112,270.393524 
	C322.579071,271.348846 322.905090,271.624481 323.231110,271.900116 
	C323.636871,272.496124 324.042633,273.092133 324.363129,274.327393 
	C324.880096,275.628357 325.482330,276.290070 326.084564,276.951813 
	C327.823853,279.844482 329.563110,282.737183 331.297882,286.324493 
	C331.640594,287.304382 331.987793,287.589600 332.335022,287.874847 
M143.932098,118.409447 
	C120.384087,160.767303 96.836075,203.125153 72.914658,246.154694 
	C137.342346,246.154694 200.468292,246.154694 264.524078,246.154694 
	C232.401474,188.847336 200.702469,132.295715 168.411316,74.687660 
	C159.998718,89.705406 152.140396,103.733711 143.932098,118.409447 
z"/>
<path fill="#FCFEFF" opacity="1.000000" stroke="none" 
	d="
M1.000000,274.000000 
	C1.000000,183.093079 1.000000,92.186150 1.000000,1.000000 
	C52.353889,1.000000 103.708290,1.000000 155.538818,1.397275 
	C155.683167,5.288573 155.003265,8.793326 155.110550,12.273813 
	C155.235550,16.328587 153.826828,18.390686 149.745331,19.173822 
	C148.324921,19.446365 146.573517,21.190289 146.122513,22.623791 
	C145.297043,25.247471 145.682861,28.246866 144.891724,30.888367 
	C144.209000,33.167934 143.101532,36.079494 141.280151,37.095924 
	C137.817001,39.028568 135.554489,41.132042 134.832947,45.177746 
	C134.581802,46.586014 132.783173,48.569260 131.451523,48.780827 
	C126.675323,49.539658 125.502022,52.267040 125.966957,56.535587 
	C126.164085,58.345421 126.186859,60.219090 125.954407,62.020588 
	C125.584450,64.887695 125.761726,68.081284 120.944344,67.585556 
	C119.822449,67.470116 117.619446,70.812904 117.157738,72.846870 
	C116.287918,76.678642 116.484489,80.740608 115.884117,84.652603 
	C115.702660,85.834976 114.534142,87.548668 113.511902,87.806549 
	C107.612709,89.294716 105.266655,93.000572 106.027191,98.817932 
	C106.460281,102.130630 104.621300,104.401794 101.961769,104.668777 
	C97.554749,105.111176 97.146820,107.574409 96.883400,111.056137 
	C96.621414,114.518974 95.557404,117.666649 90.823685,117.050583 
	C88.079613,116.693451 86.836754,118.306038 87.016434,120.980469 
	C87.182274,123.448753 88.026726,126.044571 87.503815,128.340897 
	C86.890648,131.033524 85.591316,135.179779 83.766548,135.677414 
	C78.777275,137.037994 77.532104,139.603973 77.907578,144.255569 
	C78.102219,146.666824 77.079803,149.154755 77.074394,151.609070 
	C77.067345,154.812057 75.791183,156.073959 72.591286,156.057236 
	C68.688812,156.036835 66.213356,158.515701 67.197632,162.110657 
	C68.871490,168.224106 65.130936,171.097946 61.645275,174.763855 
	C57.142448,179.499542 53.877846,185.267960 49.316547,190.093262 
	C47.436417,192.082230 48.107445,196.713379 48.070656,200.147598 
	C48.035828,203.399170 47.163879,205.349213 43.542175,204.998169 
	C39.995819,204.654434 38.943619,206.430237 38.924568,209.762344 
	C38.904819,213.216583 38.570675,216.724533 37.839931,220.093140 
	C37.526974,221.535812 35.965302,223.678665 34.795513,223.799133 
	C29.234377,224.371796 28.386894,228.041061 27.921026,232.505859 
	C27.708027,234.547195 27.002762,236.732178 25.893648,238.446243 
	C23.210367,242.593185 18.966999,245.745895 18.291210,251.166718 
	C18.173283,252.112656 17.064577,253.483215 16.180231,253.698196 
	C9.492544,255.323944 8.634263,260.007233 8.917729,265.897980 
	C9.259614,273.002686 8.543433,273.472412 1.000000,274.000000 
z"/>
<path fill="#37393D" opacity="1.000000" stroke="none" 
	d="
M460.852905,292.269897 
	C460.434906,292.415985 460.016876,292.562073 458.978638,292.462402 
	C455.011719,292.513153 451.649017,292.699524 448.329437,293.182465 
	C447.482758,293.305664 446.772797,294.368774 446.000000,295.000000 
	C443.299988,295.000000 440.599976,295.000000 437.268372,294.656189 
	C428.950989,292.976624 421.265167,291.640869 413.579346,290.305115 
	C411.973877,289.790466 410.368408,289.275818 408.317810,288.264038 
	C406.409058,287.323547 404.945435,286.880157 403.481781,286.436768 
	C391.773254,281.451294 381.796295,274.059082 373.104248,264.061279 
	C372.339935,262.943054 371.717773,262.446930 371.095581,261.950806 
	C368.050629,257.629608 365.005646,253.308395 361.925964,248.298096 
	C360.760376,245.696182 359.629547,243.783386 358.498718,241.870575 
	C357.933685,240.615204 357.368683,239.359818 356.837494,237.410217 
	C356.162292,235.093704 355.453217,233.471405 354.744171,231.849091 
	C354.272888,230.454803 353.801605,229.060516 353.533447,227.120392 
	C353.391998,225.667969 353.047424,224.761368 352.702820,223.854767 
	C352.567993,223.436371 352.433167,223.017960 352.508484,222.057236 
	C352.384705,220.294357 352.050842,219.073822 351.716980,217.853271 
	C351.538391,216.817566 351.359833,215.781860 351.433411,214.119858 
	C351.395813,212.318405 351.106079,211.143265 350.816345,209.968109 
	C350.772369,206.951736 350.728424,203.935349 351.030945,200.316650 
	C351.326691,198.823776 351.275940,197.933258 351.225189,197.042725 
	C351.291687,195.991745 351.358185,194.940765 351.870728,193.319855 
	C352.348419,191.302231 352.380066,189.854553 352.411713,188.406876 
	C352.499390,187.797943 352.587097,187.189011 353.039551,186.194427 
	C353.378601,185.226517 353.352875,184.644272 353.327148,184.062012 
	C353.674194,182.642227 354.021271,181.222427 354.833435,179.317215 
	C355.736542,177.058731 356.174530,175.285690 356.612549,173.512634 
	C356.807190,172.898941 357.001862,172.285263 357.676392,171.288162 
	C358.339569,170.137344 358.522827,169.369965 358.706116,168.602585 
	C359.776855,166.285690 360.847626,163.968796 362.454803,161.300842 
	C363.257294,160.197784 363.523376,159.445801 363.789429,158.693817 
	C369.818481,147.639923 378.275146,138.738388 388.841553,131.045151 
	C390.003296,130.358963 390.534943,129.776321 391.066589,129.193695 
	C396.643219,126.037621 402.219818,122.881531 408.453033,119.765266 
	C409.782257,119.369331 410.454865,118.933571 411.127502,118.497810 
	C412.697662,117.915916 414.267853,117.334023 416.479034,116.815804 
	C417.795441,116.544098 418.470825,116.208717 419.146179,115.873322 
	C419.567078,115.718506 419.988007,115.563705 420.930267,115.589203 
	C422.350250,115.421738 423.248871,115.073982 424.147522,114.726227 
	C424.865173,114.549911 425.582855,114.373589 426.842621,114.419601 
	C428.305878,114.335052 429.226990,114.028168 430.148132,113.721283 
	C431.506927,113.532295 432.865692,113.343300 434.942352,113.452690 
	C439.422211,113.591522 443.184204,113.431969 446.946198,113.272415 
	C447.998901,113.324059 449.051605,113.375710 450.612305,113.828552 
	C452.393188,114.258194 453.666077,114.286629 454.938934,114.315063 
	C455.678589,114.396507 456.418243,114.477951 457.674500,114.983040 
	C461.949738,116.484222 465.708405,117.561760 469.467041,118.639297 
	C470.744781,119.127213 472.022552,119.615120 473.696838,120.606697 
	C475.504395,121.664604 476.915375,122.218834 478.326355,122.773071 
	C479.044128,123.120377 479.761932,123.467674 480.766388,124.341820 
	C481.797058,125.181297 482.541016,125.493927 483.285004,125.806549 
	C483.285004,125.806549 483.666473,125.902008 483.849884,126.365936 
	C484.743103,127.185585 485.452881,127.541306 486.162689,127.897026 
	C488.612335,130.270859 491.061951,132.644714 493.673248,135.645355 
	C494.498688,136.528564 495.162445,136.784958 495.826233,137.041367 
	C495.966553,135.376495 496.106873,133.711624 496.247192,132.046753 
	C496.344086,130.025620 496.440948,128.004486 496.940979,125.355835 
	C497.522858,122.415535 497.701599,120.102760 497.880310,117.789986 
	C509.952209,117.789986 522.024048,117.789986 534.364441,117.789986 
	C534.491272,118.650032 534.708313,119.434677 534.708191,120.219299 
	C534.700012,176.281143 534.674500,232.342987 533.979553,288.733948 
	C520.822876,289.067596 508.337097,289.072144 495.851318,289.076691 
	C495.774841,284.767944 495.698395,280.459198 495.878387,275.448914 
	C496.167694,273.998047 496.200531,273.248718 496.233398,272.499359 
	C495.433441,273.116974 494.633514,273.734619 493.833557,274.352234 
	C492.780212,275.480957 491.726868,276.609680 490.058807,277.891510 
	C488.952301,278.669586 488.460510,279.294495 487.968719,279.919434 
	C487.565918,280.275146 487.163147,280.630859 486.177582,281.030823 
	C485.039490,281.646179 484.484161,282.217316 483.928864,282.788452 
	C481.312958,284.247711 478.697021,285.707001 475.438080,287.138763 
	C474.150116,287.543182 473.505188,287.975128 472.860229,288.407104 
	C470.002716,289.413483 467.145172,290.419861 463.622528,291.314697 
	C462.255920,291.558685 461.554413,291.914276 460.852905,292.269897 
M446.166168,151.237946 
	C435.481842,150.728317 425.259766,152.450562 415.778412,157.627625 
	C390.193542,171.597641 381.791504,206.764008 397.873810,232.501999 
	C413.385040,257.326080 449.903107,264.068054 474.082550,246.571686 
	C491.640350,233.866776 499.500366,210.716217 493.731079,188.699860 
	C488.221527,167.674759 470.762878,153.672989 446.166168,151.237946 
z"/>
<path fill="#37393D" opacity="1.000000" stroke="none" 
	d="
M941.977600,293.825104 
	C941.977600,293.825104 941.515930,293.986176 941.200806,293.625336 
	C939.917664,293.205658 938.949707,293.146790 937.981689,293.087952 
	C937.262756,292.914886 936.543823,292.741821 935.407959,292.184326 
	C934.342834,291.783417 933.694702,291.766876 933.046509,291.750366 
	C932.610474,291.699402 932.174377,291.648438 931.277893,291.165344 
	C930.017700,290.684845 929.217896,290.636475 928.418152,290.588104 
	C905.934387,284.317444 888.836426,271.048737 876.934448,250.315216 
	C876.056763,248.392578 875.209229,247.143921 874.361694,245.895264 
	C874.174377,245.581879 873.987061,245.268478 873.839294,244.368805 
	C873.409180,243.147354 872.939514,242.512207 872.469849,241.877045 
	C871.897095,240.635101 871.324280,239.393158 870.797119,237.458954 
	C870.140564,235.127838 869.438354,233.488937 868.736145,231.850052 
	C868.355896,230.664291 867.975647,229.478531 867.705811,227.589294 
	C867.450012,225.875397 867.083801,224.864975 866.717529,223.854553 
	C866.573853,223.437637 866.430237,223.020691 866.493408,222.098572 
	C866.386963,220.679855 866.073669,219.766281 865.760376,218.852722 
	C865.548340,217.496613 865.336243,216.140488 865.393494,214.177780 
	C865.400208,212.706650 865.137573,211.842102 864.874939,210.977570 
	C864.821350,206.631729 864.767822,202.285873 865.049805,197.318695 
	C865.330261,195.812180 865.275269,194.927002 865.220337,194.041840 
	C865.307617,192.672409 865.394958,191.302963 865.861511,189.425690 
	C866.258789,187.964691 866.276855,187.011551 866.294922,186.058411 
	C866.354675,185.622650 866.414429,185.186890 866.845032,184.361969 
	C867.193909,183.324554 867.171936,182.676331 867.149963,182.028091 
	C867.217407,181.594162 867.284912,181.160233 867.748718,180.358276 
	C868.173828,179.341248 868.202576,178.692245 868.231384,178.043259 
	C868.871277,175.948257 869.511108,173.853256 870.655762,171.328766 
	C871.328857,170.119537 871.497253,169.339798 871.665649,168.560059 
	C873.071960,165.589508 874.478333,162.618942 876.424866,159.297852 
	C877.242981,158.199295 877.520874,157.451279 877.798828,156.703278 
	C887.714233,139.941788 902.155884,128.462753 920.450684,120.764107 
	C921.778076,120.369911 922.451599,119.928947 923.125122,119.487991 
	C925.188660,118.737427 927.252258,117.986870 929.877319,117.433418 
	C932.008606,117.039742 933.578491,116.448952 935.148315,115.858147 
	C935.860107,115.632713 936.571899,115.407295 937.777832,115.375931 
	C938.896912,115.321716 939.521851,115.073456 940.146729,114.825203 
	C941.500427,114.596458 942.854126,114.367714 944.821777,114.385742 
	C946.672546,114.334869 947.909485,114.037216 949.146362,113.739563 
	C953.754395,113.675377 958.362488,113.611183 963.560852,113.931564 
	C965.420837,114.280342 966.690552,114.244553 967.960205,114.208755 
	C969.008484,114.292633 970.056763,114.376511 971.594177,114.842926 
	C973.038574,115.238495 973.993774,115.251526 974.949036,115.264542 
	C975.385681,115.320724 975.822266,115.376900 976.637573,115.819260 
	C977.666870,116.195259 978.317444,116.185066 978.968079,116.174873 
	C979.403687,116.233521 979.839294,116.292175 980.633118,116.752777 
	C981.642212,117.202972 982.293091,117.251221 982.943970,117.299469 
	C984.054321,117.600372 985.164734,117.901253 986.701782,118.688911 
	C987.924011,119.306114 988.719604,119.436554 989.515198,119.566994 
	C1012.200623,128.202240 1028.174683,143.900528 1038.184692,166.499435 
	C1038.614258,167.811401 1039.074341,168.466858 1039.534546,169.122314 
	C1039.793457,169.703354 1040.052368,170.284409 1040.242188,171.539551 
	C1040.892212,173.857330 1041.611450,175.501007 1042.330688,177.144684 
	C1042.826660,178.853973 1043.322510,180.563248 1043.620605,182.780457 
	C1043.700195,183.908432 1043.977417,184.528473 1044.254761,185.148529 
	C1044.437378,185.864792 1044.619995,186.581039 1044.597656,187.792221 
	C1044.651855,188.907028 1044.911133,189.526901 1045.170288,190.146790 
	C1045.382324,191.831360 1045.594360,193.515930 1045.520630,195.939819 
	C1045.421387,201.105988 1045.607788,205.532837 1045.794189,209.959702 
	C1045.692261,211.982788 1045.590332,214.005859 1045.120361,216.527893 
	C1044.778198,217.674118 1044.803955,218.321396 1044.829590,218.968689 
	C1044.759155,219.704071 1044.688843,220.439453 1044.225830,221.591293 
	C1043.848633,222.664322 1043.864380,223.320892 1043.880127,223.977478 
	C1043.781250,224.711319 1043.682251,225.445160 1043.186035,226.588867 
	C1042.758545,227.646652 1042.728394,228.294556 1042.698120,228.942459 
	C1042.088989,231.041092 1041.479736,233.139709 1040.373535,235.683380 
	C1039.748413,236.936203 1039.620117,237.743958 1039.491943,238.551727 
	C1039.282227,239.149292 1039.072632,239.746857 1038.379883,240.723694 
	C1037.718750,241.890762 1037.540649,242.678558 1037.362549,243.466339 
	C1035.624512,246.770447 1033.886475,250.074554 1031.602539,253.707916 
	C1030.749878,254.762024 1030.443481,255.486893 1030.137085,256.211731 
	C1017.606445,274.721344 1000.251831,286.254761 978.210571,291.578003 
	C977.079834,291.702972 976.467346,292.009949 975.854858,292.316895 
	C975.141541,292.507965 974.428223,292.699097 973.081787,292.620148 
	C969.078003,292.598541 965.692444,292.734222 962.346924,293.173828 
	C961.499268,293.285187 960.778870,294.365112 960.000000,295.000000 
	C957.629456,295.000000 955.258850,295.000000 952.263611,294.662292 
	C948.418457,294.158112 945.198059,293.991608 941.977600,293.825104 
M957.379883,256.147369 
	C979.225159,254.595062 994.752075,243.641647 1003.247498,223.694595 
	C1011.507019,204.301514 1008.139893,185.912582 994.616699,170.025345 
	C981.121582,154.171188 963.605957,147.898163 943.050110,152.630417 
	C917.027710,158.621170 900.133362,183.612488 903.320923,210.551987 
	C906.473755,237.197876 928.630737,256.225769 957.379883,256.147369 
z"/>
<path fill="#37393D" opacity="1.000000" stroke="none" 
	d="
M779.468567,295.000000 
	C777.571655,294.374634 776.199097,293.432098 774.706970,293.169952 
	C725.772339,284.573669 692.042603,237.855484 700.011719,189.627762 
	C708.228149,139.903412 755.050293,106.142822 804.789612,113.938469 
	C819.571716,116.255272 832.925659,121.862358 845.182983,130.290878 
	C846.139404,130.948563 847.051086,131.675797 847.944275,132.418030 
	C848.178223,132.612396 848.264404,132.984482 848.721924,133.847290 
	C840.929382,142.986359 832.985657,152.302689 824.755066,161.955536 
	C809.061157,151.224472 792.159668,148.472733 774.180603,153.574203 
	C762.924072,156.768204 753.720459,163.229126 746.971741,172.842346 
	C733.217590,192.434433 735.258789,220.903076 751.025208,239.243561 
	C765.681519,256.292694 798.574768,264.121460 824.803711,245.302750 
	C832.365295,254.720642 839.945435,264.161591 847.911560,274.083344 
	C834.174683,285.349030 818.508118,291.419189 801.213196,294.666565 
	C793.979065,295.000000 786.958069,295.000000 779.468567,295.000000 
z"/>
<path fill="#FBFDFE" opacity="1.000000" stroke="none" 
	d="
M1.000000,274.467957 
	C8.543433,273.472412 9.259614,273.002686 8.917729,265.897980 
	C8.634263,260.007233 9.492544,255.323944 16.180231,253.698196 
	C17.064577,253.483215 18.173283,252.112656 18.291210,251.166718 
	C18.966999,245.745895 23.210367,242.593185 25.893648,238.446243 
	C27.002762,236.732178 27.708027,234.547195 27.921026,232.505859 
	C28.386894,228.041061 29.234377,224.371796 34.795513,223.799133 
	C35.965302,223.678665 37.526974,221.535812 37.839931,220.093140 
	C38.570675,216.724533 38.904819,213.216583 38.924568,209.762344 
	C38.943619,206.430237 39.995819,204.654434 43.542175,204.998169 
	C47.163879,205.349213 48.035828,203.399170 48.070656,200.147598 
	C48.107445,196.713379 47.436417,192.082230 49.316547,190.093262 
	C53.877846,185.267960 57.142448,179.499542 61.645275,174.763855 
	C65.130936,171.097946 68.871490,168.224106 67.197632,162.110657 
	C66.213356,158.515701 68.688812,156.036835 72.591286,156.057236 
	C75.791183,156.073959 77.067345,154.812057 77.074394,151.609070 
	C77.079803,149.154755 78.102219,146.666824 77.907578,144.255569 
	C77.532104,139.603973 78.777275,137.037994 83.766548,135.677414 
	C85.591316,135.179779 86.890648,131.033524 87.503815,128.340897 
	C88.026726,126.044571 87.182274,123.448753 87.016434,120.980469 
	C86.836754,118.306038 88.079613,116.693451 90.823685,117.050583 
	C95.557404,117.666649 96.621414,114.518974 96.883400,111.056137 
	C97.146820,107.574409 97.554749,105.111176 101.961769,104.668777 
	C104.621300,104.401794 106.460281,102.130630 106.027191,98.817932 
	C105.266655,93.000572 107.612709,89.294716 113.511902,87.806549 
	C114.534142,87.548668 115.702660,85.834976 115.884117,84.652603 
	C116.484489,80.740608 116.287918,76.678642 117.157738,72.846870 
	C117.619446,70.812904 119.822449,67.470116 120.944344,67.585556 
	C125.761726,68.081284 125.584450,64.887695 125.954407,62.020588 
	C126.186859,60.219090 126.164085,58.345421 125.966957,56.535587 
	C125.502022,52.267040 126.675323,49.539658 131.451523,48.780827 
	C132.783173,48.569260 134.581802,46.586014 134.832947,45.177746 
	C135.554489,41.132042 137.817001,39.028568 141.280151,37.095924 
	C143.101532,36.079494 144.209000,33.167934 144.891724,30.888367 
	C145.682861,28.246866 145.297043,25.247471 146.122513,22.623791 
	C146.573517,21.190289 148.324921,19.446365 149.745331,19.173822 
	C153.826828,18.390686 155.235550,16.328587 155.110550,12.273813 
	C155.003265,8.793326 155.683167,5.288573 156.007477,1.397275 
	C159.692902,1.000000 163.385818,1.000000 167.539368,1.000000 
	C157.543640,19.537670 147.155518,38.114220 136.618530,56.605946 
	C100.425720,120.121956 64.178284,183.606827 27.957720,247.107040 
	C19.872665,261.281403 11.812268,275.469818 3.417184,290.151917 
	C2.395900,291.101379 1.697947,291.550690 0.999997,292.000000 
	C1.000000,286.311951 1.000000,280.623932 1.000000,274.467957 
z"/>
<path fill="#EB414A" opacity="1.000000" stroke="none" 
	d="
M0.999997,292.500000 
	C1.697947,291.550690 2.395900,291.101379 3.372663,290.488525 
	C4.654446,291.209747 5.532691,292.376526 6.698854,292.892303 
	C7.676588,293.324768 8.990329,293.005524 10.155297,293.005524 
	C115.845528,293.005798 221.535751,293.013519 327.225952,292.941193 
	C329.344055,292.939758 332.578674,294.481903 333.145050,289.915588 
	C334.147919,291.069977 335.075348,292.679535 336.001404,294.644531 
	C225.663681,295.000000 115.327362,295.008118 4.991150,294.898529 
	C3.734886,294.897308 0.687175,296.945648 0.999997,292.500000 
z"/>
<path fill="#85888B" opacity="1.000000" stroke="none" 
	d="
M1248.000000,290.531342 
	C1236.765991,290.850006 1225.531250,290.730560 1214.298462,290.518066 
	C1212.553711,290.485046 1210.817017,290.026794 1209.521729,289.392883 
	C1221.898804,289.020630 1233.830811,289.020630 1246.022217,289.020630 
	C1246.313232,285.135895 1246.770508,281.838379 1246.775146,278.540222 
	C1246.826172,242.232285 1246.820068,205.924255 1246.788452,169.616287 
	C1246.784668,165.322311 1246.535278,161.028549 1246.399658,156.734695 
	C1246.752686,156.802933 1247.105713,156.871185 1247.729370,156.969727 
	C1248.000000,201.354233 1248.000000,245.708450 1248.000000,290.531342 
z"/>
<path fill="#68696C" opacity="1.000000" stroke="none" 
	d="
M413.727325,290.664764 
	C421.265167,291.640869 428.950989,292.976624 436.818420,294.656189 
	C433.969391,295.000000 430.938812,295.000000 427.454102,295.000000 
	C422.625092,293.674805 418.250214,292.349609 413.727325,290.664764 
z"/>
<path fill="#68696C" opacity="1.000000" stroke="none" 
	d="
M446.444153,295.000000 
	C446.772797,294.368774 447.482758,293.305664 448.329437,293.182465 
	C451.649017,292.699524 455.011719,292.513153 458.643494,292.449127 
	C457.380493,293.228912 455.832397,293.776184 454.142151,294.661743 
	C451.629425,295.000000 449.258881,295.000000 446.444153,295.000000 
z"/>
<path fill="#67696C" opacity="1.000000" stroke="none" 
	d="
M960.449951,295.000000 
	C960.778870,294.365112 961.499268,293.285187 962.346924,293.173828 
	C965.692444,292.734222 969.078003,292.598541 972.709473,292.606262 
	C971.718994,293.353271 970.467651,293.844147 969.108154,294.667511 
	C966.299988,295.000000 963.599976,295.000000 960.449951,295.000000 
z"/>
<path fill="#67696C" opacity="1.000000" stroke="none" 
	d="
M942.215576,293.959839 
	C945.198059,293.991608 948.418457,294.158112 951.819458,294.662292 
	C949.299988,295.000000 946.599976,295.000000 943.449951,295.000000 
	C942.817871,294.698181 942.635742,294.396362 942.215576,293.959839 
z"/>
<path fill="#37393D" opacity="1.000000" stroke="none" 
	d="
M1246.353394,156.325058 
	C1246.535278,161.028549 1246.784668,165.322311 1246.788452,169.616287 
	C1246.820068,205.924255 1246.826172,242.232285 1246.775146,278.540222 
	C1246.770508,281.838379 1246.313232,285.135895 1246.022217,289.020630 
	C1233.830811,289.020630 1221.898804,289.020630 1209.500732,288.997894 
	C1208.981445,255.325562 1208.940674,221.675949 1208.854736,188.026428 
	C1208.847168,185.037842 1208.866699,181.991165 1208.329712,179.071518 
	C1205.196167,162.031479 1193.086182,152.040878 1175.309814,151.625443 
	C1145.683472,150.933075 1122.113281,174.050873 1121.819458,204.522949 
	C1121.564209,231.010254 1121.749146,257.501801 1121.739624,283.991486 
	C1121.738892,285.780823 1121.739380,287.570129 1121.739380,289.665100 
	C1108.636719,289.665100 1096.080566,289.665100 1083.183716,289.665100 
	C1083.183716,232.274292 1083.183716,175.086182 1083.183716,117.346291 
	C1093.734985,117.346291 1104.027100,117.232147 1114.307373,117.529556 
	C1115.294312,117.558105 1116.895752,120.078247 1117.045532,121.559570 
	C1118.233521,133.319717 1119.136719,145.108597 1120.137207,156.887833 
	C1120.187622,157.481689 1120.328247,158.067886 1120.695435,160.264557 
	C1122.600586,156.670380 1123.765015,154.405716 1124.989258,152.173798 
	C1146.064087,113.750755 1182.331665,106.330200 1214.147095,117.258316 
	C1232.198242,123.458626 1242.756714,137.061539 1246.353394,156.325058 
z"/>
<path fill="#383A3E" opacity="1.000000" stroke="none" 
	d="
M582.350586,156.999878 
	C582.350708,143.701950 582.350708,130.904022 582.350708,117.315117 
	C591.020630,117.315117 599.280334,117.315338 607.540039,117.315071 
	C616.177979,117.314789 616.157349,117.316071 616.772095,125.824699 
	C617.491699,135.783569 618.231567,145.741165 619.025635,155.694275 
	C619.106750,156.711014 619.618530,157.693405 620.177490,159.482422 
	C632.783752,139.283676 649.455872,125.036858 670.815613,116.562569 
	C675.626831,114.653748 680.846619,113.774452 686.927917,112.138962 
	C686.345154,116.025055 686.015503,118.428825 685.620605,120.821831 
	C683.560242,133.308685 681.371826,145.775940 679.480225,158.288147 
	C678.915955,162.020554 677.508118,163.280670 673.563293,163.762192 
	C665.853088,164.703308 657.937012,165.810913 650.707703,168.479324 
	C631.627258,175.522064 621.158142,191.197037 621.062378,211.540619 
	C620.948669,235.696976 621.032227,259.854248 621.030396,284.011139 
	C621.030212,285.802429 621.030396,287.593719 621.030396,289.681274 
	C608.057495,289.681274 595.639282,289.681274 582.350525,289.681274 
	C582.350525,245.620300 582.350525,201.560089 582.350586,156.999878 
z"/>
<path fill="#68696C" opacity="1.000000" stroke="none" 
	d="
M495.942017,289.456360 
	C508.337097,289.072144 520.822876,289.067596 533.796021,289.122467 
	C533.961182,289.520966 533.637146,290.157959 533.316772,290.156128 
	C520.888550,290.085754 508.460632,289.957092 495.942017,289.456360 
z"/>
<path fill="#67696C" opacity="1.000000" stroke="none" 
	d="
M1046.010864,209.625000 
	C1045.607788,205.532837 1045.421387,201.105988 1045.494019,196.367569 
	C1045.911255,200.467453 1046.069336,204.878876 1046.010864,209.625000 
z"/>
<path fill="#68696C" opacity="1.000000" stroke="none" 
	d="
M446.621948,113.049576 
	C443.184204,113.431969 439.422211,113.591522 435.355865,113.490623 
	C438.800232,113.095695 442.548981,112.961212 446.621948,113.049576 
z"/>
<path fill="#68696C" opacity="1.000000" stroke="none" 
	d="
M469.257385,118.356133 
	C465.708405,117.561760 461.949738,116.484222 458.015808,115.135002 
	C461.576233,115.933197 465.311951,117.003082 469.257385,118.356133 
z"/>
<path fill="#68696C" opacity="1.000000" stroke="none" 
	d="
M497.516937,117.908920 
	C497.701599,120.102760 497.522858,122.415535 497.056885,124.940079 
	C496.897614,122.777176 497.025604,120.402512 497.516937,117.908920 
z"/>
<path fill="#68696C" opacity="1.000000" stroke="none" 
	d="
M358.456635,242.210815 
	C359.629547,243.783386 360.760376,245.696182 361.831116,247.970032 
	C360.652222,246.404404 359.533386,244.477737 358.456635,242.210815 
z"/>
<path fill="#68696C" opacity="1.000000" stroke="none" 
	d="
M496.018311,132.345444 
	C496.106873,133.711624 495.966553,135.376495 495.826233,137.041367 
	C495.162445,136.784958 494.498688,136.528564 493.828674,135.963318 
	C494.478088,134.651031 495.133759,133.647583 496.018311,132.345444 
z"/>
<path fill="#67696C" opacity="1.000000" stroke="none" 
	d="
M1042.428711,176.812500 
	C1041.611450,175.501007 1040.892212,173.857330 1040.285400,171.857117 
	C1041.107422,173.160492 1041.817139,174.820404 1042.428711,176.812500 
z"/>
<path fill="#68696C" opacity="1.000000" stroke="none" 
	d="
M356.339539,173.719208 
	C356.174530,175.285690 355.736542,177.058731 355.007507,178.992981 
	C355.166473,177.411392 355.616486,175.668579 356.339539,173.719208 
z"/>
<path fill="#67696C" opacity="1.000000" stroke="none" 
	d="
M934.821167,115.742569 
	C933.578491,116.448952 932.008606,117.039742 930.240479,117.416428 
	C931.526062,116.677208 933.010071,116.152092 934.821167,115.742569 
z"/>
<path fill="#68696C" opacity="1.000000" stroke="none" 
	d="
M354.633759,232.176315 
	C355.453217,233.471405 356.162292,235.093704 356.778992,237.070007 
	C355.965515,235.783844 355.244415,234.143692 354.633759,232.176315 
z"/>
<path fill="#67696C" opacity="1.000000" stroke="none" 
	d="
M868.638428,232.181396 
	C869.438354,233.488937 870.140564,235.127838 870.737671,237.121536 
	C869.935303,235.821808 869.237976,234.167267 868.638428,232.181396 
z"/>
<path fill="#67696C" opacity="1.000000" stroke="none" 
	d="
M948.811890,113.589615 
	C947.909485,114.037216 946.672546,114.334869 945.236267,114.401016 
	C946.183716,113.926231 947.330566,113.682953 948.811890,113.589615 
z"/>
<path fill="#68696C" opacity="1.000000" stroke="none" 
	d="
M351.563965,218.190979 
	C352.050842,219.073822 352.384705,220.294357 352.502106,221.725739 
	C351.994080,220.800613 351.702545,219.664642 351.563965,218.190979 
z"/>
<path fill="#67696C" opacity="1.000000" stroke="none" 
	d="
M874.332581,246.226135 
	C875.209229,247.143921 876.056763,248.392578 876.836426,249.988831 
	C875.946838,249.076614 875.125122,247.816833 874.332581,246.226135 
z"/>
<path fill="#67696C" opacity="1.000000" stroke="none" 
	d="
M967.679077,113.984184 
	C966.690552,114.244553 965.420837,114.280342 963.997925,114.063103 
	C965.029053,113.793251 966.213562,113.776428 967.679077,113.984184 
z"/>
<path fill="#68696C" opacity="1.000000" stroke="none" 
	d="
M478.176147,122.480415 
	C476.915375,122.218834 475.504395,121.664604 473.981354,120.800339 
	C475.254852,121.056122 476.640381,121.621941 478.176147,122.480415 
z"/>
<path fill="#68696C" opacity="1.000000" stroke="none" 
	d="
M350.648865,210.226807 
	C351.106079,211.143265 351.395813,212.318405 351.448456,213.723541 
	C350.968048,212.797501 350.724731,211.641495 350.648865,210.226807 
z"/>
<path fill="#68696C" opacity="1.000000" stroke="none" 
	d="
M352.167145,188.669189 
	C352.380066,189.854553 352.348419,191.302231 352.012085,192.950195 
	C351.779114,191.744156 351.850861,190.337830 352.167145,188.669189 
z"/>
<path fill="#68696C" opacity="1.000000" stroke="none" 
	d="
M454.669647,114.074623 
	C453.666077,114.286629 452.393188,114.258194 450.984100,113.967087 
	C452.032043,113.747673 453.216187,113.790924 454.669647,114.074623 
z"/>
<path fill="#68696C" opacity="1.000000" stroke="none" 
	d="
M403.682190,286.699677 
	C404.945435,286.880157 406.409058,287.323547 408.010834,288.069946 
	C406.726837,287.902832 405.304718,287.432709 403.682190,286.699677 
z"/>
<path fill="#68696C" opacity="1.000000" stroke="none" 
	d="
M494.191162,274.414612 
	C494.633514,273.734619 495.433441,273.116974 496.233398,272.499359 
	C496.200531,273.248718 496.167694,273.998047 495.950867,275.004883 
	C495.360809,275.000549 494.954773,274.738770 494.191162,274.414612 
z"/>
<path fill="#67696C" opacity="1.000000" stroke="none" 
	d="
M864.713013,211.199249 
	C865.137573,211.842102 865.400208,212.706650 865.428406,213.764633 
	C864.979675,213.112366 864.765320,212.266663 864.713013,211.199249 
z"/>
<path fill="#68696C" opacity="1.000000" stroke="none" 
	d="
M429.837921,113.585098 
	C429.226990,114.028168 428.305878,114.335052 427.214233,114.423203 
	C427.871735,113.952614 428.699707,113.700760 429.837921,113.585098 
z"/>
<path fill="#67696C" opacity="1.000000" stroke="none" 
	d="
M938.118530,293.415588 
	C938.949707,293.146790 939.917664,293.205658 940.960815,293.578918 
	C940.109009,293.843323 939.182190,293.793274 938.118530,293.415588 
z"/>
<path fill="#67696C" opacity="1.000000" stroke="none" 
	d="
M974.706421,115.028282 
	C973.993774,115.251526 973.038574,115.238495 971.965393,114.977982 
	C972.719604,114.751007 973.591736,114.771507 974.706421,115.028282 
z"/>
<path fill="#67696C" opacity="1.000000" stroke="none" 
	d="
M866.583130,224.165375 
	C867.083801,224.864975 867.450012,225.875397 867.668091,227.215378 
	C867.162781,226.522018 866.805786,225.499100 866.583130,224.165375 
z"/>
<path fill="#68696C" opacity="1.000000" stroke="none" 
	d="
M352.583862,224.171982 
	C353.047424,224.761368 353.391998,225.667969 353.527954,226.752106 
	C353.034454,226.116150 352.749664,225.302673 352.583862,224.171982 
z"/>
<path fill="#67696C" opacity="1.000000" stroke="none" 
	d="
M865.612183,219.161377 
	C866.073669,219.766281 866.386963,220.679855 866.489014,221.765839 
	C866.006531,221.115524 865.735229,220.292770 865.612183,219.161377 
z"/>
<path fill="#68696C" opacity="1.000000" stroke="none" 
	d="
M423.831299,114.599823 
	C423.248871,115.073982 422.350250,115.421738 421.267639,115.571411 
	C421.894135,115.073357 422.704620,114.773392 423.831299,114.599823 
z"/>
<path fill="#68696C" opacity="1.000000" stroke="none" 
	d="
M351.016174,197.223969 
	C351.275940,197.933258 351.326691,198.823776 351.116211,199.871674 
	C350.839020,199.154419 350.823090,198.279800 351.016174,197.223969 
z"/>
<path fill="#67696C" opacity="1.000000" stroke="none" 
	d="
M865.017700,194.229340 
	C865.275269,194.927002 865.330261,195.812180 865.130737,196.861496 
	C864.855835,196.156036 864.835449,195.286438 865.017700,194.229340 
z"/>
<path fill="#67696C" opacity="1.000000" stroke="none" 
	d="
M866.043091,186.291580 
	C866.276855,187.011551 866.258789,187.964691 865.996460,189.035904 
	C865.765198,188.277573 865.778259,187.401154 866.043091,186.291580 
z"/>
<path fill="#67696C" opacity="1.000000" stroke="none" 
	d="
M1030.426270,256.114746 
	C1030.443481,255.486893 1030.749878,254.762024 1031.368042,253.969238 
	C1031.358276,254.606812 1031.036865,255.312302 1030.426270,256.114746 
z"/>
<path fill="#67696C" opacity="1.000000" stroke="none" 
	d="
M939.880859,114.687210 
	C939.521851,115.073456 938.896912,115.321716 938.152832,115.365784 
	C938.560791,114.957474 939.087891,114.753349 939.880859,114.687210 
z"/>
<path fill="#68696C" opacity="1.000000" stroke="none" 
	d="
M473.153320,288.479858 
	C473.505188,287.975128 474.150116,287.543182 475.100281,287.205444 
	C474.752441,287.717346 474.099426,288.135010 473.153320,288.479858 
z"/>
<path fill="#67696C" opacity="1.000000" stroke="none" 
	d="
M928.623596,290.815796 
	C929.217896,290.636475 930.017700,290.684845 930.982910,291.014526 
	C930.375305,291.211700 929.602173,291.127594 928.623596,290.815796 
z"/>
<path fill="#68696C" opacity="1.000000" stroke="none" 
	d="
M461.134094,292.381683 
	C461.554413,291.914276 462.255920,291.558685 463.249817,291.351288 
	C462.833252,291.830811 462.124268,292.162170 461.134094,292.381683 
z"/>
<path fill="#68696C" opacity="1.000000" stroke="none" 
	d="
M371.126099,262.255402 
	C371.717773,262.446930 372.339935,262.943054 372.952942,263.766174 
	C372.348083,263.582062 371.752350,263.071045 371.126099,262.255402 
z"/>
<path fill="#67696C" opacity="1.000000" stroke="none" 
	d="
M933.245789,291.975891 
	C933.694702,291.766876 934.342834,291.783417 935.073853,292.026123 
	C934.586121,292.235382 934.015564,292.218414 933.245789,291.975891 
z"/>
<path fill="#EB414A" opacity="1.000000" stroke="none" 
	d="
M319.846680,265.710083 
	C319.271393,265.398224 318.706390,264.760101 318.207367,263.758209 
	C318.801208,264.057556 319.329102,264.720703 319.846680,265.710083 
z"/>
<path fill="#67696C" opacity="1.000000" stroke="none" 
	d="
M1044.102051,223.771667 
	C1043.864380,223.320892 1043.848633,222.664322 1044.067993,221.927490 
	C1044.310059,222.420105 1044.317139,222.992981 1044.102051,223.771667 
z"/>
<path fill="#67696C" opacity="1.000000" stroke="none" 
	d="
M976.131836,292.434387 
	C976.467346,292.009949 977.079834,291.702972 977.825012,291.596558 
	C977.441406,292.048676 976.925110,292.300262 976.131836,292.434387 
z"/>
<path fill="#68696C" opacity="1.000000" stroke="none" 
	d="
M488.276001,279.895233 
	C488.460510,279.294495 488.952301,278.669586 489.771240,278.052002 
	C489.593384,278.663239 489.088318,279.267120 488.276001,279.895233 
z"/>
<path fill="#67696C" opacity="1.000000" stroke="none" 
	d="
M872.411011,242.176941 
	C872.939514,242.512207 873.409180,243.147354 873.788574,244.097382 
	C873.249634,243.767136 872.800903,243.121994 872.411011,242.176941 
z"/>
<path fill="#68696C" opacity="1.000000" stroke="none" 
	d="
M484.234680,282.789032 
	C484.484161,282.217316 485.039490,281.646179 485.921631,281.119598 
	C485.679138,281.705963 485.109802,282.247803 484.234680,282.789032 
z"/>
<path fill="#67696C" opacity="1.000000" stroke="none" 
	d="
M871.402588,168.717880 
	C871.497253,169.339798 871.328857,170.119537 870.861206,171.019882 
	C870.754456,170.385559 870.946960,169.630615 871.402588,168.717880 
z"/>
<path fill="#67696C" opacity="1.000000" stroke="none" 
	d="
M989.336914,119.314453 
	C988.719604,119.436554 987.924011,119.306114 986.994141,118.878304 
	C987.626160,118.741257 988.392334,118.901588 989.336914,119.314453 
z"/>
<path fill="#67696C" opacity="1.000000" stroke="none" 
	d="
M922.826172,119.427551 
	C922.451599,119.928947 921.778076,120.369911 920.790527,120.683739 
	C921.160095,120.160110 921.843689,119.763618 922.826172,119.427551 
z"/>
<path fill="#68696C" opacity="1.000000" stroke="none" 
	d="
M483.166779,125.523468 
	C482.541016,125.493927 481.797058,125.181297 480.989868,124.543732 
	C481.633972,124.559319 482.341278,124.899849 483.166779,125.523468 
z"/>
<path fill="#68696C" opacity="1.000000" stroke="none" 
	d="
M486.076447,127.602676 
	C485.452881,127.541306 484.743103,127.185585 483.983612,126.510071 
	C484.619354,126.562950 485.304779,126.935638 486.076447,127.602676 
z"/>
<path fill="#68696C" opacity="1.000000" stroke="none" 
	d="
M390.762146,129.204651 
	C390.534943,129.776321 390.003296,130.358963 389.147797,130.914856 
	C389.368530,130.330597 389.913116,129.773102 390.762146,129.204651 
z"/>
<path fill="#68696C" opacity="1.000000" stroke="none" 
	d="
M410.828003,118.426277 
	C410.454865,118.933571 409.782257,119.369331 408.795166,119.685867 
	C409.163300,119.162674 409.845886,118.758705 410.828003,118.426277 
z"/>
<path fill="#67696C" opacity="1.000000" stroke="none" 
	d="
M982.748657,117.072540 
	C982.293091,117.251221 981.642212,117.202972 980.917847,116.923523 
	C981.414062,116.743408 981.983643,116.794510 982.748657,117.072540 
z"/>
<path fill="#67696C" opacity="1.000000" stroke="none" 
	d="
M978.761719,115.958351 
	C978.317444,116.185066 977.666870,116.195259 976.929810,115.978775 
	C977.414001,115.748680 977.984619,115.745255 978.761719,115.958351 
z"/>
<path fill="#67696C" opacity="1.000000" stroke="none" 
	d="
M877.514526,156.818695 
	C877.520874,157.451279 877.242981,158.199295 876.649780,159.024231 
	C876.633118,158.378815 876.931702,157.656464 877.514526,156.818695 
z"/>
<path fill="#68696C" opacity="1.000000" stroke="none" 
	d="
M363.511230,158.817017 
	C363.523376,159.445801 363.257294,160.197784 362.677246,161.029297 
	C362.653137,160.385956 362.943054,159.663086 363.511230,158.817017 
z"/>
<path fill="#67696C" opacity="1.000000" stroke="none" 
	d="
M1039.598267,168.822632 
	C1039.074341,168.466858 1038.614258,167.811401 1038.264893,166.838989 
	C1038.804565,167.188995 1039.233276,167.855957 1039.598267,168.822632 
z"/>
<path fill="#68696C" opacity="1.000000" stroke="none" 
	d="
M358.442871,168.757248 
	C358.522827,169.369965 358.339569,170.137344 357.860992,171.023087 
	C357.770294,170.398270 357.974945,169.655090 358.442871,168.757248 
z"/>
<path fill="#67696C" opacity="1.000000" stroke="none" 
	d="
M1037.627197,243.304199 
	C1037.540649,242.678558 1037.718750,241.890762 1038.202881,240.987488 
	C1038.303223,241.628677 1038.097412,242.385361 1037.627197,243.304199 
z"/>
<path fill="#67696C" opacity="1.000000" stroke="none" 
	d="
M868.003296,178.238678 
	C868.202576,178.692245 868.173828,179.341248 867.916504,180.071381 
	C867.717041,179.579712 867.746155,179.006897 868.003296,178.238678 
z"/>
<path fill="#67696C" opacity="1.000000" stroke="none" 
	d="
M866.925354,182.230576 
	C867.171936,182.676331 867.193909,183.324554 866.990356,184.063721 
	C866.743408,183.580780 866.722107,183.006927 866.925354,182.230576 
z"/>
<path fill="#67696C" opacity="1.000000" stroke="none" 
	d="
M1044.388672,184.878998 
	C1043.977417,184.528473 1043.700195,183.908432 1043.627197,183.161865 
	C1044.061890,183.560074 1044.292114,184.084778 1044.388672,184.878998 
z"/>
<path fill="#68696C" opacity="1.000000" stroke="none" 
	d="
M353.121216,184.176605 
	C353.352875,184.644272 353.378601,185.226517 353.163177,185.911896 
	C352.919769,185.440430 352.917511,184.865814 353.121216,184.176605 
z"/>
<path fill="#67696C" opacity="1.000000" stroke="none" 
	d="
M1045.317871,189.883789 
	C1044.911133,189.526901 1044.651855,188.907028 1044.593506,188.165070 
	C1045.017944,188.568924 1045.241699,189.094864 1045.317871,189.883789 
z"/>
<path fill="#68696C" opacity="1.000000" stroke="none" 
	d="
M418.872559,115.747452 
	C418.470825,116.208717 417.795441,116.544098 416.835022,116.762619 
	C417.233002,116.304352 417.915985,115.962952 418.872559,115.747452 
z"/>
<path fill="#67696C" opacity="1.000000" stroke="none" 
	d="
M1045.042114,218.757263 
	C1044.803955,218.321396 1044.778198,217.674118 1044.975586,216.934799 
	C1045.217285,217.410461 1045.235962,217.978149 1045.042114,218.757263 
z"/>
<path fill="#67696C" opacity="1.000000" stroke="none" 
	d="
M1042.927734,228.748901 
	C1042.728394,228.294556 1042.758545,227.646652 1043.015991,226.919968 
	C1043.214600,227.412567 1043.186035,227.983948 1042.927734,228.748901 
z"/>
<path fill="#67696C" opacity="1.000000" stroke="none" 
	d="
M1039.741211,238.368240 
	C1039.620117,237.743958 1039.748413,236.936203 1040.185059,235.999451 
	C1040.325928,236.641891 1040.158203,237.413330 1039.741211,238.368240 
z"/>
<path fill="#EB414A" opacity="1.000000" stroke="none" 
	d="
M326.065735,276.617126 
	C325.482330,276.290070 324.880096,275.628357 324.342896,274.606995 
	C324.954254,274.925720 325.500580,275.604095 326.065735,276.617126 
z"/>
<path fill="#EB414A" opacity="1.000000" stroke="none" 
	d="
M332.276672,287.545959 
	C331.987793,287.589600 331.640594,287.304382 331.291656,286.661041 
	C331.599396,286.607666 331.908844,286.912384 332.276672,287.545959 
z"/>
<path fill="#EB414A" opacity="1.000000" stroke="none" 
	d="
M323.181610,271.581329 
	C322.905090,271.624481 322.579071,271.348846 322.233673,270.736023 
	C322.520233,270.686707 322.826172,270.974640 323.181610,271.581329 
z"/>
<path fill="#EB414A" opacity="1.000000" stroke="none" 
	d="
M320.440796,266.730713 
	C320.205536,266.800446 320.090881,266.669037 319.989319,266.370087 
	C320.249481,266.171112 320.435822,266.280151 320.440796,266.730713 
z"/>
<path fill="#FBFBFC" opacity="1.000000" stroke="none" 
	d="
M144.107086,118.085739 
	C152.140396,103.733711 159.998718,89.705406 168.411316,74.687660 
	C200.702469,132.295715 232.401474,188.847336 264.524078,246.154694 
	C200.468292,246.154694 137.342346,246.154694 72.914658,246.154694 
	C96.836075,203.125153 120.384087,160.767303 144.107086,118.085739 
z"/>
<path fill="#FAFCFD" opacity="1.000000" stroke="none" 
	d="
M446.619934,151.259399 
	C470.762878,153.672989 488.221527,167.674759 493.731079,188.699860 
	C499.500366,210.716217 491.640350,233.866776 474.082550,246.571686 
	C449.903107,264.068054 413.385040,257.326080 397.873810,232.501999 
	C381.791504,206.764008 390.193542,171.597641 415.778412,157.627625 
	C425.259766,152.450562 435.481842,150.728317 446.619934,151.259399 
z"/>
<path fill="#FAFCFD" opacity="1.000000" stroke="none" 
	d="
M956.903992,256.153198 
	C928.630737,256.225769 906.473755,237.197876 903.320923,210.551987 
	C900.133362,183.612488 917.027710,158.621170 943.050110,152.630417 
	C963.605957,147.898163 981.121582,154.171188 994.616699,170.025345 
	C1008.139893,185.912582 1011.507019,204.301514 1003.247498,223.694595 
	C994.752075,243.641647 979.225159,254.595062 956.903992,256.153198 
z"/>
</svg>