<?xml version="1.0" encoding="UTF-8"?>
<svg version="1.1" xmlns="http://www.w3.org/2000/svg" width="200" height="200">
<path d="M0 0 C66 0 132 0 200 0 C200 66 200 132 200 200 C134 200 68 200 0 200 C0 134 0 68 0 0 Z " fill="#0076B2" transform="translate(0,0)"/>
<path d="M0 0 C0 2.31 0 4.62 0 7 C1.98 7 3.96 7 6 7 C6 8.98 6 10.96 6 13 C4.02 13 2.04 13 0 13 C0.495 19.435 0.495 19.435 1 26 C2.98 26.495 2.98 26.495 5 27 C5 28.98 5 30.96 5 33 C3.41676312 33.027193 1.83338938 33.04648306 0.25 33.0625 C-0.63171875 33.07410156 -1.5134375 33.08570313 -2.421875 33.09765625 C-5 33 -5 33 -9 32 C-8.67 26.06 -8.34 20.12 -8 14 C-9.32 14.33 -10.64 14.66 -12 15 C-11.505 23.415 -11.505 23.415 -11 32 C-14.66666667 32 -18.33333333 32 -22 32 C-23.485 32.495 -23.485 32.495 -25 33 C-32.05061082 33.47469459 -32.05061082 33.47469459 -35 32 C-36.00496852 28.98509443 -36.10335303 26.95818308 -36.0625 23.8125 C-36.05347656 22.91144531 -36.04445313 22.01039062 -36.03515625 21.08203125 C-36.02355469 20.39496094 -36.01195313 19.70789063 -36 19 C-35.34 19 -34.68 19 -34 19 C-34.495 17.515 -34.495 17.515 -35 16 C-35 15.67 -35 15.34 -35 15 C-35.66 15 -36.32 15 -37 15 C-37.495 17.475 -37.495 17.475 -38 20 C-38.66 20 -39.32 20 -40 20 C-39.71125 20.66 -39.4225 21.32 -39.125 22 C-38.95025646 26.19384504 -40.59885565 28.18501188 -43.1640625 31.39453125 C-45 33 -45 33 -48.875 33.5 C-49.90625 33.335 -50.9375 33.17 -52 33 C-52 32.01 -52 31.02 -52 30 C-52.66 30 -53.32 30 -54 30 C-54.99 28.02 -55.98 26.04 -57 24 C-57.66 24 -58.32 24 -59 24 C-59.825 24.825 -60.65 25.65 -61.5 26.5 C-62.325 27.325 -63.15 28.15 -64 29 C-64.66 29 -65.32 29 -66 29 C-66.103125 29.598125 -66.20625 30.19625 -66.3125 30.8125 C-67.08876455 33.28243264 -68.07088921 34.32251235 -70 36 C-70.33 35.01 -70.66 34.02 -71 33 C-71.66 33 -72.32 33 -73 33 C-73 33.66 -73 34.32 -73 35 C-74.43534841 35.2226746 -75.87345525 35.42761906 -77.3125 35.625 C-78.11300781 35.74101563 -78.91351563 35.85703125 -79.73828125 35.9765625 C-82 36 -82 36 -85 34 C-86.95263503 33.8052928 -88.91371174 33.68858291 -90.875 33.625 C-94.63759978 33.35201815 -96.79254872 33.10575948 -100.1875 31.375 C-102.66503206 28.12857868 -103.14308158 26.07782502 -103 22 C-100.84567661 19.321652 -99.07491161 17.53745581 -96 16 C-93.3276379 15.86584528 -90.67749512 15.95681459 -88 16 C-89.63778399 12.7882039 -89.63778399 12.7882039 -92.3828125 12.48828125 C-93.28773437 12.43027344 -94.19265625 12.37226562 -95.125 12.3125 C-96.03507812 12.24675781 -96.94515625 12.18101563 -97.8828125 12.11328125 C-98.93082031 12.05720703 -98.93082031 12.05720703 -100 12 C-100 10.35 -100 8.7 -100 7 C-97.93867858 6.89135055 -95.87568679 6.81411679 -93.8125 6.75 C-92.66394531 6.70359375 -91.51539063 6.6571875 -90.33203125 6.609375 C-86.34289706 7.07703434 -84.78908693 8.16502316 -82 11 C-81.10659227 13.6802232 -80.85647909 15.3640125 -80.7890625 18.125 C-80.76070312 18.91390625 -80.73234375 19.7028125 -80.703125 20.515625 C-80.65104881 22.17164796 -80.60677502 23.8279347 -80.5703125 25.484375 C-80.539375 26.27328125 -80.5084375 27.0621875 -80.4765625 27.875 C-80.45674316 28.59429687 -80.43692383 29.31359375 -80.41650391 30.0546875 C-80.08641224 32.45698295 -80.08641224 32.45698295 -77 35 C-77 25.76 -77 16.52 -77 7 C-69.41 7 -61.82 7 -54 7 C-53.34 8.32 -52.68 9.64 -52 11 C-50.4587688 12.70921589 -50.4587688 12.70921589 -49 14 C-47.68 13.34 -46.36 12.68 -45 12 C-45 10.02 -45 8.04 -45 6 C-34.44 6 -23.88 6 -13 6 C-13 6.66 -13 7.32 -13 8 C-12.34 8 -11.68 8 -11 8 C-11 7.34 -11 6.68 -11 6 C-10.01 6 -9.02 6 -8 6 C-8 4.68 -8 3.36 -8 2 C-5.09399739 0.74335022 -3.20395416 0 0 0 Z " fill="#0777B1" transform="translate(135,84)"/>
<path d="M0 0 C0 2.31 0 4.62 0 7 C1.98 7 3.96 7 6 7 C6 8.98 6 10.96 6 13 C4.02 13 2.04 13 0 13 C0.495 19.435 0.495 19.435 1 26 C2.32 26.33 3.64 26.66 5 27 C5 28.98 5 30.96 5 33 C3.41676312 33.027193 1.83338938 33.04648306 0.25 33.0625 C-0.63171875 33.07410156 -1.5134375 33.08570313 -2.421875 33.09765625 C-5 33 -5 33 -9 32 C-8.67 26.06 -8.34 20.12 -8 14 C-9.32 14.33 -10.64 14.66 -12 15 C-11.505 23.415 -11.505 23.415 -11 32 C-14.66666667 32 -18.33333333 32 -22 32 C-23.485 32.495 -23.485 32.495 -25 33 C-32.05061082 33.47469459 -32.05061082 33.47469459 -35 32 C-36.00496852 28.98509443 -36.10335303 26.95818308 -36.0625 23.8125 C-36.05347656 22.91144531 -36.04445313 22.01039062 -36.03515625 21.08203125 C-36.02355469 20.39496094 -36.01195313 19.70789063 -36 19 C-35.34 19 -34.68 19 -34 19 C-34.33 18.01 -34.66 17.02 -35 16 C-35 15.67 -35 15.34 -35 15 C-35.66 15 -36.32 15 -37 15 C-37.33 16.65 -37.66 18.3 -38 20 C-38.66 20 -39.32 20 -40 20 C-39.71125 20.66 -39.4225 21.32 -39.125 22 C-38.95025646 26.19384504 -40.59885565 28.18501188 -43.1640625 31.39453125 C-45 33 -45 33 -48.875 33.5 C-49.90625 33.335 -50.9375 33.17 -52 33 C-51.67 32.34 -51.34 31.68 -51 31 C-49.35 31 -47.7 31 -46 31 C-42.7 23.08 -39.4 15.16 -36 7 C-37.98 7.33 -39.96 7.66 -42 8 C-43.47450142 10.62436981 -44.43915985 12.75753649 -45.375 15.5625 C-45.63410156 16.27341797 -45.89320312 16.98433594 -46.16015625 17.71679688 C-46.79554831 19.4700083 -47.40074498 21.2341102 -48 23 C-50.45823172 19.31265242 -51.01242616 16.30300029 -52 12 C-51.34 12 -50.68 12 -50 12 C-49.67 12.66 -49.34 13.32 -49 14 C-47.68 13.34 -46.36 12.68 -45 12 C-45 10.02 -45 8.04 -45 6 C-34.44 6 -23.88 6 -13 6 C-13 6.66 -13 7.32 -13 8 C-12.34 8 -11.68 8 -11 8 C-11 7.34 -11 6.68 -11 6 C-10.01 6 -9.02 6 -8 6 C-8 4.68 -8 3.36 -8 2 C-5.09399739 0.74335022 -3.20395416 0 0 0 Z " fill="#1A78A8" transform="translate(135,84)"/>
<path d="M0 0 C3.56986793 1.36718346 4.68082803 2.526745 6.8125 5.6875 C8.23709757 9.66137745 8.74040647 12.83209393 8 17 C5.59980377 21.89270769 3.13722479 24.18686184 -2 26 C-5.58361927 26.58641043 -7.8399901 26.7333661 -10.96484375 24.7578125 C-14.57225003 21.7922147 -16.67447986 19.80160773 -17.23828125 14.94921875 C-17.4194823 9.42735507 -16.72103642 6.35892838 -13 2 C-8.73755081 -0.8416328 -5.00032912 -0.50403317 0 0 Z " fill="#F3FCFC" transform="translate(160,91)"/>
<path d="M0 0 C2.06132142 -0.10864945 4.12431321 -0.18588321 6.1875 -0.25 C7.33605469 -0.29640625 8.48460937 -0.3428125 9.66796875 -0.390625 C13 0 13 0 15.90625 1.34375 C19.19226264 5.51257201 18.53488566 9.61118067 18.3125 14.75 C18.28994141 15.73355469 18.26738281 16.71710938 18.24414062 17.73046875 C18.18528805 20.1551947 18.10313431 22.57681983 18 25 C15.33333333 25 12.66666667 25 10 25 C8.88625 25.2475 7.7725 25.495 6.625 25.75 C3 26 3 26 0.125 24.5 C-2.66257079 21.22050496 -3.1506132 19.29247606 -3 15 C-0.84567661 12.321652 0.92508839 10.53745581 4 9 C6.6723621 8.86584528 9.32250488 8.95681459 12 9 C10.36221601 5.7882039 10.36221601 5.7882039 7.6171875 5.48828125 C6.71226563 5.43027344 5.80734375 5.37226562 4.875 5.3125 C3.96492188 5.24675781 3.05484375 5.18101563 2.1171875 5.11328125 C1.41851562 5.07589844 0.71984375 5.03851563 0 5 C0 3.35 0 1.7 0 0 Z " fill="#E8FBFB" transform="translate(35,91)"/>
<path d="M0 0 C1.74965358 -0.05429959 3.49979787 -0.09292823 5.25 -0.125 C6.22453125 -0.14820312 7.1990625 -0.17140625 8.203125 -0.1953125 C12.67446211 0.11693171 12.67446211 0.11693171 15 2 C16.99510446 7.02540464 17.21994789 11.57294412 17.125 16.9375 C17.11597656 17.62134766 17.10695313 18.30519531 17.09765625 19.00976562 C17.07438958 20.67333287 17.03853167 22.33671631 17 24 C16.01 24 15.02 24 14 24 C14 23.34 14 22.68 14 22 C13.34 22 12.68 22 12 22 C12 19.03 12 16.06 12 13 C9.36 13.66 6.72 14.32 4 15 C4.33 16.65 4.66 18.3 5 20 C6.65 20.33 8.3 20.66 10 21 C10 22.32 10 23.64 10 25 C7.13802132 25.63060547 4.88781741 26.11209642 2 26 C-1 24 -1 24 -3 21 C-3.5625 17.4375 -3.5625 17.4375 -3 14 C-0.78136971 11.09282927 0.51944929 10.16018357 4 9 C5.39439664 8.93334624 6.79169875 8.91461801 8.1875 8.9375 C10.0746875 8.9684375 10.0746875 8.9684375 12 9 C10.36221601 5.7882039 10.36221601 5.7882039 7.6171875 5.48828125 C6.71226563 5.43027344 5.80734375 5.37226562 4.875 5.3125 C3.96492188 5.24675781 3.05484375 5.18101563 2.1171875 5.11328125 C1.41851562 5.07589844 0.71984375 5.03851563 0 5 C0 3.35 0 1.7 0 0 Z " fill="#E9F8FC" transform="translate(103,91)"/>
<path d="M0 0 C0 2.31 0 4.62 0 7 C1.98 7 3.96 7 6 7 C6 8.98 6 10.96 6 13 C4.02 13 2.04 13 0 13 C0.33 17.29 0.66 21.58 1 26 C2.32 26.33 3.64 26.66 5 27 C5 28.65 5 30.3 5 32 C-2.28624535 32.48574969 -2.28624535 32.48574969 -5.25 30.46875 C-7.6278793 27.1142417 -7.44389656 24.19504925 -7.25 20.25 C-7.23195313 19.55261719 -7.21390625 18.85523437 -7.1953125 18.13671875 C-7.14838554 16.42388461 -7.07664605 14.71176176 -7 13 C-7.99 13 -8.98 13 -10 13 C-10 11.02 -10 9.04 -10 7 C-9.01 7 -8.02 7 -7 7 C-7 5.35 -7 3.7 -7 2 C-4.35261084 0.5393715 -3.10551666 0 0 0 Z " fill="#D9EFF7" transform="translate(135,84)"/>
<path d="M0 0 C2.31 0 4.62 0 7 0 C7.26554687 0.67546875 7.53109375 1.3509375 7.8046875 2.046875 C8.15789062 2.93890625 8.51109375 3.8309375 8.875 4.75 C9.39707031 6.07257813 9.39707031 6.07257813 9.9296875 7.421875 C10.8646709 9.6740248 11.87780794 11.83649459 13 14 C13.34933594 13.07316406 13.69867188 12.14632812 14.05859375 11.19140625 C14.51363281 9.99386719 14.96867187 8.79632813 15.4375 7.5625 C15.88996094 6.36753906 16.34242187 5.17257813 16.80859375 3.94140625 C18 1 18 1 19 0 C20.99958364 -0.04080783 23.00045254 -0.04254356 25 0 C23.18006743 5.76311982 21.11029789 11.38770545 18.875 17 C18.60929199 17.6710376 18.34358398 18.3420752 18.06982422 19.03344727 C16.12376909 23.87623091 16.12376909 23.87623091 15 25 C13.33382885 25.04063832 11.66611905 25.042721 10 25 C0 3.38297872 0 3.38297872 0 0 Z " fill="#E6F7FB" transform="translate(74,91)"/>
<path d="M0 0 C0.33 0 0.66 0 1 0 C1 1.65 1 3.3 1 5 C0.01 5 -0.98 5 -2 5 C-2 6.98 -2 8.96 -2 11 C-1.01 11 -0.02 11 1 11 C1.03738281 12.04800781 1.07476562 13.09601563 1.11328125 14.17578125 C1.17894515 15.55472305 1.24539235 16.93362771 1.3125 18.3125 C1.33505859 19.00279297 1.35761719 19.69308594 1.38085938 20.40429688 C1.53431598 23.29207111 1.66345746 25.49108201 3.28125 27.9375 C5.32433314 29.20049685 6.80085341 29.49187323 9.1875 29.6875 C10.445625 29.790625 11.70375 29.89375 13 30 C13 30.33 13 30.66 13 31 C11.41676312 31.027193 9.83338938 31.04648306 8.25 31.0625 C6.92742187 31.07990234 6.92742187 31.07990234 5.578125 31.09765625 C3 31 3 31 -1 30 C-0.67 24.06 -0.34 18.12 0 12 C-1.32 12.33 -2.64 12.66 -4 13 C-3.505 21.415 -3.505 21.415 -3 30 C-11.75 30.125 -11.75 30.125 -14 29 C-14 28.01 -14 27.02 -14 26 C-14.78375 26.04125 -15.5675 26.0825 -16.375 26.125 C-19 26 -19 26 -21 24 C-20.75 21.4375 -20.75 21.4375 -20 19 C-17.29120665 17.64560332 -14.99066732 17.93498549 -12 18 C-12 20.97 -12 23.94 -12 27 C-11.34 27 -10.68 27 -10 27 C-10 27.66 -10 28.32 -10 29 C-9.01 29 -8.02 29 -7 29 C-7.69001543 17.47126895 -7.69001543 17.47126895 -9 6 C-7.02 6 -5.04 6 -3 6 C-3 5.34 -3 4.68 -3 4 C-2.01 4 -1.02 4 0 4 C0 2.68 0 1.36 0 0 Z " fill="#1372A3" transform="translate(127,86)"/>
<path d="M0 0 C3.33954007 5.21803136 3.37195476 9.92473899 3 16 C2.67 16 2.34 16 2 16 C1.80083984 14.86111328 1.80083984 14.86111328 1.59765625 13.69921875 C1.42105469 12.70535156 1.24445313 11.71148437 1.0625 10.6875 C0.88847656 9.70136719 0.71445313 8.71523437 0.53515625 7.69921875 C0.04253153 4.91810787 0.04253153 4.91810787 -1 2 C-5.4486662 -0.72660187 -10.95708525 -0.83634547 -16 0 C-18.82424288 2.19022918 -20.41508603 3.83017207 -22 7 C-22.42484112 12.02893321 -22.35785972 16.4316468 -20 21 C-22.475 20.01 -22.475 20.01 -25 19 C-25.33 20.32 -25.66 21.64 -26 23 C-26 21.68 -26 20.36 -26 19 C-27.65 18.67 -29.3 18.34 -31 18 C-31 13.71 -31 9.42 -31 5 C-29.02 5 -27.04 5 -25 5 C-25 3.02 -25 1.04 -25 -1 C-23.33333333 -1.33333333 -21.66666667 -1.66666667 -20 -2 C-19.21625 -2.185625 -18.4325 -2.37125 -17.625 -2.5625 C-11.39392738 -3.6010121 -5.44270548 -3.44459514 0 0 Z " fill="#1373A4" transform="translate(166,92)"/>
<path d="M0 0 C0 0.33 0 0.66 0 1 C-2.31 1.66 -4.62 2.32 -7 3 C-5.865625 3.144375 -4.73125 3.28875 -3.5625 3.4375 C0 4 0 4 1 5 C1.13568319 8.66344611 1.16461426 11.50615721 0 15 C-2.61994087 17.01533913 -4.15422643 16.99724596 -7.5 16.9375 C-11 16 -11 16 -13.5 13.875 C-15 11 -15 11 -15.125 7.4375 C-14 4 -14 4 -11.4375 1.5625 C-7.18771527 -0.36922033 -4.61356825 -0.31817712 0 0 Z " fill="#E4F7FA" transform="translate(47,100)"/>
<path d="M0 0 C1.65 0 3.3 0 5 0 C5 0.66 5 1.32 5 2 C5.99 1.34 6.98 0.68 8 0 C9.32 0 10.64 0 12 0 C12 1.65 12 3.3 12 5 C10.35 5.66 8.7 6.32 7 7 C6.67 12.61 6.34 18.22 6 24 C4.02 24 2.04 24 0 24 C0 16.08 0 8.16 0 0 Z " fill="#EFFEFE" transform="translate(59,92)"/>
<path d="M0 0 C5.12610405 -0.65439626 5.12610405 -0.65439626 7.6640625 1.24609375 C9.77752648 4.02078769 9.47281697 6.45344069 9.3515625 9.83203125 C9 12 9 12 7.3125 14.625 C5 16 5 16 2.375 15.875 C0 15 0 15 -2 13 C-2.265625 10.72265625 -2.265625 10.72265625 -2.25 8.0625 C-2.25515625 7.18722656 -2.2603125 6.31195313 -2.265625 5.41015625 C-2 3 -2 3 0 0 Z " fill="#0F76AB" transform="translate(152,96)"/>
<path d="M0 0 C3.56986793 1.36718346 4.68082803 2.526745 6.8125 5.6875 C8.27368655 9.76344144 8.22263036 12.69581308 8 17 C7.67 17 7.34 17 7 17 C6.91363281 16.32453125 6.82726562 15.6490625 6.73828125 14.953125 C5.88017279 9.1387569 5.88017279 9.1387569 2.5625 4.4375 C0.00490491 2.89699698 0.00490491 2.89699698 -3 2 C-3 2.66 -3 3.32 -3 4 C-2.34 4 -1.68 4 -1 4 C-1.33 4.66 -1.66 5.32 -2 6 C-3.98 6 -5.96 6 -8 6 C-9.24377393 8.48754786 -9.13306235 10.22655301 -9.125 13 C-9.12757813 13.886875 -9.13015625 14.77375 -9.1328125 15.6875 C-9.15127902 18.02676966 -9.15127902 18.02676966 -8 20 C-8.99 19.67 -9.98 19.34 -11 19 C-11.33 16.03 -11.66 13.06 -12 10 C-12.99 10.495 -12.99 10.495 -14 11 C-14.46651207 13.12576782 -14.46651207 13.12576782 -14.625 15.5625 C-14.69976562 16.38878906 -14.77453125 17.21507813 -14.8515625 18.06640625 C-14.90054688 18.70449219 -14.94953125 19.34257813 -15 20 C-17.69248399 15.96127401 -17.67205444 12.74486631 -17 8 C-12.83099868 0.09327336 -8.36724276 -0.84341807 0 0 Z " fill="#D4EEF6" transform="translate(160,91)"/>
<path d="M0 0 C2.64 0 5.28 0 8 0 C8 0.33 8 0.66 8 1 C6.02 1 4.04 1 2 1 C2 10.24 2 19.48 2 29 C0 28 0 28 -2 26 C-2.29378713 22.26630025 -2.41513273 18.57073404 -2.47851562 14.828125 C-2.64729074 9.82250194 -3.34093376 6.39632284 -6 2 C-4.02 2 -2.04 2 0 2 C0 1.34 0 0.68 0 0 Z " fill="#0A74A9" transform="translate(56,90)"/>
<path d="M0 0 C4.62 0 9.24 0 14 0 C14 2.31 14 4.62 14 7 C12.35 7 10.7 7 9 7 C10.32 6.67 11.64 6.34 13 6 C13 4.35 13 2.7 13 1 C10.69 1.66 8.38 2.32 6 3 C6 2.34 6 1.68 6 1 C4.35 1 2.7 1 1 1 C1 9.25 1 17.5 1 26 C1.99 26 2.98 26 4 26 C4 26.66 4 27.32 4 28 C2.56465159 28.2226746 1.12654475 28.42761906 -0.3125 28.625 C-1.51326172 28.79902344 -1.51326172 28.79902344 -2.73828125 28.9765625 C-5 29 -5 29 -8 27 C-10.32387947 26.60612212 -12.65793749 26.26513915 -15 26 C-13.68 25.01 -12.36 24.02 -11 23 C-10.67 23.66 -10.34 24.32 -10 25 C-8.35 25 -6.7 25 -5 25 C-5 19.06 -5 13.12 -5 7 C-4.67 7 -4.34 7 -4 7 C-3.96261719 8.26457031 -3.92523438 9.52914062 -3.88671875 10.83203125 C-3.82106167 12.4922173 -3.75461424 14.15237222 -3.6875 15.8125 C-3.66494141 16.64587891 -3.64238281 17.47925781 -3.61914062 18.33789062 C-3.58369141 19.14033203 -3.54824219 19.94277344 -3.51171875 20.76953125 C-3.48553467 21.50792236 -3.45935059 22.24631348 -3.43237305 23.00708008 C-3.0904096 25.45069878 -3.0904096 25.45069878 0 28 C0 18.76 0 9.52 0 0 Z " fill="#398BB5" transform="translate(58,91)"/>
<path d="M0 0 C2.04470249 1.66736408 2.92566921 2.52497566 3.34057617 5.17651367 C3.32486572 5.99869385 3.30915527 6.82087402 3.29296875 7.66796875 C3.28330078 8.56064453 3.27363281 9.45332031 3.26367188 10.37304688 C3.23853516 11.30181641 3.21339844 12.23058594 3.1875 13.1875 C3.17396484 14.12787109 3.16042969 15.06824219 3.14648438 16.03710938 C3.11113096 18.35865038 3.06178674 20.67903653 3 23 C-2.75 23.125 -2.75 23.125 -5 22 C-5 21.01 -5 20.02 -5 19 C-5.78375 19.04125 -6.5675 19.0825 -7.375 19.125 C-10 19 -10 19 -12 17 C-11.75 14.4375 -11.75 14.4375 -11 12 C-8.29120665 10.64560332 -5.99066732 10.93498549 -3 11 C-3 13.97 -3 16.94 -3 20 C-2.34 20 -1.68 20 -1 20 C-1 20.66 -1 21.32 -1 22 C-0.01 22 0.98 22 2 22 C1.85758352 19.64558284 1.71115192 17.29152516 1.5625 14.9375 C1.48128906 13.62652344 1.40007812 12.31554687 1.31640625 10.96484375 C1.02101751 7.26336762 0.56734612 3.66629552 0 0 Z " fill="#C0E8F4" transform="translate(118,93)"/>
<path d="M0 0 C0.66 0 1.32 0 2 0 C2 6.27 2 12.54 2 19 C0.35 18.67 -1.3 18.34 -3 18 C-3 15.03 -3 12.06 -3 9 C-5.64 8.67 -8.28 8.34 -11 8 C-9 5 -9 5 -7.0546875 4.48828125 C-6.33539063 4.43027344 -5.61609375 4.37226562 -4.875 4.3125 C-3.59625 4.209375 -2.3175 4.10625 -1 4 C-0.67 2.68 -0.34 1.36 0 0 Z " fill="#F8FEFD" transform="translate(50,96)"/>
<path d="M0 0 C0.5625 1.9375 0.5625 1.9375 1 4 C0.67 4.33 0.34 4.66 0 5 C-0.144375 6.11375 -0.28875 7.2275 -0.4375 8.375 C-1 12 -1 12 -3 15 C-3.99 14.67 -4.98 14.34 -6 14 C-6 10.7 -6 7.4 -6 4 C-4.7934375 3.566875 -4.7934375 3.566875 -3.5625 3.125 C-0.8673532 2.26737432 -0.8673532 2.26737432 0 0 Z " fill="#0376B3" transform="translate(142,94)"/>
<path d="M0 0 C0.04898438 0.71027344 0.09796875 1.42054687 0.1484375 2.15234375 C0.22320312 3.07144531 0.29796875 3.99054688 0.375 4.9375 C0.44460937 5.85402344 0.51421875 6.77054687 0.5859375 7.71484375 C0.72257813 8.46894531 0.85921875 9.22304687 1 10 C1.66 10.33 2.32 10.66 3 11 C3 12.32 3 13.64 3 15 C0.50638429 13.79618552 -1.68143083 12.54571278 -4 11 C-4.3984375 8.90625 -4.3984375 8.90625 -4.375 6.5 C-4.38273438 5.7059375 -4.39046875 4.911875 -4.3984375 4.09375 C-4.26695312 3.4028125 -4.13546875 2.711875 -4 2 C-1 0 -1 0 0 0 Z " fill="#F9FEFE" transform="translate(149,100)"/>
<path d="M0 0 C2.475 0.495 2.475 0.495 5 1 C5.335939 2.4577353 5.66866624 3.91621106 6 5.375 C6.185625 6.18710938 6.37125 6.99921875 6.5625 7.8359375 C7 10 7 10 7 12 C5.1875 11.9375 5.1875 11.9375 3 11 C0.90330932 7.03126406 0 4.51561274 0 0 Z " fill="#F5FDFD" transform="translate(76,93)"/>
<path d="M0 0 C2.12472576 -0.05386629 4.24983652 -0.09273071 6.375 -0.125 C7.55835938 -0.14820312 8.74171875 -0.17140625 9.9609375 -0.1953125 C13 0 13 0 15 2 C12.69 2 10.38 2 8 2 C8 2.66 8 3.32 8 4 C8.66 4.33 9.32 4.66 10 5 C6.7 5 3.4 5 0 5 C0 3.35 0 1.7 0 0 Z " fill="#D2F0FA" transform="translate(35,91)"/>
<path d="M0 0 C0.33 0.66 0.66 1.32 1 2 C0.01 2.66 -0.98 3.32 -2 4 C-0.02 4 1.96 4 4 4 C1.33005484 6.66994516 -0.5928289 6.95390516 -4.3125 7.375 C-9.15821997 6.88221492 -10.57392366 5.3425135 -14 2 C-11 2 -11 2 -8 4 C-7.34 3.01 -6.68 2.02 -6 1 C-2.875 0.3125 -2.875 0.3125 0 0 Z " fill="#D9F6FC" transform="translate(159,110)"/>
<path d="M0 0 C2.31 0 4.62 0 7 0 C7 1.98 7 3.96 7 6 C4.125 6.625 4.125 6.625 1 7 C0.34 6.34 -0.32 5.68 -1 5 C-0.625 2.375 -0.625 2.375 0 0 Z " fill="#2C82AD" transform="translate(107,105)"/>
<path d="M0 0 C2.31 0 4.62 0 7 0 C7 1.98 7 3.96 7 6 C4.125 6.625 4.125 6.625 1 7 C0.34 6.34 -0.32 5.68 -1 5 C-0.625 2.375 -0.625 2.375 0 0 Z " fill="#2B78A1" transform="translate(40,105)"/>
<path d="M0 0 C1.4540625 0.0309375 1.4540625 0.0309375 2.9375 0.0625 C2.6075 0.7225 2.2775 1.3825 1.9375 2.0625 C0.6175 2.0625 -0.7025 2.0625 -2.0625 2.0625 C-1.7325 7.3425 -1.4025 12.6225 -1.0625 18.0625 C-2.0525 18.0625 -3.0425 18.0625 -4.0625 18.0625 C-4.08934312 15.24993719 -4.10926188 12.43762759 -4.125 9.625 C-4.13337891 8.82255859 -4.14175781 8.02011719 -4.15039062 7.19335938 C-4.1590143 5.14954779 -4.1147815 3.10566098 -4.0625 1.0625 C-3.0625 0.0625 -3.0625 0.0625 0 0 Z " fill="#1874A3" transform="translate(69.0625,97.9375)"/>
<path d="M0 0 C0 0.33 0 0.66 0 1 C-2.31 1.66 -4.62 2.32 -7 3 C-4.69 3.33 -2.38 3.66 0 4 C0 4.33 0 4.66 0 5 C-2.31 5.33 -4.62 5.66 -7 6 C-7 7.65 -7 9.3 -7 11 C-7.66 11 -8.32 11 -9 11 C-9.66 9.02 -10.32 7.04 -11 5 C-11.99 5.33 -12.98 5.66 -14 6 C-13.08486681 3.71216703 -12.34515354 2.26550272 -10.375 0.75 C-6.86146845 -0.35953628 -3.67700382 -0.12256679 0 0 Z " fill="#C6E7F4" transform="translate(47,100)"/>
<path d="M0 0 C-0.66 0.37125 -1.32 0.7425 -2 1.125 C-4.3540441 2.89285508 -4.3540441 2.89285508 -4.125 6.0625 C-4.063125 7.5165625 -4.063125 7.5165625 -4 9 C-4.66 9.66 -5.32 10.32 -6 11 C-6.66 10.67 -7.32 10.34 -8 10 C-8.43489791 4.69424556 -8.43489791 4.69424556 -8 2 C-4.92424881 -0.74323755 -3.96809386 -1.32269795 0 0 Z " fill="#0176B2" transform="translate(159,99)"/>
<path d="M0 0 C9.46811493 -0.32095305 9.46811493 -0.32095305 13 2 C16.16091967 7.34086427 16.37407183 11.89016005 16 18 C15.67 18 15.34 18 15 18 C14.86722656 17.24074219 14.73445312 16.48148438 14.59765625 15.69921875 C14.42105469 14.70535156 14.24445313 13.71148437 14.0625 12.6875 C13.88847656 11.70136719 13.71445313 10.71523437 13.53515625 9.69921875 C13.04253153 6.91810787 13.04253153 6.91810787 12 4 C8.16836808 1.97148898 4.26947129 1.50229074 0 1 C0 0.67 0 0.34 0 0 Z " fill="#1972A0" transform="translate(153,90)"/>
<path d="M0 0 C2.31 0 4.62 0 7 0 C7.69685498 1.6210103 8.38222861 3.24696066 9.0625 4.875 C9.44535156 5.77992187 9.82820313 6.68484375 10.22265625 7.6171875 C11 10 11 10 10 12 C9.75765625 11.36191406 9.5153125 10.72382812 9.265625 10.06640625 C8.93046875 9.24011719 8.5953125 8.41382812 8.25 7.5625 C7.92515625 6.73878906 7.6003125 5.91507812 7.265625 5.06640625 C6.18068448 2.8150121 6.18068448 2.8150121 3.859375 2.21484375 C2.93898438 2.10849609 2.93898438 2.10849609 2 2 C1.67 2.66 1.34 3.32 1 4 C0.67 2.68 0.34 1.36 0 0 Z " fill="#BAE3F4" transform="translate(74,91)"/>
<path d="M0 0 C0 0.99 0 1.98 0 3 C-0.66 3.66 -1.32 4.32 -2 5 C-2.46396693 7.89223503 -2.46396693 7.89223503 -2.625 11.125 C-2.69976562 12.22070312 -2.77453125 13.31640625 -2.8515625 14.4453125 C-2.90054688 15.28835937 -2.94953125 16.13140625 -3 17 C-5.66301861 13.00547208 -5.84758428 9.69874395 -5 5 C-2.5 1.9375 -2.5 1.9375 0 0 Z " fill="#D9F6FB" transform="translate(148,94)"/>
<path d="M0 0 C1.98 0.99 1.98 0.99 4 2 C4 2.66 4 3.32 4 4 C5.65 4 7.3 4 9 4 C8.67 2.68 8.34 1.36 8 0 C8.99 0 9.98 0 11 0 C11 1.65 11 3.3 11 5 C9.741875 5.04125 8.48375 5.0825 7.1875 5.125 C6.47980469 5.14820312 5.77210938 5.17140625 5.04296875 5.1953125 C3 5 3 5 0 3 C0 2.01 0 1.02 0 0 Z " fill="#D2F5FC" transform="translate(129,111)"/>
<path d="M0 0 C0.66 0 1.32 0 2 0 C2.33 3.3 2.66 6.6 3 10 C2.01 10 1.02 10 0 10 C0 9.34 0 8.68 0 8 C-0.66 8 -1.32 8 -2 8 C-2 7.01 -2 6.02 -2 5 C-1.34 5 -0.68 5 0 5 C-0.33 4.01 -0.66 3.02 -1 2 C-0.67 1.34 -0.34 0.68 0 0 Z " fill="#FCFDFB" transform="translate(117,105)"/>
<path d="M0 0 C0.99 0.33 1.98 0.66 3 1 C3.94921875 3.06640625 3.94921875 3.06640625 4.6875 5.5625 C4.93886719 6.38878906 5.19023438 7.21507813 5.44921875 8.06640625 C5.63097656 8.70449219 5.81273438 9.34257813 6 10 C4.02 10.99 4.02 10.99 2 12 C2 8.66666667 2 5.33333333 2 2 C1.34 2 0.68 2 0 2 C0 1.34 0 0.68 0 0 Z " fill="#1A7AA9" transform="translate(72,92)"/>
<path d="M0 0 C4.29 0 8.58 0 13 0 C13 2.31 13 4.62 13 7 C11.35 7 9.7 7 8 7 C9.32 6.67 10.64 6.34 12 6 C12 4.35 12 2.7 12 1 C9.69 1.66 7.38 2.32 5 3 C5 2.34 5 1.68 5 1 C3.35 1 1.7 1 0 1 C0 0.67 0 0.34 0 0 Z " fill="#65ABCE" transform="translate(59,91)"/>
<path d="M0 0 C0.45375 0.61875 0.9075 1.2375 1.375 1.875 C5.18535123 4.95957005 9.23390116 5.30873376 14 6 C14 6.33 14 6.66 14 7 C12.41676312 7.027193 10.83338938 7.04648306 9.25 7.0625 C7.92742187 7.07990234 7.92742187 7.07990234 6.578125 7.09765625 C4.2181162 7.00826198 2.25501476 6.66912821 0 6 C0 4.02 0 2.04 0 0 Z " fill="#1778AA" transform="translate(126,110)"/>
<path d="M0 0 C1.65 0 3.3 0 5 0 C4.67 1.32 4.34 2.64 4 4 C2.35 4 0.7 4 -1 4 C-1.33 3.34 -1.66 2.68 -2 2 C-1.34 2 -0.68 2 0 2 C0 1.34 0 0.68 0 0 Z " fill="#0872A9" transform="translate(109,105)"/>
<path d="M0 0 C1.67542976 0.28604898 3.34385343 0.61781233 5 1 C5 1.99 5 2.98 5 4 C3.35 4 1.7 4 0 4 C-0.33 3.01 -0.66 2.02 -1 1 C-0.67 0.67 -0.34 0.34 0 0 Z " fill="#FAFDFA" transform="translate(133,111)"/>
<path d="M0 0 C1.32 0 2.64 0 4 0 C4.33 0.99 4.66 1.98 5 3 C3.35 3.33 1.7 3.66 0 4 C0 2.68 0 1.36 0 0 Z " fill="#0674B1" transform="translate(41,106)"/>
<path d="M0 0 C0.33 0 0.66 0 1 0 C1.36923077 6.52307692 1.36923077 6.52307692 -0.5 8.9375 C-0.995 9.288125 -1.49 9.63875 -2 10 C-2.66 8.68 -3.32 7.36 -4 6 C-3.01 5.67 -2.02 5.34 -1 5 C-0.67 3.35 -0.34 1.7 0 0 Z " fill="#1875A5" transform="translate(160,101)"/>
<path d="M0 0 C0.66 0 1.32 0 2 0 C2 2.64 2 5.28 2 8 C1.01 8.33 0.02 8.66 -1 9 C-0.67 6.03 -0.34 3.06 0 0 Z " fill="#DAF6FD" transform="translate(161,101)"/>
<path d="M0 0 C4.92127034 -0.16682272 8.50343896 -0.24828052 13 2 C12.01 2.66 11.02 3.32 10 4 C9.01 3.34 8.02 2.68 7 2 C4.67612053 1.60612212 2.34206251 1.26513915 0 1 C0 0.67 0 0.34 0 0 Z " fill="#3383AA" transform="translate(153,90)"/>
<path d="M0 0 C0.99 0 1.98 0 3 0 C2.01 2.97 1.02 5.94 0 9 C-0.33 9 -0.66 9 -1 9 C-1.09765625 2.84765625 -1.09765625 2.84765625 -1 1 C-0.67 0.67 -0.34 0.34 0 0 Z " fill="#0874A8" transform="translate(137,97)"/>
</svg>
