<?xml version="1.0" encoding="utf-8"?>
<!-- Generator: Adobe Illustrator 19.0.0, SVG Export Plug-In . SVG Version: 6.00 Build 0)  -->
<svg version="1.1" id="layer" xmlns="http://www.w3.org/2000/svg" xmlns:xlink="http://www.w3.org/1999/xlink" x="0px" y="0px"
	 viewBox="-153 -46 652 652" style="enable-background:new -153 -46 652 652;" xml:space="preserve">
<style type="text/css">
	.st0{fill:#F26728;}
	.st1{fill:#F99E23;}
	.st2{fill:#FFC82B;}
	.st3{fill:#93C83D;}
	.st4{fill:#51C2BA;}
	.st5{fill:#0DB7BD;}
	.st6{fill:#4F5FAB;}
	.st7{fill:#3A5EAB;}
	.st8{fill:#198BCC;}
	.st9{fill:#16A4DE;}
</style>
<polygon class="st0" points="-79.2,330.1 -79.2,321.2 -79.2,312.3 -64.1,303.4 -49,312.3 -49,330.1 -56.5,334.5 -64.1,339 "/>
<path class="st1" d="M-113.4,299.6c0.3-0.2,12.7-7.5,13.1-7.4c0.4,0,12.8,7.4,13.1,7.6c0.2,0.3,0.4,7.8,0.3,8.2
	c0,0.4-0.2,7.9-0.5,8.1c-0.1,0.1-6.3,3.8-6.5,3.8c-0.2,0.1-6.4,3.6-6.6,3.6c-0.4,0-12.8-7.4-13.1-7.7c-0.2-0.3-0.4-7.8-0.3-8.2
	C-113.8,307.4-113.6,299.9-113.4,299.6"/>
<path class="st2" d="M-130.5,268.4c0.6-0.5,10.4-6.1,11.2-6c0.8,0.1,10.5,5.8,11,6.4c0.5,0.6,0.7,6.7,0.6,7.5
	c-0.1,0.8-0.5,6.8-1,7.3c-0.3,0.2-5.1,3.1-5.5,3.2c-0.4,0.1-5.3,2.8-5.7,2.8c-0.8-0.1-10.5-5.8-11-6.4c-0.5-0.6-0.7-6.7-0.6-7.5
	C-131.4,274.9-131.1,268.9-130.5,268.4"/>
<path class="st3" d="M-124.4,231.9c0.9-0.7,8-4.7,9.2-4.6c1.2,0.1,8.3,4.3,9,5.1c0.7,0.9,1.1,5.6,1,6.8c-0.1,1.2-0.7,5.8-1.6,6.5
	c-0.4,0.4-3.9,2.4-4.5,2.6c-0.5,0.2-4.1,2-4.7,2c-1.2-0.1-8.3-4.3-9-5.1c-0.7-0.9-1.1-5.6-1-6.8
	C-125.8,237.2-125.2,232.6-124.4,231.9"/>
<path class="st4" d="M-98.5,202.3c1.1-1,5.7-3.3,7.2-3.1c1.6,0.2,6,2.7,6.9,3.9c0.9,1.2,1.4,4.5,1.3,6.1c-0.2,1.6-0.9,4.8-2.1,5.8
	c-0.6,0.5-2.7,1.7-3.5,2c-0.7,0.2-3,1.2-3.8,1.1c-1.6-0.2-6-2.7-6.9-3.9c-0.9-1.2-1.4-4.5-1.3-6.1
	C-100.5,206.4-99.7,203.3-98.5,202.3"/>
<path class="st5" d="M-56.9,181.5c0.2-2-0.4-3.9-1.6-5.4c-1.2-1.5-2.9-2.4-4.9-2.6c-2-0.2-3.9,0.5-5.3,1.6c-1.4,1.2-2.4,2.9-2.6,5
	c-0.2,2,0.4,3.9,1.6,5.4c1.2,1.5,2.9,2.4,4.9,2.6c2,0.2,3.9-0.5,5.3-1.6C-58.1,185.2-57.1,183.5-56.9,181.5"/>
<polygon class="st6" points="-52.8,282.3 -52.8,275.7 -52.8,269.1 -64,262.4 -75.3,269.1 -75.3,282.3 -69.7,285.7 -64,289 "/>
<path class="st7" d="M-43.1,257.1c0.3-0.3,9.1-5.5,9.5-5.6s9.3,5.1,9.6,5.4c0.3,0.3,0.5,5.6,0.6,6.1c0,0.4-0.1,5.9-0.4,6.2
	c-0.3,0.3-9.1,5.5-9.5,5.6c-0.2,0-4.7-2.5-4.9-2.6c-0.2-0.1-4.6-2.7-4.8-2.8c-0.3-0.3-0.5-5.6-0.6-6.1
	C-43.5,262.9-43.4,257.5-43.1,257.1"/>
<path class="st8" d="M-32.4,227.6c0.5-0.6,6.9-4.4,7.8-4.5c0.9-0.1,7.4,3.5,8,4.1c0.6,0.5,1.1,4.6,1.1,5.5c0.1,0.9-0.2,5.1-0.7,5.7
	c-0.5,0.6-6.9,4.4-7.8,4.5c-0.4,0-3.7-1.7-4.1-1.8c-0.4-0.1-3.6-2-3.9-2.3c-0.6-0.5-1.1-4.6-1.1-5.5
	C-33.2,232.4-33,228.2-32.4,227.6"/>
<path class="st9" d="M-46.6,200.1c0.8-1,4.8-3.3,6.1-3.4c1.3-0.1,5.4,2,6.3,2.8c1,0.8,1.6,3.6,1.7,5c0.1,1.3-0.3,4.3-1.1,5.2
	c-0.8,1-4.8,3.3-6.1,3.4c-0.7,0.1-2.7-0.8-3.3-1c-0.6-0.2-2.6-1.3-3-1.7c-0.9-0.8-1.6-3.6-1.7-5C-47.8,204-47.4,201.1-46.6,200.1"/>
<path class="st4" d="M15.3,356.3c0,4.7,3.5,8.4,8.3,8.4c4.7,0,8-3.7,8-8.4c0-4.7-3.3-8.5-8-8.5C18.8,347.7,15.3,351.6,15.3,356.3
	 M15.3,344.8v3.7c1.7-2.5,4.6-4.2,8.6-4.2c6.4,0,11.3,5.1,11.3,11.9c0,6.9-4.9,11.8-11.3,11.8c-4,0-6.9-1.8-8.6-4.2v13.3h-3.7v-32.3
	H15.3z M60.9,353.7v13.9h-3.7v-12.9c0-4.4-2.3-6.8-6.3-6.8c-3.8,0-6.9,2.7-6.9,6.8v12.9h-3.7v-33.5H44v14.1c1.3-2.1,3.9-3.9,7.5-3.9
	C57.3,344.3,60.9,347.9,60.9,353.7 M69.3,356.1c0,4.7,3.3,8.5,8,8.5c4.8,0,8.3-3.8,8.3-8.5c0-4.7-3.5-8.4-8.3-8.4
	C72.6,347.7,69.3,351.4,69.3,356.1 M89.2,367.6h-3.7v-3.8c-1.7,2.4-4.6,4.2-8.6,4.2c-6.4,0-11.3-5.1-11.3-12
	c0-6.8,4.9-11.8,11.3-11.8c4,0,6.9,1.8,8.6,4.2v-3.7h3.7V367.6z M99.8,348.2c1.3-2.6,3.5-3.9,6-3.9c1.6,0,2.7,0.4,3.2,0.6l-0.4,3.5
	c-0.6-0.2-1.5-0.6-2.9-0.6c-3,0-5.9,2-5.9,7.1v12.7H96v-22.8h3.7V348.2z M149.5,353.7v13.9h-3.7v-13c0-4.2-2.3-6.7-6.2-6.7
	c-3.6,0-6.6,2.6-6.6,6.6v13.1h-3.7v-13c0-4.2-2.3-6.7-6-6.7c-3.7,0-6.7,2.6-6.7,6.8v12.9h-3.7v-22.8h3.7v3.4
	c1.2-2.1,3.8-3.9,7.3-3.9c4,0,6.8,1.8,8.2,4.8c1.5-3,4.5-4.8,8.2-4.8C146,344.3,149.5,348.1,149.5,353.7 M158,356.1
	c0,4.7,3.3,8.5,8,8.5c4.8,0,8.3-3.8,8.3-8.5c0-4.7-3.5-8.4-8.3-8.4C161.3,347.7,158,351.4,158,356.1 M177.9,367.6h-3.7v-3.8
	c-1.7,2.4-4.6,4.2-8.6,4.2c-6.4,0-11.3-5.1-11.3-12c0-6.8,4.9-11.8,11.3-11.8c4,0,6.9,1.8,8.6,4.2v-3.7h3.7V367.6z M195.5,344.3
	c3,0,5.6,0.9,6.7,1.5l-0.4,3.4c-1.5-0.7-3.7-1.4-6.3-1.4c-5.2,0-8.8,3.4-8.8,8.3c0,5,3.6,8.4,8.9,8.4c2.3,0,4.8-0.6,6.4-1.4l0.6,3.4
	c-2,0.9-4.6,1.5-7.1,1.5c-7.5,0-12.6-4.8-12.6-12C183,349.1,188.1,344.3,195.5,344.3 M224,354.5c-0.3-3.9-2.9-6.7-7.1-6.7
	c-4.2,0-7.3,2.8-7.7,6.7H224z M226.3,365.9c-2.6,1.5-5.4,2.2-8.4,2.2c-7.5,0-12.7-4.8-12.7-11.9c0-6.8,4.8-11.9,11.5-11.9
	c7.6,0,11.8,6.2,10.6,13.3h-18.3c0.6,4.5,4.4,7,8.7,7c2.6,0,4.9-0.5,7.9-2.1L226.3,365.9z M248.9,344.8h3.7v13.5
	c0,5.7-4,9.7-10.1,9.7c-6.2,0-10.1-4-10.1-9.6v-13.7h3.7v13c0,4.3,2.6,6.7,6.4,6.7c3.9,0,6.5-2.5,6.5-6.7V344.8z M264,348.1v12.3
	c0,3,1.6,4.3,3.9,4.3c1.2,0,2.7-0.2,3.8-0.6l0.5,3.3c-1,0.4-2.9,0.8-4.7,0.8c-4.3,0-7.2-2.4-7.2-7.1v-13h-4.1v-3.3h4.1v-7.3h3.7v7.3
	h7.1v3.3H264z M275.8,344.8h3.7v22.8h-3.7V344.8z M275.4,337.2c0-1.4,0.9-2.3,2.3-2.3c1.3,0,2.3,0.9,2.3,2.3c0,1.4-1,2.3-2.3,2.3
	C276.3,339.5,275.4,338.5,275.4,337.2 M297.2,344.3c3,0,5.6,0.9,6.7,1.5l-0.4,3.4c-1.5-0.7-3.7-1.4-6.3-1.4c-5.2,0-8.8,3.4-8.8,8.3
	c0,5,3.6,8.4,8.9,8.4c2.3,0,4.8-0.6,6.5-1.4l0.6,3.4c-2,0.9-4.6,1.5-7.1,1.5c-7.5,0-12.6-4.8-12.6-12
	C284.6,349.1,289.7,344.3,297.2,344.3 M310.5,356.1c0,4.7,3.3,8.5,8,8.5c4.8,0,8.3-3.8,8.3-8.5c0-4.7-3.5-8.4-8.3-8.4
	C313.8,347.7,310.5,351.4,310.5,356.1 M330.4,367.6h-3.7v-3.8c-1.7,2.4-4.6,4.2-8.6,4.2c-6.4,0-11.3-5.1-11.3-12
	c0-6.8,4.9-11.8,11.3-11.8c4,0,6.9,1.8,8.6,4.2v-3.7h3.7V367.6z M337.2,334.2h3.7v33.5h-3.7V334.2z M356.7,354.8
	c4.4,0.9,6.8,2.9,6.8,6.5c0,4.4-3.5,6.8-8.9,6.8c-3.2,0-6.3-0.6-8.4-1.7l0.5-3.4c2,1.1,4.9,1.7,7.6,1.7c3.6,0,5.5-1.1,5.5-3.3
	c0-2-1.7-2.9-4.9-3.5l-2.9-0.6c-3.7-0.7-6.1-2.7-6.1-6.2c0-4.1,3.5-6.8,9.1-6.8c2.7,0,5.4,0.5,7.2,1.3l-0.5,3.3
	c-1.8-0.7-4.3-1.2-6.5-1.2c-3.6,0-5.6,1.2-5.6,3.3c0,2,1.5,2.7,4.7,3.3L356.7,354.8z"/>
<path class="st6" d="M39.3,259.5c-10.7,0-18,8.3-18,19.1c0,11,7.3,19.5,18,19.5c10.7,0,18.3-8.5,18.3-19.5
	C57.6,267.8,50,259.5,39.3,259.5 M3.5,278.7c0-20.7,13.9-35.5,32.3-35.5c10.4,0,17.4,4.1,21.8,9.7l0.4-8.3h17.5V313H58l-0.4-8.3
	c-4.4,5.7-11.4,9.7-21.8,9.7C17.4,314.4,3.5,299.4,3.5,278.7 M88.8,299.8l31.7-39.9H89.1v-15.2h51.8v13.2l-31.7,39.9H143V313H88.8
	V299.8z M200,244.7h17.9v40.2c0,17.3-12.8,29.5-31.7,29.5c-19,0-31.3-12.1-31.3-29.1v-40.6h17.9V283c0,8.7,5.5,14.6,13.4,14.6
	c8.3,0,13.8-5.9,13.8-14.6V244.7z M251.6,254c3.4-7.1,9.9-10.7,17.4-10.7c4,0,7.3,1.1,8.7,1.6l-1.4,16.3c-1.8-0.6-4.7-1.6-8.3-1.6
	c-7.9,0-16.2,4.3-16.2,18.4v35h-17.9v-68.3h17.3L251.6,254z M346.1,259.8V288c0,7.1,3.9,10.2,9.9,10.2c3.4,0,7.6-0.6,11.4-1.6
	l1.7,15.2c-4.1,1.6-10.7,2.7-16.2,2.7c-14.7,0-24.6-7.8-24.6-23.8v-30.8H317v-15.2h11.4v-21.9h17.4v21.9h19.4v15.2H346.1z
	 M426.9,244.7h19.9l-31.6,77.7c-5.4,13.1-13.6,20.6-28,20.6c-5.4,0-9.8-1.5-12.8-3l2.2-14.7c2.3,1,5.4,1.8,8.4,1.8
	c7.5,0,12.8-5.3,14.9-14l-27.7-68.4h19.8l17.5,49.8L426.9,244.7z M288.3,244.7h17.9V313h-17.9V244.7z M308.4,221.8
	c0,6.3-5,11.4-11.2,11.4c-6.2,0-11.2-5.1-11.2-11.4c0-6.3,5-11.4,11.2-11.4C303.4,210.4,308.4,215.5,308.4,221.8 M468.5,253.4
	c0,5.2-4.1,9.3-9.4,9.3c-5.3,0-9.5-4.1-9.5-9.3c0-5.1,4.2-9.2,9.5-9.2C464.4,244.2,468.5,248.3,468.5,253.4 M451.9,253.4
	c0,4.1,3,7.4,7.2,7.4c4,0,7-3.3,7-7.3c0-4.1-3-7.4-7.1-7.4C454.9,246,451.9,249.4,451.9,253.4 M457.6,258.2h-2.1V249
	c0.8-0.2,2-0.3,3.5-0.3c1.7,0,2.5,0.3,3.2,0.7c0.5,0.4,0.9,1.1,0.9,2c0,1-0.8,1.8-1.9,2.1v0.1c0.9,0.3,1.4,1,1.7,2.2
	c0.3,1.4,0.5,2,0.7,2.3h-2.3c-0.3-0.3-0.4-1.2-0.7-2.2c-0.2-1-0.7-1.5-1.9-1.5h-1V258.2z M457.6,253h1c1.2,0,2.1-0.4,2.1-1.3
	c0-0.9-0.6-1.4-2-1.4c-0.6,0-1,0.1-1.2,0.1V253z"/>
</svg>
