<?xml version="1.0" standalone="no"?>
<!DOCTYPE svg PUBLIC "-//W3C//DTD SVG 20010904//EN"
 "http://www.w3.org/TR/2001/REC-SVG-20010904/DTD/svg10.dtd">
<svg version="1.0" xmlns="http://www.w3.org/2000/svg"
 width="340.000000pt" height="339.000000pt" viewBox="0 0 340.000000 339.000000"
 preserveAspectRatio="xMidYMid meet">

<g transform="translate(0.000000,339.000000) scale(0.100000,-0.100000)"
fill="#000000" stroke="none">
<path d="M0 2275 l0 -1115 53 1 c86 1 128 12 148 39 20 26 269 1092 269 1147
0 48 -13 57 -89 61 -73 4 -76 7 -65 50 l6 22 274 0 c290 0 281 2 268 -46 -5
-18 -16 -22 -70 -27 -77 -7 -98 -17 -113 -54 -14 -34 -261 -1115 -261 -1142 0
-31 29 -46 99 -51 59 -4 66 -7 63 -25 -7 -47 3 -45 -297 -45 l-285 0 2 -542 3
-543 1693 -3 1692 -2 0 545 0 545 -445 0 c-269 0 -445 4 -445 9 0 5 4 21 9 34
8 21 18 25 72 30 97 9 96 4 70 224 -12 103 -24 198 -27 211 l-4 22 -223 -2
-222 -3 -102 -195 c-57 -107 -103 -205 -103 -218 0 -27 33 -42 96 -42 46 0 49
-4 38 -47 -6 -23 -6 -23 -230 -23 l-224 0 0 23 c0 35 11 43 63 50 69 10 98 28
144 94 22 32 190 320 372 641 l332 582 70 0 c47 0 71 -4 74 -12 2 -7 38 -291
80 -632 42 -340 80 -627 86 -637 19 -35 44 -39 283 -39 l236 0 0 1115 0 1115
-1695 0 -1695 0 0 -1115z m1650 187 c142 -32 248 -106 290 -204 53 -121 32
-286 -49 -399 -45 -63 -82 -94 -159 -133 -96 -49 -191 -67 -379 -73 -147 -5
-173 -8 -177 -22 -3 -9 -26 -107 -51 -219 -33 -147 -43 -207 -36 -221 10 -19
66 -31 142 -31 40 0 44 -5 33 -47 l-6 -23 -284 0 -284 0 0 23 c0 36 12 44 80
51 35 4 72 12 82 17 24 13 30 36 169 643 93 408 118 535 111 551 -11 23 -52
35 -124 35 -41 0 -43 4 -28 45 l10 27 308 -5 c169 -3 327 -10 352 -15z"/>
<path d="M1374 2390 c-12 -5 -27 -24 -33 -42 -18 -56 -131 -559 -131 -584 0
-32 27 -38 158 -32 200 9 312 86 363 247 27 86 29 218 4 279 -23 57 -83 106
-154 126 -61 17 -172 20 -207 6z"/>
<path d="M2508 2222 c-79 -141 -278 -505 -278 -508 0 -2 86 -4 191 -4 l192 0
-6 38 c-3 20 -18 146 -34 280 -15 133 -30 242 -33 242 -3 0 -17 -21 -32 -48z"/>
</g>
</svg>
