<svg version="1.1" id="Layer_1" xmlns="http://www.w3.org/2000/svg" xmlns:xlink="http://www.w3.org/1999/xlink" x="0px" y="0px"
	 width="100%" viewBox="0 0 400 400" enable-background="new 0 0 400 400" xml:space="preserve">
<path fill="#000000" opacity="1.000000" stroke="none" 
	d="
M282.486816,167.619263 
	C275.528442,152.329330 264.117432,144.332214 247.506683,144.315598 
	C217.679123,144.285751 187.850555,144.174835 158.024612,144.396210 
	C150.358780,144.453110 145.325516,141.377274 142.250793,134.583618 
	C141.015167,131.853455 139.621887,129.189133 138.501495,126.413666 
	C136.987183,122.662376 138.463974,120.224281 142.271942,119.316452 
	C144.027252,118.897972 145.899124,118.838974 147.718338,118.837265 
	C180.878601,118.806267 214.039185,118.717056 247.199051,118.830971 
	C278.107269,118.937141 302.396667,137.933578 308.620941,167.951279 
	C317.180359,209.230225 282.769073,240.506439 251.172318,240.412689 
	C233.357498,240.359848 218.300690,234.609726 205.857681,221.912979 
	C205.410385,221.456543 204.837311,221.123352 203.567657,220.159241 
	C193.144150,241.369308 182.861557,262.292633 172.705399,282.958649 
	C169.919724,282.765411 169.718689,281.020020 169.111893,279.774811 
	C150.799652,242.197144 132.507797,204.609528 114.242729,167.008896 
	C111.303017,160.957169 113.251801,157.893982 120.067894,157.710220 
	C122.732094,157.638382 125.402328,157.773544 128.065552,157.685532 
	C135.728485,157.432297 140.946411,160.713730 144.280838,167.744919 
	C152.273773,184.599350 160.553131,201.318039 168.733047,218.083633 
	C169.510452,219.677017 170.058380,221.447952 171.763428,222.788986 
	C174.838531,218.943481 176.407059,214.517242 178.463303,210.398895 
	C185.605576,196.094009 192.674637,181.750458 199.568771,167.324707 
	C202.738297,160.692551 207.724854,157.510529 215.004837,157.683762 
	C218.169189,157.759064 221.342438,157.585876 224.501266,157.739456 
	C230.210663,158.017044 232.264145,161.299942 229.828461,166.488449 
	C226.220001,174.175232 222.497681,181.813080 218.616669,189.365295 
	C217.000687,192.509903 216.955231,195.162918 218.899399,198.213974 
	C227.519897,211.742325 244.130432,218.391861 258.805664,214.004837 
	C274.417999,209.337677 285.185394,194.448349 284.634003,178.237823 
	C284.514374,174.721481 283.632446,171.336166 282.486816,167.619263 
z"/>
<path fill="#000000" opacity="1.000000" stroke="none" 
	d="
M99.037567,137.817017 
	C97.295998,134.008621 95.549423,130.591919 94.260918,127.010429 
	C92.597984,122.388191 94.425644,119.391716 99.300751,118.996338 
	C103.587486,118.648682 107.957664,118.602104 112.233513,119.016136 
	C118.882095,119.659904 122.639786,123.940872 125.240051,129.880905 
	C130.710083,142.376602 129.580185,144.233170 116.084969,144.350845 
	C109.606560,144.407318 103.345093,144.306152 99.037567,137.817017 
z"/>
</svg>