<?xml version="1.0" encoding="utf-8"?>
<!-- Generator: Adobe Illustrator 26.0.3, SVG Export Plug-In . SVG Version: 6.00 Build 0)  -->
<svg version="1.0" id="Layer_1" xmlns="http://www.w3.org/2000/svg" xmlns:xlink="http://www.w3.org/1999/xlink" x="0px" y="0px"
	 viewBox="0 0 899.7 580" style="enable-background:new 0 0 899.7 580;" xml:space="preserve">
<style type="text/css">
	.st0{fill:#223F7F;}
	.st1{fill:#2DAF83;}
	.st2{fill:#FFFFFF;}
	.st3{fill:#32B085;}
	.st4{fill:#2F2A2A;}
</style>
<path class="st0" d="M175.7,296.4H148v27.8h27.8V296.4z"/>
<path class="st1" d="M175.7,262.6H148v27.8h27.8V262.6z"/>
<path class="st1" d="M175.7,229.6H148v27.8h27.8V229.6z"/>
<path class="st2" d="M143.2,262.8h-27.8v27.8h27.8V262.8z"/>
<path class="st3" d="M143.2,229.3h-27.8V257h27.8V229.3z"/>
<path class="st0" d="M143.2,296.4h-27.8v27.8h27.8V296.4z"/>
<path class="st0" d="M110.8,262.8H83v27.8h27.8V262.8z"/>
<path class="st0" d="M110.8,229.3H83V257h27.8V229.3z"/>
<path class="st0" d="M110.8,296.4H83v27.8h27.8V296.4z"/>
<path class="st4" d="M259.5,345.8v-29.6c-2.3,3.9-5.6,7.1-9.6,9.2c-4.1,1.8-8.6,2.7-13.1,2.7c-9.1,0.2-17.7-4-23-11.3
	c-5.8-7.4-8.6-17.5-8.6-30.5c0-12.3,2.9-22.3,8.6-29.9c3.2-3.7,7.3-6.6,11.9-8.2c4.9-1.9,10-2.8,15.2-2.8c9.4,0,18.6,2.6,26.6,7.6
	c8.1,5.1,12.2,14.6,12.2,28.5V356h-10.2C264.1,356,259.5,351.5,259.5,345.8L259.5,345.8z M225.5,287.3c0,7.2,1.5,12.8,4.5,17
	c2.7,4.1,7.3,6.4,12.2,6.3c5.6,0,9.9-2.1,12.8-6.3c3-3.8,4.5-9.5,4.5-17c0-7.8-1.4-13.8-4.2-17.9c-2.8-4.1-7.6-6.5-12.6-6.3
	c-5.6,0-9.9,2.1-12.8,6.3S225.5,279.5,225.5,287.3L225.5,287.3z"/>
<path class="st4" d="M359.8,247.3v46.6c0,14.1-3.7,23.4-11.1,27.8c-7.3,4.4-15.7,6.7-24.2,6.6c-8.3-0.3-16.4-2.8-23.4-7.2
	c-7.1-4.4-10.6-13.4-10.6-27.2v-46.5h20.9V298c0,4.8,1.4,8.2,4.2,10.5c2.7,2.2,6.1,3.3,9.5,3.3c3.5,0,6.9-1.1,9.7-3.3
	c2.9-2.2,4.3-5.7,4.3-10.5v-40.6c0-2.7,1-5.2,2.8-7.2c1.9-2,4.6-3.1,7.3-3L359.8,247.3z"/>
<path class="st4" d="M420.9,323.4c-4.1,2.2-8.7,3.5-13.3,4c-4.1,0.5-8.2,0.7-12.4,0.8c-6.7,0.1-13.3-1.9-18.8-5.8
	c-5.4-3.9-8.1-10.3-8.1-19.3c0-8.3,2.4-14.4,7.3-17.9s11.1-6,18.7-7.2c1.2,0,2.4-0.2,3.6-0.5c1.6-0.3,3.2-0.6,4.8-0.8
	c8.7-1.2,13.1-3.8,13.1-7.8c0-3-1.6-4.9-4.6-5.8c-2.8-0.9-5.6-1.3-8.5-1.4c-2.5,0-5.1,0.4-7.5,1.2c-2.2,0.8-3.9,2.4-4.8,4.5h-20
	c0.7-6,3.7-11.4,8.4-15.2c5.4-4.5,13-6.9,23-6.9c11.2,0,19.5,1.9,25.1,5.7c5.6,3.7,8.9,10,8.6,16.7v27.2c0,8-1.5,14.2-4.4,18.7
	C428.7,317.9,425.1,321.2,420.9,323.4z M416.1,286.7c-3.7,1.7-7.6,3-11.6,3.9l-6.9,1.5c-3.6,1-6.2,2.3-7.8,3.9
	c-1.3,1.9-2,4.2-2.1,6.6c-0.1,2.7,0.9,5.2,2.7,7.2c1.8,1.6,4.4,2.4,7.8,2.4c5.6,0,10-1.6,13.1-4.8s4.8-7.6,4.8-13.1L416.1,286.7
	L416.1,286.7z"/>
<path class="st4" d="M517.2,326.7h-10.5c-5.4,0.3-9.9-3.9-10.2-9.2c0-0.3,0-0.6,0-0.9v-40.6c0-4.8-1.5-8.2-4.4-10.5
	c-2.8-2.2-6.2-3.3-9.7-3.3c-3.5,0-6.8,1.1-9.5,3.3c-2.8,2.2-4.2,5.7-4.2,10.5v50.8h-20.9v-46.6c0-13.6,3.5-22.6,10.6-27.2
	c7-4.6,15.1-7.2,23.5-7.5c8.6-0.1,17,2.3,24.2,6.9c7.4,4.6,11.1,13.9,11.1,27.8V326.7z"/>
<path class="st4" d="M565.2,326.7c-7.1,0.4-14.2,0.3-21.3-0.3c-7.7-0.6-11.5-5.5-11.5-14.7V224h10.8c2.6,0,5.1,1.1,6.9,3
	c1.9,1.9,3,4.5,3,7.2v13.5h12.2v4.2c0.1,2.8-1,5.4-3,7.3c-1.9,1.9-4.5,2.9-7.2,2.8H553v44.2c0,3.4,2,5.1,6,5.1h6.3L565.2,326.7
	L565.2,326.7z"/>
<path class="st4" d="M581.5,247.3h9.3c2.4,0,4.7,1.1,6.2,3c1.7,2,2.6,4.6,2.6,7.2v69.3h-18.1V247.3z"/>
<path class="st4" d="M639.1,345.8c0,5.6-4.6,10.2-10.2,10.2h-10.2v-74.4c0-13.9,4.1-23.4,12.2-28.5c8-5,17.2-7.7,26.6-7.6
	c5.1,0,10.2,1,15.1,2.8c4.7,1.6,8.9,4.5,12.1,8.2c6,7.8,8.9,17.7,8.9,29.9c0,12.5-3,22.7-8.9,30.5c-6,7.6-13.7,11.3-23,11.3
	c-4.5,0.1-9-0.8-13.1-2.7c-4.1-2-7.4-5.3-9.5-9.2L639.1,345.8L639.1,345.8z M673.2,287.3c0-7.8-1.5-13.8-4.5-17.9s-7.3-6.3-12.8-6.3
	c-5-0.2-9.7,2.2-12.5,6.3c-2.8,3.8-4.2,9.8-4.2,17.9c0,7.6,1.5,13.2,4.5,17c3,4.2,7.3,6.3,12.8,6.3c4.9,0.2,9.5-2.2,12.2-6.3
	C671.6,300.1,673.2,294.5,673.2,287.3z"/>
<path class="st4" d="M756.6,269.7c-2.7-4.1-7.4-6.4-12.2-6.3c-5.6,0-9.9,2-12.8,6s-4.5,9.5-4.5,16.4v40.9h-20.3V224h10.2
	c5.6,0,10.2,4.6,10.2,10.2v23.6c3.3-5.7,8.8-9.9,15.2-11.4c6.2-1.6,12.8-1.2,18.8,1.2c5.6,2.4,10.5,6.3,14.1,11.3
	c3.8,5.2,5.7,12.3,5.7,21.5v46.3h-20v-41.2c0-2.8-0.2-5.5-0.8-8.2C759.4,274.5,758.3,272,756.6,269.7z"/>
<path class="st4" d="M581.5,233.1c0,5,4.1,9.1,9.1,9.1s9.1-4.1,9.1-9.1s-4.1-9.1-9.1-9.1l0,0C585.6,224,581.5,228.1,581.5,233.1z"/>
<path class="st4" d="M798.5,247.4h9.4c2.4,0,4.7,1.1,6.2,3c1.7,2,2.6,4.6,2.6,7.2v69.3h-18.2V247.4z"/>
<path class="st4" d="M798.5,233.2c0,5,4.1,9.1,9.1,9.1c5,0,9.1-4.1,9.1-9.1c0-5-4.1-9.1-9.1-9.1S798.5,228.2,798.5,233.2
	L798.5,233.2z"/>
</svg>
