<?xml version="1.0" standalone="no"?>
<!DOCTYPE svg PUBLIC "-//W3C//DTD SVG 20010904//EN"
 "http://www.w3.org/TR/2001/REC-SVG-20010904/DTD/svg10.dtd">
<svg version="1.0" xmlns="http://www.w3.org/2000/svg"
 width="497.000000pt" height="166.000000pt" viewBox="0 0 497.000000 166.000000"
 preserveAspectRatio="xMidYMid meet">

<g transform="translate(0.000000,166.000000) scale(0.100000,-0.100000)"
fill="#000000" stroke="none">
<path d="M2254 1619 c37 -175 34 -1075 -3 -1206 -9 -30 -8 -31 28 -37 20 -3
58 -6 84 -6 39 0 52 5 72 26 l25 27 0 266 c0 157 4 282 11 304 13 46 67 109
113 131 66 31 163 13 196 -36 12 -19 16 -81 20 -328 4 -226 8 -311 18 -328 48
-83 214 -82 291 2 30 32 25 39 -18 23 -26 -10 -36 -9 -59 4 -47 26 -52 59 -49
364 2 309 1 314 -63 369 -43 36 -101 49 -200 44 -99 -5 -183 -38 -234 -92
l-32 -33 4 211 c3 189 1 215 -15 245 -28 53 -64 74 -134 79 l-62 5 7 -34z"/>
<path d="M3261 1618 c22 -75 31 -361 25 -746 -7 -436 -6 -444 56 -482 66 -40
190 -18 247 44 29 31 24 41 -12 25 -40 -18 -76 -4 -95 39 -14 33 -16 98 -15
555 l1 518 -24 28 c-26 32 -82 51 -147 51 l-46 0 10 -32z"/>
<path d="M3798 1580 c-85 -66 -43 -200 62 -200 30 0 48 8 75 31 30 27 35 37
35 76 0 38 -5 50 -34 79 -27 27 -42 34 -74 34 -24 0 -49 -8 -64 -20z"/>
<path d="M4845 1376 c-2 -6 -6 -29 -10 -51 -16 -94 -58 -123 -153 -105 -99 20
-235 9 -308 -24 -74 -33 -135 -93 -165 -161 -30 -67 -30 -171 -2 -235 23 -53
86 -112 137 -131 40 -14 43 -21 20 -40 -33 -28 -56 -90 -52 -141 9 -93 74
-135 278 -178 103 -22 158 -42 172 -64 31 -46 -20 -134 -90 -157 -66 -22 -160
-17 -217 11 -59 29 -109 97 -120 161 l-7 41 -49 -4 c-28 -3 -58 -13 -69 -23
-27 -25 -26 -79 4 -129 116 -198 549 -190 677 11 76 121 30 251 -106 302 -29
11 -104 30 -167 42 -179 34 -213 54 -187 112 10 23 16 25 110 29 89 4 107 9
174 42 122 60 178 146 178 271 0 77 -23 145 -62 179 -11 11 -21 23 -21 27 0 5
22 18 49 29 27 12 61 34 75 49 32 34 43 88 23 115 -16 22 -107 40 -112 22z
m-217 -244 c51 -37 77 -103 77 -202 0 -72 -4 -91 -25 -128 -33 -58 -80 -86
-142 -85 -77 1 -127 43 -153 127 -37 122 -5 245 79 298 41 25 120 21 164 -10z"/>
<path d="M1601 1274 c-261 -70 -423 -342 -356 -598 60 -229 247 -376 479 -376
44 0 104 6 132 14 138 36 258 138 321 272 33 69 37 87 41 179 5 124 -16 207
-76 300 -114 177 -339 264 -541 209z m389 -574 c17 -32 -67 -128 -149 -170
-113 -57 -260 -17 -340 95 -39 54 -39 89 1 93 22 3 31 -4 51 -35 35 -55 97
-95 157 -101 65 -6 122 22 188 93 52 56 72 62 92 25z"/>
<path d="M28 1223 c-23 -6 -23 -12 3 -39 33 -35 95 -190 186 -464 90 -272 101
-293 176 -331 21 -11 54 -21 74 -22 l36 -2 68 145 c37 80 75 168 85 195 9 28
20 54 24 59 5 5 25 -45 45 -110 56 -183 64 -201 103 -234 34 -28 114 -60 152
-60 12 0 44 79 130 318 145 406 166 460 196 500 14 17 22 37 19 42 -3 6 -31
10 -61 10 -83 0 -92 -13 -143 -215 -51 -201 -141 -495 -152 -495 -14 0 -135
370 -205 629 -14 52 -53 75 -132 79 -95 4 -98 0 -64 -84 65 -158 67 -257 8
-415 -54 -144 -86 -213 -95 -203 -13 13 -144 381 -185 517 -44 146 -49 155
-91 173 -32 13 -138 17 -177 7z"/>
<path d="M3746 1221 c-3 -4 -1 -23 4 -42 19 -64 31 -323 24 -514 -7 -214 -2
-238 59 -275 65 -40 189 -18 246 44 29 31 24 41 -12 25 -35 -16 -73 -4 -94 28
-16 25 -18 56 -15 345 2 217 -1 324 -8 339 -21 37 -70 59 -137 59 -34 0 -64
-4 -67 -9z"/>
</g>
</svg>
