<svg xmlns="http://www.w3.org/2000/svg" width="1333.938" height="111.235" viewBox="0 0 1333.938 111.235">
  <g id="commonwealth" transform="translate(-4059.122 -5199.76)">
    <path id="Path_22411" data-name="Path 22411" d="M808.845,448.005H792.081V367.388H812.33v9.56l.853.9c6.282-8.731,14.708-12.929,25.082-12.618,10.578.317,18.995,4.521,24.13,14.654.746-.894,1.352-1.556,1.886-2.271,7.888-10.571,21.645-15,34.852-11.213,11.856,3.4,20.18,13.156,20.652,26.528.64,18.12.159,36.279.159,54.749H898.9c0-12.63.054-25.233-.031-37.836a86.745,86.745,0,0,0-.722-11.936c-1-6.785-4.412-10.626-9.827-11.763-7.421-1.558-15.206.759-17.8,6.806a50.835,50.835,0,0,0-3.769,17.255c-.564,11.637-.165,23.32-.183,34.983a26.012,26.012,0,0,1-.273,2.6H845.33c-.084-1.4-.243-2.825-.245-4.255-.02-12.664.019-25.327-.037-37.99a43.79,43.79,0,0,0-.577-7.945c-1.3-6.879-4.977-10.7-10.7-11.553-7.9-1.176-14.689,1.345-17.395,7.653a41.131,41.131,0,0,0-3.233,14.393c-.449,12.147-.254,24.323-.088,36.484C813.1,447.575,811.991,448.4,808.845,448.005Z" transform="translate(3792 4860.963)"/>
    <path id="Path_22412" data-name="Path 22412" d="M660.8,367.155h5.527l.508,11.512c6.569-9.515,15.013-13.7,25.466-13.436,10.588.267,18.995,4.518,24.447,15.079.672-1.091,1.044-1.828,1.535-2.475a31.692,31.692,0,0,1,35.184-11.277c12.2,3.709,20.066,13.734,20.428,27.756.459,17.789.111,35.6.111,53.544H752.886c0-6.563.082-12.992-.018-19.418-.158-10.148-.067-20.321-.795-30.432-.489-6.79-4.278-10.658-9.676-11.845-7.352-1.617-15.261.671-17.829,6.707a52.262,52.262,0,0,0-3.845,17.735c-.568,12.273-.171,24.59-.171,37.143h-21.4c0-1.576,0-3.17,0-4.764-.015-13.5.1-26.993-.086-40.486-.143-10.412-4.342-15.839-12.232-16.526-10.288-.9-17.19,4-18.741,14.262-.988,6.537-.9,13.259-1.015,19.9-.153,9.124-.038,18.252-.038,27.622H646.158v-80.6Z" transform="translate(3792 4860.963)"/>
    <path id="Path_22413" data-name="Path 22413" d="M1210.25,413.817c2.35-4.723,4.58-9.691,6.51-14.768,3.55-9.316,7.03-18.657,10.31-28.071,1.05-3.013,2.58-4.047,5.77-3.9,6.1.276,12.22.08,19.02.08-3.67,9.05-7.11,17.482-10.52,25.923-6.84,16.944-13.75,33.865-20.45,50.867-1.21,3.08-2.68,4.227-6.13,4.165-11.8-.214-11.82-.043-16.47-11.122-5.02-11.918-10.01-23.844-15.44-36.8-2.45,5.64-4.53,10.336-6.54,15.058-4.17,9.781-8.38,19.547-12.41,29.386-1.01,2.483-2.24,3.65-5.1,3.45-4.14-.29-8.31-.074-12.64-.074q-15.75-39-31.41-77.742c-.3-.745-.54-1.513-1.1-3.084,7.53,0,14.57-.138,21.6.159.98.041,2.24,2.075,2.76,3.423,5.52,14.427,10.91,28.9,16.69,44.322.98-2.162,1.68-3.574,2.26-5.032,5.26-13.1,10.6-26.175,15.66-39.354,1.1-2.849,2.55-3.617,5.45-3.612,13.12.022,13.1-.058,18.06,12.262C1200.72,390.752,1205.36,402.132,1210.25,413.817Z" transform="translate(3792 4860.963)"/>
    <path id="Path_22414" data-name="Path 22414" d="M456.463,411.473c-5.5-20.8-2.247-39.334,12.259-55.218,21.039-23.039,63.312-23.284,84.551-.495l-16.34,15.116a38.947,38.947,0,0,0-28.708-9.466c-8.74.571-16.561,3.507-22.885,9.809-10.469,10.432-11.928,28.287-3.411,41.474,7.093,10.982,24.263,20.2,49.42,9.549Q535.677,432.4,540,442.529C510.99,459.042,467.892,447.841,456.463,411.473Z" transform="translate(3792 4860.963)"/>
    <path id="Path_22415" data-name="Path 22415" d="M1526.14,413c.01-23.49.02-46.48.03-69.47a11.238,11.238,0,0,1,.24-1.346h20.98v36.192a35.56,35.56,0,0,0,2.66-2.39c9.29-10.622,25.34-13.758,37.71-7.117a23.748,23.748,0,0,1,12.94,20.706c.66,19.257.21,38.552.21,58.132h-20.76c-.09-1.325-.26-2.749-.26-4.174-.02-12.327.01-24.656-.04-36.983a51.632,51.632,0,0,0-.47-7.463c-1.23-7.979-5.16-12.375-11.5-13.094-8.76-1-15.45,2.3-18,9.952a51.671,51.671,0,0,0-2.26,14.665c-.32,10.653-.1,21.321-.1,31.983v5h-21.38Z" transform="translate(3792 4860.963)"/>
    <path id="Path_22416" data-name="Path 22416" d="M966.235,366.137c16.054-2.4,30.541.068,41.8,11.931,11.98,12.621,14.23,27.926,8.98,44.091-5.12,15.764-16.95,24.162-32.939,26.87-13.8,2.338-26.606-.321-37.385-9.545-13.1-11.214-16.165-25.99-12.879-42.153,3.3-16.223,13.873-25.986,29.6-30.435.8-.227,1.6-.458,2.819-.759m-10.354,49.078c4.09,9.885,12.281,14.822,22.815,13.753a20.777,20.777,0,0,0,18.416-16.941c1.87-10.332-2.355-19.628-11.219-23.773-8.19-3.829-16.355-3.125-23.488,2.356C954.483,396.7,953.323,405.19,955.881,415.215Z" transform="translate(3792 4860.963)"/>
    <path id="Path_22417" data-name="Path 22417" d="M549.1,421.837c-7.454-26.573,5.045-49.393,30-55.337,24.988-5.952,48.339,7.689,53.538,31.277,6.656,30.2-17.205,55.8-47.9,51.635-17.145-2.327-29.357-10.716-35.635-27.575m37.158-35.367c-9.726,2.338-15.766,8.408-17.113,17.2-1.4,9.162,2.407,17.725,9.948,22.353a22.335,22.335,0,0,0,24.447-1.157c7.663-5.686,10.346-15.865,6.752-25.612C606.8,389.76,599.008,385.388,586.263,386.47Z" transform="translate(3792 4860.963)"/>
    <path id="Path_22418" data-name="Path 22418" d="M1255.56,419.342c-2.21-9.7-2.04-18.877,1.27-27.914,6.92-18.833,24.62-28.456,46.69-25.347,17.2,2.423,29.9,16.733,31.48,35.556.34,3.943.51,7.9.79,12.35h-58.74c.89,15.618,20.11,20.135,41.47,10.046,3.57,4.9,7.17,9.84,11,15.1-9.12,7.8-19.66,10.654-31,10.8-21.88.281-37.51-10.876-42.96-30.592m22.66-20.835h33.79c-2.39-10.071-7.13-14.328-15.82-14.868-9.34-.58-16.63,3.792-19.31,11.75C1276.58,396.263,1277.19,397.442,1278.22,398.507Z" transform="translate(3792 4860.963)"/>
    <path id="Path_22419" data-name="Path 22419" d="M1415.12,388.046c.39,4.394.99,8.364,1.02,12.338.11,15.661.05,31.324.05,47.387h-21.18V437.552c-7.21,8.668-15.56,12.582-25.82,12.478-14.11-.142-25.19-9.513-26.21-22.373-1.15-14.506,7.48-25.427,22.2-27.559,7.57-1.1,15.27-1.316,22.84-2.429,2.41-.354,6.01-1.866,6.56-3.629,1.16-3.735-1.43-6.767-5.17-7.868-10.62-3.125-20.4-1.549-28.86,5.969-.99.878-1.81,1.94-3.1,3.345-3.36-4.464-6.68-8.557-9.54-12.951-.66-1.014-.29-3.487.55-4.56,4.58-5.883,10.99-9.051,18.04-10.886a57.23,57.23,0,0,1,28.67-.144c10.92,2.731,17.48,9.724,19.95,21.1m-31.03,42.959c8.92-4.92,12.07-10.639,10.19-18.657-3.78.5-7.57.962-11.36,1.5-3.77.539-7.59.939-11.3,1.789-4.18.956-6.67,3.674-6.57,8.17a7.66,7.66,0,0,0,6.96,7.885C1375.68,432.224,1379.53,431.447,1384.09,431.005Z" transform="translate(3792 4860.963)"/>
    <path id="Path_22420" data-name="Path 22420" d="M1042.99,448.005h-11.08V367.46h20.47v9.678c6.53-6.389,13.66-10.447,22.36-11.691,16.03-2.292,29.12,6.921,31.18,22.957,1.15,8.871.92,17.934,1.05,26.915.15,10.655.04,21.314.04,32.329h-21.88c0-4.429.02-8.874,0-13.318-.03-11.165.12-22.335-.19-33.492-.22-8.355-4.8-13.882-11.47-14.808-9.05-1.255-15.86,2.389-18.49,10.644a45.067,45.067,0,0,0-1.92,12.716c-.25,12.643-.09,25.294-.09,38.615Z" transform="translate(3792 4860.963)"/>
    <path id="Path_22421" data-name="Path 22421" d="M1493.88,385.339c-.64,12.4-.98,24.681-.78,36.958.07,4.153,3.8,5.14,7.34,5.1,3.94-.045,7.88-.452,12.29-.731,0,5.995.12,11.788-.12,17.566a3.839,3.839,0,0,1-2.54,2.728c-6.9.653-13.93,1.9-20.74,1.2-10.47-1.074-16.14-7.664-17.35-18.126a89.555,89.555,0,0,1-.55-9.963q-.075-36.46-.03-72.922v-5.1h21.32v25.064h20.09v18.114C1506.64,385.227,1500.51,385.227,1493.88,385.339Z" transform="translate(3792 4860.963)"/>
    <path id="Path_22422" data-name="Path 22422" d="M331.749,351.756c-21.286,22.465-42.335,44.668-63.98,67.5V339.2h76.1C339.478,343.741,335.733,347.617,331.749,351.756Z" transform="translate(3792 4860.963)" fill="#ffee16"/>
    <path id="Path_22423" data-name="Path 22423" d="M1454.16,377v70.677h-21.1V342.18h21.1Z" transform="translate(3792 4860.963)"/>
    <path id="Path_22424" data-name="Path 22424" d="M331.26,437.407c15.776-2.055,31.11-4.033,46.857-6.064v18.144H268.084c-1.76-4.158,1.6-4,4.323-4.355C291.877,442.578,311.348,440.032,331.26,437.407Z" transform="translate(3792 4860.963)" fill="#ffee16"/>
    <path id="Path_22425" data-name="Path 22425" d="M302.505,407.54c25.28-16.623,50.271-33.029,75.979-49.9,0,6.025.116,11.307-.1,16.575a4.342,4.342,0,0,1-2.163,2.906q-53.793,28.512-107.665,56.873l-1.218-.748c.9-1.479,1.445-3.477,2.747-4.354C280.715,421.725,291.487,414.773,302.505,407.54Z" transform="translate(3792 4860.963)" fill="#ffee16"/>
    <path id="Path_22426" data-name="Path 22426" d="M295.158,427.253,378.465,394.4c0,6.12.176,11.539-.168,16.925-.059.935-2.2,2.16-3.577,2.525q-40.29,10.691-80.629,21.189-12.982,3.4-25.956,6.837l-1.013-1.1c1.176-1.279,2.112-3.126,3.569-3.744C278.656,433.65,286.749,430.574,295.158,427.253Z" transform="translate(3792 4860.963)" fill="#ffee16"/>
    <path id="Path_22427" data-name="Path 22427" d="M269.809,420.821c28.81-26.448,57.287-52.743,85.916-78.873a13.27,13.27,0,0,1,7.29-2.907c4.748-.456,9.571-.132,15.9-.132l-110.278,87.12-1.208-.558A51.132,51.132,0,0,1,269.809,420.821Z" transform="translate(3792 4860.963)" fill="#ffee16"/>
  </g>
</svg>
