<?xml version="1.0" encoding="utf-8"?>
<!-- Generator: Adobe Illustrator 19.2.1, SVG Export Plug-In . SVG Version: 6.00 Build 0)  -->
<svg version="1.1" id="layer" xmlns="http://www.w3.org/2000/svg" xmlns:xlink="http://www.w3.org/1999/xlink" x="0px" y="0px"
	 viewBox="0 0 652 652" style="enable-background:new 0 0 652 652;" xml:space="preserve">
<style type="text/css">
	.st0{fill:#24336A;}
</style>
<path class="st0" d="M611,335.6v-5.3h-13.9v-7.2h9.8v-5h-9.8v-5.8h13.4V307h-19.2v28.6H611L611,335.6z M563.2,334.4
	c1.9,1.1,4.1,1.7,6.5,1.7c2.9,0,5.3-0.8,7.2-2.4c1.9-1.6,2.8-3.6,2.8-6.2c0-1.9-0.6-3.5-1.7-4.8c-1.1-1.3-2.9-2.5-5.4-3.6l-3.3-1.4
	c-1.3-0.6-2.1-1.1-2.6-1.5c-0.5-0.5-0.7-1-0.7-1.8c0-0.9,0.3-1.5,1-2c0.7-0.5,1.5-0.7,2.5-0.7c2.2,0,4,1.1,5.5,3.3l4-3.1
	c-0.9-1.7-2.2-3-3.8-4c-1.6-1-3.5-1.5-5.6-1.5c-2.7,0-5,0.8-6.8,2.2c-1.8,1.5-2.7,3.4-2.7,5.9c0,3.4,2.3,6.2,6.9,8.2l3.1,1.4
	c1.4,0.7,2.4,1.2,2.9,1.7c0.5,0.5,0.7,1.1,0.7,1.9c0,1-0.4,1.8-1.1,2.3c-0.7,0.6-1.7,0.8-3,0.8c-2.7,0-5-1.4-7-4.2l-4,3
	C559.8,331.8,561.3,333.3,563.2,334.4L563.2,334.4z M547.6,335.6V307h-5.8v28.6H547.6L547.6,335.6z M518,323.8l-7.5-17.3h-2
	l-7.5,17.4l-6.4-16.9h-6.5l11.4,29.1h1.9l8-17.9l8,17.9h1.9l11.4-29.1h-6.5L518,323.8L518,323.8z M471,335.6v-23.3h9.2V307H456v5.3
	h9.1v23.3L471,335.6L471,335.6z M423.8,331.8c3,2.9,6.6,4.3,10.8,4.3c2.7,0,5.2-0.6,7.4-1.9c2.2-1.3,4-3,5.2-5.2l-4.4-3.1
	c-2,3.2-4.8,4.8-8.2,4.8c-2.7,0-4.9-0.9-6.6-2.6c-1.8-1.8-2.6-4-2.6-6.7c0-2.7,0.9-5,2.6-6.8c1.8-1.8,3.9-2.7,6.6-2.7
	c3.4,0,6.1,1.6,8.2,4.8l4.4-3.1c-1.3-2.2-3-4-5.2-5.2c-2.2-1.3-4.7-1.9-7.4-1.9c-4.2-0.1-7.8,1.3-10.8,4.3c-3,2.9-4.5,6.4-4.5,10.5
	C419.3,325.4,420.8,328.9,423.8,331.8L423.8,331.8z M410.1,335.6v-5.3h-13.9v-7.2h9.8v-5h-9.8v-5.8h13.4V307h-19.2v28.6H410.1
	L410.1,335.6z M371.5,324.1l-16.6-17.6H353v29.1h5.8v-17.1l16.5,17.7h2V307h-5.8L371.5,324.1L371.5,324.1z M334.2,324.1l-16.6-17.6
	h-1.9v29.1h5.8v-17.1l16.5,17.7h2V307h-5.8L334.2,324.1L334.2,324.1z M295.6,328.1c-1.8,1.8-3.9,2.6-6.5,2.6c-2.7,0-4.8-0.9-6.6-2.6
	c-1.7-1.8-2.6-4-2.6-6.8c0-2.7,0.9-5,2.6-6.8c1.7-1.8,3.9-2.6,6.6-2.6c2.6,0,4.8,0.9,6.5,2.7c1.8,1.8,2.6,4,2.6,6.7
	C298.2,324,297.4,326.3,295.6,328.1L295.6,328.1z M278.3,331.8c3,2.9,6.6,4.4,10.7,4.3c4.1,0.1,7.7-1.3,10.8-4.3
	c3-2.9,4.5-6.4,4.5-10.5c0.1-4.1-1.4-7.6-4.5-10.5c-3-2.9-6.6-4.4-10.8-4.3c-4.1-0.1-7.7,1.3-10.7,4.3c-3,2.9-4.5,6.5-4.4,10.5
	C273.8,325.4,275.3,328.9,278.3,331.8L278.3,331.8z M240.8,331.8c3,2.9,6.6,4.3,10.8,4.3c2.7,0,5.2-0.6,7.4-1.9c2.2-1.3,4-3,5.2-5.2
	l-4.4-3.1c-2,3.2-4.8,4.8-8.2,4.8c-2.7,0-4.9-0.9-6.6-2.6c-1.8-1.8-2.6-4-2.6-6.7c0-2.7,0.9-5,2.6-6.8c1.8-1.8,3.9-2.7,6.6-2.7
	c3.4,0,6.1,1.6,8.2,4.8l4.4-3.1c-1.3-2.2-3-4-5.2-5.2c-2.2-1.3-4.7-1.9-7.4-1.9c-4.2-0.1-7.8,1.3-10.8,4.3c-3,2.9-4.5,6.4-4.5,10.5
	C236.4,325.4,237.8,328.9,240.8,331.8L240.8,331.8z M152.9,301.8c-11.5-6.4-24.3-9.8-37.5-9.8s-26,3.4-37.5,9.8
	c4.6,4.6,8.9,9.7,12.9,15.3c6.9,9.6,11.5,18.8,14.2,25.1l10.4-17l10.4,17c2.8-6.3,7.3-15.5,14.2-25.1
	C144,311.5,148.4,306.4,152.9,301.8L152.9,301.8z M205.2,283.4c-13.7,2.7-26.1,8.4-37.1,17.2l0,0c-2.5,2-4.9,4-7.2,6.3l0,0
	c-4.7,4.5-9.1,9.6-13.1,15.3c-11.6,16.1-16.3,31.1-16.4,31.3c-0.5,1.7-2,2.9-3.8,3.2c-0.2,0-0.5,0-0.7,0c-1.5,0-3-0.8-3.8-2
	l-7.7-11.4l-7.7,11.4c-0.9,1.3-2.3,2-3.8,2c-0.2,0-0.5,0-0.7,0c-1.8-0.3-3.2-1.5-3.8-3.2c0-0.1-4.8-15.2-16.4-31.3
	c-4.1-5.7-8.6-10.9-13.2-15.4c-0.5-0.5-1.1-1-1.6-1.5c0,0,0,0,0,0c-1.8-1.6-3.6-3.2-5.4-4.6l0,0c-11-8.8-23.4-14.5-37.1-17.2
	c-2.5-0.5-4.1-2.9-3.6-5.5c0.5-2.5,2.9-4.1,5.4-3.7c15.9,3.1,30.5,10.2,43.3,20.9c13.5-8.2,28.9-12.6,44.7-12.6s31.2,4.4,44.7,12.6
	c12.8-10.7,27.4-17.8,43.3-20.9c2.5-0.5,4.9,1.1,5.4,3.7S207.7,282.9,205.2,283.4L205.2,283.4z M56.9,305.5
	c-16,14.5-26.5,34.5-29.6,56.3c-0.4,2.5,1.4,4.9,4,5.3s4.9-1.4,5.3-4c2.8-19.6,12.3-37.6,26.7-50.7c0.9-0.8,1.8-1.5,2.6-2.3
	c-2.3-2.2-4.7-4.3-7.2-6.2C58,304.5,57.5,305,56.9,305.5L56.9,305.5z M203.6,361.8c0.4,2.5-1.4,4.9-4,5.3c-0.2,0-0.5,0-0.7,0
	c-2.3,0-4.3-1.7-4.6-4c-2.8-19.6-12.3-37.6-26.7-50.7c-0.9-0.8-1.8-1.5-2.6-2.3c2.3-2.2,4.7-4.3,7.2-6.2c0.6,0.5,1.2,1,1.8,1.5
	C190,320,200.5,340,203.6,361.8L203.6,361.8z M615.2,304.2h-1.4v-0.6h3.5v0.6h-1.4v3.6h-0.7V304.2z M621.9,303.6v4.3h-0.7v-2.6
	l-1.2,1.6h-0.2l-1.2-1.6v2.6h-0.7v-4.3h0.2l1.8,2.3l1.8-2.3H621.9z"/>
</svg>
