<svg xmlns="http://www.w3.org/2000/svg" width="178.154" height="43.828" viewBox="0 0 178.154 43.828">
  <path id="Path_20547" data-name="Path 20547" d="M37.295-14.209a15.094,15.094,0,0,1-5.083,10.84Q27.627.586,20.127.586q-8.2,0-12.905-5.522T2.52-20.1v-2.607a25.57,25.57,0,0,1,2.168-10.84,16.247,16.247,0,0,1,6.2-7.192,17.357,17.357,0,0,1,9.36-2.5q7.383,0,11.895,3.955t5.215,11.1H28.564q-.322-4.131-2.3-5.991t-6.021-1.86a7.468,7.468,0,0,0-6.577,3.149q-2.183,3.149-2.241,9.771v3.223q0,6.914,2.095,10.107t6.606,3.193q4.072,0,6.079-1.86t2.3-5.757Zm21.563-1.406h-7V0H43.066V-42.656h15.85q7.559,0,11.66,3.369t4.1,9.521a13.123,13.123,0,0,1-1.89,7.28,12.888,12.888,0,0,1-5.728,4.644L76.289-.41V0H66.855Zm-7-7.119h7.09a7.259,7.259,0,0,0,5.127-1.685,6.021,6.021,0,0,0,1.816-4.644,6.445,6.445,0,0,0-1.714-4.746q-1.714-1.729-5.259-1.729H51.855ZM90.7,0H81.914V-42.656H90.7Zm30.264-11.191a4.51,4.51,0,0,0-1.758-3.823,23.056,23.056,0,0,0-6.328-2.812,44.859,44.859,0,0,1-7.236-2.915q-7.266-3.926-7.266-10.576a10.3,10.3,0,0,1,1.948-6.167,12.708,12.708,0,0,1,5.6-4.233,21.062,21.062,0,0,1,8.188-1.523,19.171,19.171,0,0,1,8.145,1.655,12.969,12.969,0,0,1,5.552,4.673,12.227,12.227,0,0,1,1.978,6.855H121a5.752,5.752,0,0,0-1.846-4.556,7.587,7.587,0,0,0-5.186-1.626,8.106,8.106,0,0,0-5.01,1.362,4.3,4.3,0,0,0-1.787,3.589,4.115,4.115,0,0,0,2.095,3.486,23.666,23.666,0,0,0,6.167,2.637q7.5,2.256,10.928,5.6a11.144,11.144,0,0,1,3.428,8.32A10.265,10.265,0,0,1,125.6-2.563Q121.406.586,114.316.586a21.781,21.781,0,0,1-8.965-1.8,14.186,14.186,0,0,1-6.167-4.937,12.642,12.642,0,0,1-2.124-7.266h8.818q0,7.061,8.438,7.061a8.208,8.208,0,0,0,4.893-1.274A4.146,4.146,0,0,0,120.967-11.191ZM145.078,0h-8.789V-42.656h8.789Zm16.934-7.061h18.662V0H153.223V-42.656h8.789Z" transform="translate(-2.52 43.242)" fill="#d60029"/>
</svg>
