<svg xmlns="http://www.w3.org/2000/svg" xmlns:xlink="http://www.w3.org/1999/xlink" id="Layer_1" x="0px" y="0px" width="985px" height="407px" viewBox="168.5 294.5 985 407" xml:space="preserve"><g id="Layer_1_1_" display="none">			<image display="inline" width="1920" height="1080" xlink:href="16BA8F95.jpg" transform="matrix(1 0 0 1 -319 -139)">	</image></g><g id="Layer_2">	<g>		<path fill="#FFCA3E" d="M339.968,570l-32.136,56H190v10h117.833l32.136,56h70.063l35.005-61l-35.005-61H339.968z M404.241,682   H345.76l-29.267-51l29.267-51h58.481l29.267,51L404.241,682z"></path>		<polygon fill="#FFCA3E" points="656,557 561.452,557 528.874,500 459.126,500 424.253,561 459.126,622 528.874,622 560.304,567    656,567   "></polygon>		<path fill="#FFCA3E" d="M304.963,493l35.005,61h70.063l35.005-61l-31.666-55.182l97.445-98.104l-7.096-7.047L405.056,432H341.59   l-101.095-99.374l-7.01,7.132l101.924,100.188L304.963,493z M345.759,442h58.481l29.267,51l-29.267,51h-58.481l-29.267-51   L345.759,442z"></path>	</g>	<g>		<g>			<path fill="#FFFFFF" d="M719.729,548.232c-6.236,0-11.938-1.063-17.108-3.188c-5.174-2.125-9.597-5.134-13.284-9.033    c-3.681-3.896-6.551-8.57-8.604-14.025c-2.054-5.452-3.083-11.511-3.083-18.17h25.716c0,12.469,5.453,18.7,16.365,18.7    c2.688,0,4.887-0.67,6.588-2.019c1.7-1.346,3.009-3.082,3.932-5.208c0.92-2.125,1.557-4.494,1.913-7.118    c0.352-2.621,0.531-5.207,0.531-7.757V387.564h25.716v112.852c0,7.226-0.924,13.814-2.764,19.764    c-1.845,5.952-4.43,10.982-7.758,15.089c-3.329,4.113-7.367,7.3-12.114,9.563C731.023,547.099,725.679,548.232,719.729,548.232z"></path>			<path fill="#FFFFFF" d="M842.776,548.659c-6.8,0-13.281-1.275-19.444-3.827c-6.163-2.547-11.582-6.301-16.258-11.262    c-4.678-4.816-8.256-10.31-10.733-16.473c-2.479-6.163-3.72-12.646-3.72-19.446h26.143c0,3.545,0.637,6.838,1.911,9.884    c1.275,3.048,2.976,5.668,5.103,7.863c2.126,2.198,4.639,3.933,7.544,5.206c2.903,1.275,6.056,1.912,9.456,1.912    c2.267,0,4.781-0.28,7.548-0.85c2.762-0.564,5.382-1.594,7.86-3.082c2.479-1.487,4.57-3.576,6.27-6.269    c1.702-2.69,2.552-6.163,2.552-10.415c0-1.133-0.104-2.763-0.316-4.888c-0.216-2.127-1.208-4.532-2.979-7.226    c-1.771-2.69-4.642-5.596-8.604-8.715c-3.971-3.114-9.64-6.232-17.002-9.353c-4.254-1.839-8.683-4.038-13.284-6.586    c-4.605-2.551-8.855-5.597-12.752-9.141c-3.897-3.541-7.157-7.72-9.775-12.538c-2.624-4.814-4.005-10.341-4.146-16.576    c-0.144-5.528,0.776-10.839,2.765-15.939c1.979-5.102,4.957-9.633,8.925-13.603c4.108-4.251,8.996-7.545,14.665-9.883    c5.665-2.338,11.689-3.506,18.064-3.506c6.091,0,11.864,1.168,17.321,3.506c5.451,2.338,10.163,5.526,14.131,9.563    c3.967,4.037,7.121,8.749,9.459,14.134c2.339,5.387,3.505,11.124,3.505,17.216h-26.141c0-2.551-0.46-4.923-1.381-7.121    c-0.923-2.195-2.231-4.108-3.932-5.737c-1.699-1.628-3.649-2.939-5.845-3.934c-2.198-0.988-4.568-1.487-7.119-1.487    c-5.813,0-10.414,1.774-13.814,5.315c-2.412,2.124-3.611,5.736-3.611,10.837c0,0.85,0.105,1.949,0.317,3.293    c0.211,1.35,1.027,2.978,2.445,4.89c1.414,1.911,3.681,4.005,6.799,6.271c3.115,2.269,7.579,4.748,13.389,7.438    c8.784,3.967,16.115,7.899,21.996,11.794c5.88,3.898,10.627,7.972,14.24,12.223c3.612,4.249,6.196,8.818,7.758,13.705    c1.556,4.889,2.337,10.239,2.337,16.047c0,4.675-0.53,8.895-1.593,12.646c-1.063,3.757-2.411,7.087-4.039,9.989    c-1.63,2.904-3.4,5.456-5.313,7.65c-1.914,2.197-3.793,4.006-5.632,5.419C868.775,544.976,857.088,548.659,842.776,548.659z"></path>			<path fill="#FFFFFF" d="M967.748,458.548l-24.653,86.711H916.74l43.992-164.707l44.632,109.024l44.628-109.024l43.994,164.707    h-26.354l-24.651-86.711l-37.616,93.513L967.748,458.548z"></path>		</g>	</g>	<g>		<path fill="#FFFFFF" d="M718.786,583.018c-1.597-2.714-3.709-4.842-6.34-6.391c-2.628-1.546-5.563-2.32-8.8-2.32   c-2.759,0-5.281,0.582-7.565,1.747c-2.286,1.168-4.243,2.73-5.873,4.696c-1.632,1.962-2.898,4.237-3.804,6.817   c-0.902,2.582-1.354,5.303-1.354,8.158c0,3.38,0.498,6.371,1.499,8.979c0.998,2.606,2.302,4.771,3.909,6.497   c1.604,1.727,3.516,3.163,5.729,4.32c2.214,1.153,4.7,1.73,7.459,1.73c3.764,0,7.032-0.912,9.819-2.731   c2.785-1.818,5.163-4.813,7.138-8.979l6.284,2.963c-0.902,2.57-2.438,5.056-4.603,7.443c-2.168,2.393-4.838,4.318-8.018,5.783   c-3.178,1.464-6.694,2.194-10.552,2.194c-3.688,0-7.079-0.695-10.172-2.086c-3.094-1.395-5.851-3.377-8.265-5.944   c-2.416-2.571-4.263-5.618-5.535-9.141c-1.271-3.521-1.909-7.198-1.909-11.03c0-3.856,0.638-7.496,1.909-10.925   c1.272-3.428,3.058-6.407,5.355-8.942c2.296-2.535,5.033-4.534,8.21-5.997c3.179-1.464,6.624-2.196,10.335-2.196   c3.308,0,6.164,0.471,8.568,1.411c2.404,0.939,4.445,2.058,6.124,3.354c1.677,1.297,3.122,2.708,4.337,4.229h3.782v6.355h-7.67   V583.018z"></path>		<path fill="#FFFFFF" d="M732.21,604.365c0.021-2.926,0.493-5.594,1.409-7.996c0.915-2.404,2.197-4.47,3.837-6.194   c1.644-1.725,3.594-3.052,5.856-3.982c2.261-0.929,4.746-1.391,7.459-1.391c2.736,0,5.244,0.462,7.517,1.391   c2.271,0.932,4.219,2.245,5.837,3.946c1.619,1.704,2.879,3.755,3.784,6.157c0.903,2.404,1.354,5.071,1.354,7.999   c0,2.879-0.45,5.527-1.354,7.943c-0.905,2.414-2.165,4.492-3.784,6.227c-1.618,1.74-3.564,3.09-5.837,4.055   c-2.271,0.965-4.779,1.444-7.517,1.444c-2.783,0-5.308-0.475-7.565-1.428c-2.263-0.952-4.202-2.293-5.82-4.015   c-1.618-1.729-2.881-3.794-3.785-6.195C732.695,609.923,732.231,607.271,732.21,604.365z M739.241,604.365   c0,2.118,0.304,4.034,0.911,5.747c0.604,1.714,1.439,3.171,2.5,4.373c1.057,1.202,2.281,2.13,3.676,2.782   c1.394,0.656,2.874,0.984,4.443,0.984c1.644,0,3.173-0.321,4.588-0.965c1.418-0.643,2.646-1.565,3.694-2.769   c1.048-1.199,1.867-2.657,2.464-4.372c0.596-1.715,0.895-3.641,0.895-5.782c0-2.237-0.299-4.226-0.895-5.965   c-0.597-1.734-1.41-3.188-2.444-4.351c-1.036-1.169-2.27-2.05-3.695-2.643c-1.428-0.6-2.963-0.895-4.605-0.895   c-1.569,0-3.051,0.295-4.443,0.895c-1.394,0.593-2.619,1.474-3.676,2.643c-1.061,1.163-1.896,2.615-2.5,4.351   C739.545,600.141,739.241,602.128,739.241,604.365z"></path>		<path fill="#FFFFFF" d="M776.438,585.872h11.782v4.32h0.071c0.809-0.691,1.66-1.339,2.553-1.946s1.827-1.135,2.803-1.588   c0.977-0.452,1.993-0.812,3.054-1.072c1.06-0.259,2.158-0.393,3.302-0.393c2.665,0,4.962,0.494,6.893,1.482   c1.927,0.986,3.412,2.528,4.459,4.623c0.904-0.812,1.858-1.59,2.858-2.341c0.999-0.748,2.037-1.396,3.122-1.944   c1.082-0.547,2.219-0.985,3.41-1.321c1.189-0.332,2.427-0.499,3.711-0.499c1.999,0,3.798,0.272,5.391,0.821   c1.598,0.548,2.952,1.378,4.072,2.498c1.116,1.12,1.97,2.555,2.553,4.304c0.582,1.748,0.875,3.812,0.875,6.193v17.705h5.141v6.141   h-17.279v-6.141h5.213v-16.884c0-2.834-0.715-4.981-2.142-6.444c-1.427-1.466-3.486-2.193-6.177-2.193   c-1.596,0-3.226,0.378-4.894,1.142c-1.664,0.762-3.093,1.726-4.285,2.891v21.49h5.108v6.142h-17.244v-6.142H806v-16.884   c0-2.834-0.72-4.981-2.16-6.444c-1.438-1.466-3.505-2.193-6.193-2.193c-1.547,0-3.105,0.367-4.679,1.104   c-1.568,0.738-3.057,1.655-4.46,2.749v21.668h5.211v6.142h-17.281v-6.142h5.145v-24.704h-5.145V585.872L776.438,585.872z"></path>		<path fill="#FFFFFF" d="M848.16,585.872h11.781v3.069c1.569-1.215,3.284-2.177,5.142-2.893c1.854-0.71,3.771-1.07,5.748-1.07   c2.428,0,4.651,0.455,6.675,1.357s3.768,2.177,5.231,3.818c1.461,1.644,2.598,3.611,3.409,5.909   c0.808,2.298,1.211,4.837,1.211,7.621c0,2.977-0.451,5.689-1.357,8.141c-0.901,2.45-2.157,4.552-3.766,6.3   c-1.605,1.751-3.516,3.113-5.729,4.088c-2.213,0.976-4.64,1.464-7.281,1.464c-1.881,0-3.552-0.194-5.016-0.589   c-1.464-0.392-2.863-0.896-4.195-1.518v11.961h5.783v6.141h-17.563v-6.141h5.07V592.01h-5.144V585.872L848.16,585.872z    M869.081,590.834c-1.713,0-3.362,0.347-4.944,1.035c-1.585,0.689-2.958,1.644-4.124,2.856v20.027   c0.787,0.81,1.911,1.534,3.373,2.176c1.466,0.646,3.292,0.965,5.479,0.965c1.523,0,2.988-0.299,4.394-0.892   c1.402-0.595,2.642-1.481,3.711-2.66c1.07-1.18,1.931-2.634,2.572-4.372c0.642-1.736,0.964-3.75,0.964-6.036   c0-2.092-0.305-3.946-0.913-5.565c-0.604-1.619-1.428-2.987-2.462-4.106c-1.035-1.118-2.244-1.968-3.622-2.553   C872.126,591.126,870.651,590.834,869.081,590.834z"></path>		<path fill="#FFFFFF" d="M893.713,604.365c0.025-2.926,0.495-5.594,1.413-7.996c0.916-2.404,2.193-4.47,3.836-6.194   c1.642-1.725,3.593-3.052,5.854-3.982c2.26-0.929,4.749-1.391,7.462-1.391c2.736,0,5.241,0.462,7.513,1.391   c2.273,0.932,4.221,2.245,5.838,3.946c1.619,1.704,2.879,3.755,3.786,6.157c0.904,2.404,1.356,5.071,1.356,7.999   c0,2.879-0.452,5.527-1.356,7.943c-0.907,2.414-2.167,4.492-3.786,6.227c-1.617,1.74-3.564,3.09-5.838,4.055   c-2.271,0.965-4.775,1.444-7.513,1.444c-2.786,0-5.309-0.475-7.569-1.428c-2.261-0.952-4.202-2.293-5.816-4.015   c-1.621-1.729-2.881-3.794-3.787-6.195C894.201,609.923,893.738,607.271,893.713,604.365z M900.749,604.365   c0,2.118,0.302,4.034,0.908,5.747c0.605,1.714,1.438,3.171,2.5,4.373c1.058,1.202,2.285,2.13,3.677,2.782   c1.393,0.656,2.873,0.984,4.444,0.984c1.641,0,3.171-0.321,4.588-0.965c1.415-0.643,2.646-1.565,3.694-2.769   c1.047-1.199,1.865-2.657,2.463-4.372c0.595-1.715,0.893-3.641,0.893-5.782c0-2.237-0.298-4.226-0.893-5.965   c-0.598-1.734-1.411-3.188-2.445-4.351c-1.035-1.169-2.268-2.05-3.695-2.643c-1.428-0.6-2.964-0.895-4.604-0.895   c-1.571,0-3.053,0.295-4.444,0.895c-1.392,0.593-2.619,1.474-3.677,2.643c-1.062,1.163-1.895,2.615-2.5,4.351   C901.051,600.141,900.749,602.128,900.749,604.365z"></path>		<path fill="#FFFFFF" d="M958.6,593.245c-0.465-0.702-1.065-1.273-1.804-1.713c-0.737-0.44-1.56-0.763-2.463-0.966   c-0.905-0.201-1.783-0.306-2.642-0.306c-0.954,0-1.829,0.107-2.625,0.323c-0.797,0.214-1.481,0.524-2.052,0.927   c-0.573,0.405-1.021,0.899-1.339,1.483c-0.32,0.583-0.482,1.229-0.482,1.945c0,1.237,0.377,2.22,1.123,2.943   c0.75,0.727,2.007,1.398,3.769,2.02l7.103,2.496c3.051,1.023,5.274,2.415,6.679,4.179c1.402,1.761,2.105,3.87,2.105,6.319   c0,1.645-0.327,3.146-0.981,4.518c-0.654,1.366-1.583,2.532-2.786,3.496c-1.201,0.964-2.646,1.715-4.336,2.251   c-1.69,0.536-3.57,0.802-5.642,0.802c-2.88,0-5.225-0.465-7.033-1.393c-1.808-0.929-3.2-2.152-4.177-3.677h-3.712v-6.141h7.391   c0,1.024,0.218,1.896,0.66,2.621c0.438,0.729,1.022,1.316,1.746,1.77c0.729,0.45,1.549,0.786,2.467,1.001   c0.916,0.214,1.851,0.318,2.802,0.318c0.93,0,1.821-0.112,2.678-0.339c0.854-0.227,1.611-0.559,2.267-0.999   s1.174-0.97,1.554-1.588s0.571-1.319,0.571-2.108c0-1.188-0.386-2.199-1.16-3.032c-0.771-0.832-2.088-1.583-3.944-2.25   l-7.068-2.641c-2.88-1.023-5.019-2.326-6.407-3.908c-1.395-1.585-2.091-3.564-2.091-5.945c0-1.57,0.294-3.022,0.878-4.354   c0.58-1.334,1.426-2.482,2.532-3.445c1.106-0.964,2.457-1.721,4.054-2.269c1.594-0.546,3.412-0.821,5.462-0.821   c2.642,0,4.854,0.37,6.639,1.107c1.786,0.737,3.393,2,4.819,3.785h3.463v6.139h-7.317   C959.295,594.798,959.063,593.948,958.6,593.245z"></path>		<path fill="#FFFFFF" d="M973.111,585.872h12.063v30.844h5.571v6.142H973.18v-6.142h5.283v-24.704h-5.353L973.111,585.872   L973.111,585.872z M977.216,572.771c0-0.62,0.124-1.21,0.375-1.767c0.249-0.561,0.582-1.049,1-1.465   c0.415-0.417,0.909-0.752,1.48-1.002c0.568-0.248,1.179-0.374,1.82-0.374c0.617,0,1.205,0.126,1.769,0.374   c0.558,0.25,1.048,0.585,1.465,1.002c0.413,0.416,0.748,0.904,0.997,1.465c0.249,0.557,0.375,1.146,0.375,1.767   c0,0.641-0.126,1.25-0.375,1.817c-0.249,0.572-0.584,1.078-0.997,1.521c-0.417,0.438-0.907,0.78-1.465,1.033   c-0.563,0.249-1.15,0.375-1.769,0.375c-0.643,0-1.252-0.126-1.82-0.375c-0.571-0.253-1.065-0.595-1.48-1.033   c-0.418-0.442-0.751-0.948-1-1.521C977.34,574.021,977.216,573.412,977.216,572.771z"></path>		<path fill="#FFFFFF" d="M1007.563,585.872h8.674v5.391h-8.745l-0.107,21.351c0,1.449,0.165,2.629,0.497,3.533   c0.335,0.904,0.87,1.528,1.608,1.875c0.737,0.345,1.569,0.519,2.499,0.519c0.999,0,1.881-0.09,2.642-0.271   c0.761-0.178,1.595-0.48,2.498-0.91l1.536,4.464c-1.143,0.595-2.345,1.063-3.604,1.409c-1.262,0.343-2.75,0.52-4.466,0.52   c-1.618,0-3.026-0.197-4.229-0.589c-1.202-0.396-2.213-1.055-3.035-1.981c-0.821-0.93-1.435-2.173-1.84-3.731   c-0.401-1.558-0.605-3.503-0.605-5.837l0.107-20.35h-5.89v-5.391h5.959v-8.854l6.5-3.068V585.872z"></path>		<path fill="#FFFFFF" d="M1030.336,605.223c0,1.047,0.078,2.004,0.233,2.873c0.157,0.868,0.376,1.696,0.659,2.481   c0.88,2.378,2.292,4.172,4.23,5.372c1.938,1.202,4.136,1.803,6.588,1.803c1.926,0,3.801-0.268,5.622-0.805   c1.821-0.532,3.729-1.372,5.73-2.516l2.678,4.534c-2.429,1.665-4.866,2.903-7.319,3.712c-2.452,0.812-4.999,1.212-7.641,1.212   c-2.499,0-4.814-0.412-6.943-1.249c-2.13-0.83-3.962-2.068-5.497-3.713c-1.536-1.641-2.736-3.688-3.604-6.139   c-0.868-2.449-1.303-5.307-1.303-8.569c0-2.642,0.367-5.135,1.105-7.477c0.735-2.347,1.839-4.394,3.302-6.143   c1.464-1.749,3.277-3.135,5.444-4.157c2.166-1.023,4.688-1.534,7.568-1.534c2.782,0,5.109,0.423,6.978,1.265   c1.869,0.845,3.394,1.966,4.573,3.358c1.176,1.39,2.066,2.98,2.676,4.765c0.605,1.784,1.028,3.606,1.266,5.46   c0.119,0.905,0.198,1.821,0.235,2.749c0.033,0.932,0.053,1.834,0.053,2.716L1030.336,605.223L1030.336,605.223z M1040.729,590.477   c-1.552,0-2.9,0.222-4.055,0.66c-1.154,0.441-2.137,1.072-2.945,1.894s-1.455,1.829-1.944,3.019   c-0.488,1.19-0.853,2.522-1.088,3.997h19.17c-0.095-1.378-0.315-2.652-0.659-3.82c-0.348-1.166-0.876-2.174-1.59-3.031   c-0.713-0.857-1.631-1.526-2.749-1.999C1043.748,590.714,1042.369,590.477,1040.729,590.477z"></path>		<path fill="#FFFFFF" d="M1086.654,593.245c-0.465-0.702-1.066-1.273-1.807-1.713c-0.736-0.44-1.558-0.763-2.462-0.966   c-0.902-0.201-1.784-0.306-2.643-0.306c-0.953,0-1.828,0.107-2.625,0.323c-0.795,0.214-1.479,0.524-2.051,0.927   c-0.573,0.405-1.019,0.899-1.337,1.483c-0.323,0.583-0.483,1.229-0.483,1.945c0,1.237,0.376,2.22,1.123,2.943   c0.749,0.727,2.005,1.398,3.767,2.02l7.104,2.496c3.049,1.023,5.272,2.415,6.678,4.179c1.402,1.761,2.104,3.87,2.104,6.319   c0,1.645-0.325,3.146-0.98,4.518c-0.655,1.366-1.584,2.532-2.787,3.496c-1.201,0.964-2.646,1.715-4.334,2.251   c-1.691,0.536-3.572,0.802-5.644,0.802c-2.878,0-5.224-0.465-7.031-1.393c-1.808-0.929-3.201-2.152-4.178-3.677h-3.712v-6.141   h7.39c0,1.024,0.217,1.896,0.66,2.621c0.438,0.729,1.022,1.316,1.749,1.77c0.725,0.45,1.546,0.786,2.464,1.001   c0.916,0.214,1.85,0.318,2.802,0.318c0.93,0,1.821-0.112,2.677-0.339c0.857-0.227,1.612-0.559,2.268-0.999s1.173-0.97,1.554-1.588   c0.379-0.618,0.57-1.319,0.57-2.108c0-1.188-0.384-2.199-1.159-3.032c-0.772-0.832-2.088-1.583-3.944-2.25l-7.068-2.641   c-2.879-1.023-5.017-2.326-6.407-3.908c-1.394-1.585-2.09-3.564-2.09-5.945c0-1.57,0.293-3.022,0.877-4.354   c0.581-1.334,1.428-2.482,2.534-3.445c1.105-0.964,2.457-1.721,4.052-2.269c1.594-0.546,3.414-0.821,5.461-0.821   c2.643,0,4.854,0.37,6.64,1.107c1.786,0.737,3.394,2,4.821,3.785h3.461v6.139h-7.315   C1087.35,594.798,1087.118,593.948,1086.654,593.245z"></path>	</g></g></svg>