<?xml version="1.0" encoding="utf-8"?>
<!-- Generator: Adobe Illustrator 26.0.3, SVG Export Plug-In . SVG Version: 6.00 Build 0)  -->
<svg version="1.0" id="Layer_1" xmlns="http://www.w3.org/2000/svg" xmlns:xlink="http://www.w3.org/1999/xlink" x="0px" y="0px"
	 viewBox="0 0 253 166" style="enable-background:new 0 0 253 166;" xml:space="preserve">
<style type="text/css">
	.st0{fill:#FFA300;}
	.st1{fill:#022853;}
</style>
<path class="st0" d="M99,84.2v4.3H85.6V70.4H99v4.4h-8v2.6h7.2v4.1h-7.2v2.7L99,84.2z M115.4,84.2v4.3h-14.9v-4.3l7.9-9.4h-7.2v-4.4
	H118l-11.5,13.8H115.4z"/>
<path class="st1" d="M135.3,74.8h-6v13.7H124V74.8h-6.8l3.7-4.4h14.5L135.3,74.8L135.3,74.8z M149.3,81.2c0,0.4,0,0.8-0.1,1.2h-10.1
	c0.1,1.4,1.4,2.4,2.8,2.4c1,0.1,1.9-0.4,2.5-1.3h4.7c-1.3,3.9-5.6,6-9.5,4.7c-3-1-5-3.7-5-6.9c0-4.1,3.3-7.4,7.3-7.5
	C146,73.8,149.4,77.1,149.3,81.2L149.3,81.2z M139.2,79.8h5.5c-0.3-1.3-1.5-2.2-2.8-2.1C140.7,77.7,139.5,78.5,139.2,79.8z
	 M160.2,81.7l5.7-6.9h-5.9l-2.8,3.3l-2.8-3.3h-6l5.7,6.9l-5.7,6.8h6l2.8-3.3l2.8,3.3h5.9L160.2,81.7z M175.4,84.4v4.1h-3.2
	c-2.5,0.2-4.6-1.6-4.8-4.1c0-0.3,0-0.5,0-0.8v-5.6h-2.5l7.1-8.4v4.8h3.4v3.6h-3.3v4.8c-0.1,0.8,0.5,1.5,1.3,1.6c0.1,0,0.2,0,0.3,0
	L175.4,84.4L175.4,84.4L175.4,84.4z M177.6,74.5h4.7v14h-4.7V74.5z M177.6,68.9h4.6v4h-4.6V68.9z M198,80.2v8.3h-4.7v-7.6
	c0-1.6-0.6-2.4-1.8-2.4c-1.5,0-2.3,1-2.3,2.8v7.3h-4.7V74.8h3.9v1.5c1.1-1.2,2.7-1.8,4.3-1.8C196,74.5,198.1,76.8,198,80.2L198,80.2
	z M214.7,74.8v12c0,4.3-2.8,6.9-7.3,6.9c-3.9,0-6.6-1.9-7.2-5.2h4.5c0.5,0.9,1.6,1.5,2.6,1.4c1.4,0.1,2.7-0.9,2.8-2.4
	c0-0.1,0-0.2,0-0.2V87c-3.2,2-7.4,1-9.5-2.2c-2-3.2-1-7.4,2.2-9.5c2.5-1.6,5.7-1.4,8,0.5v-1L214.7,74.8z M210.3,81.1
	c-0.1-1.6-1.4-2.9-3-2.8c-1.6,0.1-2.9,1.4-2.8,3c0.1,1.6,1.3,2.8,2.9,2.8c1.6,0,2.9-1.2,2.9-2.8C210.3,81.2,210.3,81.2,210.3,81.1
	L210.3,81.1z"/>
<path id="B" class="st1" d="M107.5,101c0,0.5-0.2,1-0.6,1.4c-0.5,0.4-1.1,0.5-1.7,0.5c-0.6,0-1.3-0.1-1.8-0.4v-1.3l1.1,0.4
	c0.3,0.1,0.5,0.1,0.8,0.1c0.2,0,0.5,0,0.7-0.2c0.2-0.1,0.2-0.3,0.2-0.5c0-0.1,0-0.2-0.1-0.3c-0.1-0.1-0.2-0.2-0.3-0.3
	c-0.3-0.2-0.5-0.3-0.8-0.4c-0.3-0.1-0.6-0.3-0.9-0.5c-0.2-0.2-0.4-0.4-0.5-0.6c-0.1-0.2-0.2-0.5-0.2-0.8c0-0.5,0.2-1,0.6-1.3
	c0.5-0.3,1-0.5,1.6-0.5c0.3,0,0.7,0,1,0.1c0.3,0.1,0.7,0.2,1,0.3l-0.4,1c-0.3-0.1-0.6-0.2-0.8-0.3c-0.2-0.1-0.4-0.1-0.7-0.1
	c-0.2,0-0.4,0.1-0.6,0.2c-0.1,0.1-0.2,0.3-0.2,0.5c0,0.1,0,0.2,0.1,0.3c0.1,0.1,0.2,0.2,0.3,0.3c0.3,0.2,0.6,0.3,0.9,0.4
	c0.5,0.2,0.9,0.5,1.2,0.9C107.5,100.2,107.6,100.6,107.5,101L107.5,101z"/>
<path class="st1" d="M113.2,102.8h-3.7v-6.4h3.7v1.1h-2.3v1.4h2.2v1.1h-2.2v1.7h2.3V102.8z M121.1,102.8h-1.7l-2.8-4.8l0,0l0.1,1.8
	v3h-1.3v-6.4h1.7l2.8,4.8l0,0l-0.1-1.8v-3h1.2C121.1,96.4,121.1,102.8,121.1,102.8z M128.9,99.5c0.1,0.9-0.3,1.8-0.9,2.4
	c-0.7,0.6-1.7,0.9-2.6,0.8h-1.8v-6.4h2c0.9-0.1,1.8,0.2,2.4,0.8C128.6,97.8,129,98.6,128.9,99.5z M127.5,99.5c0-1.4-0.6-2.1-1.8-2.1
	H125v4.2h0.5C126.9,101.7,127.5,100.9,127.5,99.5L127.5,99.5z"/>
<path id="B-2" class="st1" d="M138.1,101c0,0.5-0.2,1-0.6,1.4c-0.5,0.4-1.1,0.5-1.7,0.5c-0.6,0-1.3-0.1-1.8-0.4v-1.3l1.1,0.4
	c0.3,0.1,0.5,0.1,0.8,0.1c0.2,0,0.5,0,0.7-0.2c0.2-0.1,0.2-0.3,0.2-0.5c0-0.1,0-0.2-0.1-0.3c-0.1-0.1-0.2-0.2-0.3-0.3
	c-0.3-0.2-0.6-0.3-0.8-0.4c-0.3-0.1-0.6-0.3-0.9-0.5c-0.2-0.2-0.4-0.4-0.5-0.6c-0.1-0.2-0.2-0.5-0.2-0.8c0-0.5,0.2-1,0.6-1.3
	c0.5-0.3,1-0.5,1.6-0.5c0.3,0,0.7,0,1,0.1c0.3,0.1,0.7,0.2,1,0.3l-0.5,1c-0.3-0.1-0.6-0.2-0.8-0.3c-0.2-0.1-0.4-0.1-0.7-0.1
	c-0.2,0-0.4,0.1-0.6,0.2c-0.1,0.1-0.2,0.3-0.2,0.5c0,0.1,0,0.2,0.1,0.3c0.1,0.1,0.2,0.2,0.3,0.3c0.3,0.2,0.6,0.3,0.9,0.4
	c0.5,0.2,0.9,0.5,1.2,0.9C138.1,100.2,138.2,100.6,138.1,101L138.1,101z"/>
<path class="st1" d="M142.9,102.8l-1.5-5l0,0l0.1,2v3h-1.2v-6.4h1.9l1.5,4.9l0,0l1.6-4.9h1.9v6.4h-1.3v-3.5l0.1-1.5l0,0l-1.6,5
	L142.9,102.8L142.9,102.8z M153.5,102.8l-0.5-1.5h-2.3l-0.5,1.5h-1.5l2.2-6.4h1.6l2.3,6.4H153.5z M152.7,100.1l-0.7-2.3l-0.1-0.4
	l-0.8,2.8L152.7,100.1L152.7,100.1L152.7,100.1z M158,100.3v2.4h-1.4v-6.4h1.9c0.7-0.1,1.4,0.1,1.9,0.5c0.4,0.4,0.7,0.9,0.6,1.4
	c0,0.4-0.1,0.7-0.3,1c-0.2,0.3-0.5,0.5-0.9,0.7l1.9,2.8h-1.5l-1.5-2.4L158,100.3z M158,99.2h0.4c0.3,0,0.7,0,1-0.2
	c0.2-0.2,0.3-0.4,0.3-0.7c0-0.3-0.1-0.5-0.3-0.7c-0.3-0.1-0.7-0.2-1-0.2H158L158,99.2L158,99.2z M165.9,102.8h-1.3v-5.3h-1.7v-1.1
	h4.9v1.1h-1.7L165.9,102.8L165.9,102.8z M173.2,102.8h-3.7v-6.4h3.7v1.1h-2.3v1.4h2.1v1.1h-2.1v1.7h2.3L173.2,102.8z M176.8,100.3
	v2.4h-1.4v-6.4h1.9c0.7-0.1,1.4,0.1,1.9,0.5c0.4,0.4,0.7,0.9,0.6,1.4c0,0.4-0.1,0.7-0.3,1c-0.2,0.3-0.5,0.5-0.9,0.7l1.9,2.8h-1.5
	l-1.5-2.4L176.8,100.3z M176.8,99.2h0.4c0.3,0,0.7,0,1-0.2c0.2-0.2,0.3-0.4,0.3-0.7c0-0.3-0.1-0.5-0.3-0.7c-0.3-0.1-0.7-0.2-1-0.2
	h-0.4L176.8,99.2z"/>
<path class="st0" d="M68.4,70.7c-1.7-4.9-5.9-7.6-11.9-7.6h-5.6c-7.9,0-12.6,4.7-12.6,12.6v0.1c0,5.7,2.5,9.8,6.9,11.6
	c0,0,0.1,0.1,0.1,0.1l5.3,7.1c0,0.1,0.1,0.1,0.2,0.1h0.1c0.1,0,0.1-0.1,0.1-0.2v-5.8c0-0.1,0.1-0.3,0.3-0.3h0.3c0.1,0,0.1,0,0.1-0.1
	c0-0.1,0-0.1,0-0.2c-0.4-1.5-0.6-3-0.6-4.5V83c0-0.1-0.1-0.2-0.2-0.2c-4.4-0.2-6-2-6-7c0-5.5,1.6-7.1,7-7.1h3.6c3.2,0,5,0.6,6,2.1
	c0.7,1.1,1,2.6,1,5c0,0.4,0,0.8-0.1,1.3c-0.2,3-1.3,4.6-3.5,5.3c-0.1,0-0.1,0.1-0.2,0.2c0,0.3,0,0.6,0,0.9c-0.1,1.5,0.2,3,0.8,4.4
	c0,0.1,0.1,0.1,0.2,0.1c5.7-1.1,8.9-5.1,9.3-11.3v-0.2c0-0.3,0-0.5,0-0.8v-0.1C69.1,74,68.9,72.3,68.4,70.7z"/>
<path class="st1" d="M75.5,72.1l-0.1-0.1l-5.1-6.8c0-0.1-0.1-0.1-0.2-0.1c-0.1,0-0.1,0.1-0.1,0.2v5.7h-0.5c0,0-0.1,0-0.1,0.1
	c0,0,0,0.1,0,0.2v0.1c0.4,1.4,0.5,2.8,0.5,4.3v0.4c0,0.1,0.1,0.2,0.2,0.2l0,0c4.4,0.3,6,2.2,6,7.2c0,5.5-1.8,7.3-7.2,7.3h-3.6
	c-3.3,0-5.1-0.7-6.1-2.2c-0.9-1.6-1.3-3.4-1.1-5.1c0-0.4,0-0.9,0.1-1.3c0.2-3.1,1.3-4.7,3.5-5.4c0.1,0,0.1-0.1,0.1-0.2
	c0-0.3,0-0.5,0-0.8c0.1-1.4-0.1-2.9-0.7-4.2c0-0.1-0.2-0.1-0.2-0.1c-5.4,1.1-8.6,5-8.9,11v0.1c0,0.3,0,0.6,0,0.9v0.1
	c0,1.7,0.2,3.3,0.8,4.9c1.6,4.8,5.7,7.5,11.6,7.5h5.6c7.8,0,12.4-4.6,12.4-12.3v-0.1C82.2,77.7,79.9,73.8,75.5,72.1L75.5,72.1z"/>
</svg>
