<svg id="F5" xmlns="http://www.w3.org/2000/svg" width="187.242" height="187.242" viewBox="0 0 187.242 187.242">
  <circle id="Ellipse_2" data-name="Ellipse 2" cx="93.621" cy="93.621" r="93.621" transform="translate(0 0)" fill="#e21d38"/>
  <path id="Path_22335" data-name="Path 22335" d="M83.781,84.694c45.967,3.8,63.679,16.447,62.835,33.737-.843,9.278-9.7,18.134-21.086,18.977-13.495.843-19.821-4.639-23.616-10.543C98.541,121.383,94.745,115.9,90.95,110c-.843-1.687-2.53-.422-3.8.422-2.952,2.53-5.482,5.482-8.013,8.013-1.687,1.687-1.265,2.952-.843,4.217,2.53,5.9,5.061,11.808,7.591,17.29,4.217,2.53,23.194,5.9,37.111,4.639a66.617,66.617,0,0,0,31.629-11.808c9.7-7.591,16.869-17.712,18.134-34.159.422-10.121-1.265-20.664-10.121-30.363S138.6,50.535,107.819,48.426c1.687-5.061,2.952-9.7,4.639-14.338,18.555.843,35,2.109,48.919,3.8,1.265-5.482,1.687-10.543,2.952-15.6l-3.8-4.639c-7.169-.843-13.917-2.53-21.507-3.374-9.7-1.265-19.821-2.109-30.785-2.53-7.169,20.242-15.6,45.967-24.459,72.957M71.551,5.833c-3.374,0-8.013.843-15.6,2.53C39.5,13,19.259,24.388,17.15,43.366c-.422,2.952-.422,6.326-.843,9.278-4.639.422-8.856.843-13.073,1.265-.422,3.8-.422,7.169-.843,10.965,4.217-.422,8.434-.422,13.073-.843a440.732,440.732,0,0,0,1.687,58.2,48.757,48.757,0,0,1,.422,7.169c-.422,1.687-3.374,2.53-7.591,2.53l5.482,6.747a368.568,368.568,0,0,0,57.775,5.482V137.83c-12.651-.843-18.555-2.53-19.4-5.061-.843-2.109-.843-5.061-1.265-8.013-.843-19.4-1.265-40.485-.843-61.992,7.169,0,14.338,0,21.507-.422,3.8-1.687,7.169-3.374,10.543-5.061V50.113c-10.965,0-21.507.422-32.05.422q.633-13.284,1.265-25.3c.422-5.482,4.217-9.278,7.591-9.278,5.9-.422,11.386,2.109,16.869,4.639,2.952,1.265,5.9,2.952,8.856,4.217,1.265.422,2.952.843,4.217-.422a73.419,73.419,0,0,1,5.061-5.9,1.846,1.846,0,0,0,0-2.53C91.793,13,88.42,10.472,84.624,7.52c-2.109-1.687-5.9-1.687-9.278-1.687-1.265-.422-2.53,0-3.8,0" transform="translate(7.689 18.163)" fill="#fff"/>
</svg>
