<?xml version="1.0" encoding="utf-8"?>
<!-- Generator: Adobe Illustrator 27.7.0, SVG Export Plug-In . SVG Version: 6.00 Build 0)  -->
<svg version="1.1" id="katman_1" xmlns="http://www.w3.org/2000/svg" xmlns:xlink="http://www.w3.org/1999/xlink" x="0px" y="0px"
	 viewBox="0 0 800 600" style="enable-background:new 0 0 800 600;" xml:space="preserve">
<style type="text/css">
	.st0{fill:#FDB71B;}
	.st1{fill:#EE2E23;}
	.st2{fill:#008DCF;}
	.st3{fill:#484C57;}
</style>
<circle class="st0" cx="637.3" cy="318.6" r="30.6"/>
<circle class="st1" cx="570.4" cy="318.6" r="30.6"/>
<circle class="st2" cx="704.1" cy="318.6" r="30.6"/>
<g>
	<path class="st3" d="M121.6,287.5h-20V347H79.5v-59.6h-8.3v-18.9h8.3v-25.1c0-7.1,1.3-13.2,3.8-18.3c2.6-5,6.1-8.9,10.7-11.7
		s9.9-4.2,16-4.2c4.4,0,8.2,0.9,11.5,2.6v20c-3.6-1.9-6.9-2.9-9.9-2.9c-3.5,0-6.1,1.4-7.7,4.2s-2.4,7.3-2.4,13.4v21.9h20
		L121.6,287.5L121.6,287.5z"/>
	<path class="st3" d="M131.7,347v-78.4h22.1v11.8c5.4-9.6,13-14.4,22.7-14.4c3.1,0,6.3,0.6,9.6,1.9l-3,20.7
		c-3.4-1.8-6.9-2.7-10.6-2.7c-12.5,0-18.7,7.8-18.7,23.5V347H131.7z"/>
	<path class="st3" d="M256.7,278.7v-10.1h22.1V347h-22.1v-10.2c-6.7,8.4-15.3,12.6-25.6,12.6c-5.3,0-10.4-1.1-15.1-3.2
		c-4.8-2.1-8.9-5.1-12.4-8.9s-6.2-8.2-8.2-13.4s-2.9-10.6-2.9-16.3c0-4.2,0.6-8.6,1.9-13.3c1.3-4.7,3.7-9.4,7.2-14.1
		s7.9-8.2,13.2-10.6s10.5-3.6,15.8-3.6C240.8,266,249.5,270.2,256.7,278.7z M259.1,308c0-6-2.2-11.2-6.6-15.5
		c-4.4-4.4-9.5-6.6-15.4-6.6c-6.1,0-11.3,2.2-15.5,6.5c-4.3,4.3-6.4,9.5-6.4,15.4c0,6,2.1,11.1,6.4,15.4c4.3,4.3,9.4,6.5,15.5,6.5
		c5.8,0,10.9-2.2,15.3-6.6C256.9,318.8,259.1,313.7,259.1,308z"/>
	<path class="st3" d="M358.6,270.8v21.6c-3-2.2-6-3.9-9-5s-6-1.6-8.9-1.6c-4.6,0-8.6,1.1-12.1,3.3c-3.5,2.2-6.1,4.9-7.8,8.1
		c-1.7,3.2-2.6,6.7-2.6,10.6c0,3.1,0.7,6.3,2.1,9.7c1.4,3.4,4,6.2,7.8,8.6s8,3.6,12.6,3.6c3,0,6.1-0.6,9.2-1.8
		c3.1-1.2,6.1-2.8,8.7-4.8v21.6c-6.8,3.1-13.6,4.6-20.2,4.6c-6,0-11.6-1-16.9-3.1s-9.9-5-13.8-8.8s-6.9-8.2-9-13.3
		c-2.1-5.1-3.2-10.4-3.2-16.1c0-5.8,1.1-11.2,3.3-16.4c2.2-5.2,5.2-9.7,9.1-13.5s8.5-6.8,13.8-9c5.3-2.1,11-3.2,17-3.2
		C345.8,266,352.5,267.6,358.6,270.8z"/>
	<path class="st3" d="M375.4,287.5h-8.6v-18.9h8.6v-26.7h22.1v26.7h15.4v18.9h-15.4v23.4c0,6.6,0.7,11.5,2,14.6s3.9,4.6,7.6,4.6
		l4-0.3V349c-2.3,0.3-5.4,0.5-9.3,0.5c-8.3,0-14.8-2.8-19.5-8.4c-4.6-5.6-7-13-7-22.3L375.4,287.5L375.4,287.5z"/>
	<path class="st3" d="M486.8,278.7v-10.1h22.1V347h-22.1v-10.2c-6.7,8.4-15.3,12.6-25.6,12.6c-5.3,0-10.4-1.1-15.1-3.2
		c-4.8-2.1-8.9-5.1-12.4-8.9s-6.2-8.2-8.2-13.4c-1.9-5.1-2.9-10.6-2.9-16.3c0-4.2,0.6-8.6,1.9-13.3c1.3-4.7,3.7-9.4,7.2-14.1
		s7.9-8.2,13.2-10.6c5.3-2.4,10.5-3.6,15.8-3.6C470.8,266,479.5,270.2,486.8,278.7z M489.2,308c0-6-2.2-11.2-6.6-15.5
		c-4.4-4.4-9.5-6.6-15.4-6.6c-6.1,0-11.3,2.2-15.5,6.5c-4.3,4.3-6.4,9.5-6.4,15.4c0,6,2.1,11.1,6.4,15.4s9.4,6.5,15.5,6.5
		c5.8,0,10.9-2.2,15.3-6.6C487,318.8,489.2,313.7,489.2,308z"/>
	<path class="st3" d="M528.4,211.3h22.1v99.6c0,4.7,0.4,8.5,1.2,11.5s2,5,3.7,6.1s3.4,1.6,5.4,1.6l3-0.3V349
		c-2.3,0.3-4.8,0.5-7.4,0.5c-5.9,0-10.8-1.2-14.9-3.6c-4.1-2.4-7.3-5.9-9.6-10.6s-3.5-10.5-3.5-17.5V211.3z"/>
</g>
</svg>
