<?xml version="1.0" encoding="UTF-8" standalone="no"?>
<!-- Generator: Adobe Illustrator 15.0.1, SVG Export Plug-In . SVG Version: 6.00 Build 0)  -->

<svg
   xmlns:dc="http://purl.org/dc/elements/1.1/"
   xmlns:cc="http://creativecommons.org/ns#"
   xmlns:rdf="http://www.w3.org/1999/02/22-rdf-syntax-ns#"
   xmlns:svg="http://www.w3.org/2000/svg"
   xmlns="http://www.w3.org/2000/svg"
   xmlns:sodipodi="http://sodipodi.sourceforge.net/DTD/sodipodi-0.dtd"
   xmlns:inkscape="http://www.inkscape.org/namespaces/inkscape"
   version="1.1"
   id="Layer_1"
   x="0px"
   y="0px"
   width="475"
   height="170"
   viewBox="0 0 475 170"
   enable-background="new 0 0 612 792"
   xml:space="preserve"
   inkscape:version="0.48.0 r9654"
   sodipodi:docname="shaadi-com-logo.svg"><metadata
   id="metadata37"><rdf:RDF><cc:Work
       rdf:about=""><dc:format>image/svg+xml</dc:format><dc:type
         rdf:resource="http://purl.org/dc/dcmitype/StillImage" /></cc:Work></rdf:RDF></metadata><defs
   id="defs35" /><sodipodi:namedview
   pagecolor="#ffffff"
   bordercolor="#666666"
   borderopacity="1"
   objecttolerance="10"
   gridtolerance="10"
   guidetolerance="10"
   inkscape:pageopacity="0"
   inkscape:pageshadow="2"
   inkscape:window-width="1280"
   inkscape:window-height="968"
   id="namedview33"
   showgrid="false"
   inkscape:zoom="0.33207071"
   inkscape:cx="306"
   inkscape:cy="396"
   inkscape:window-x="-4"
   inkscape:window-y="-4"
   inkscape:window-maximized="1"
   inkscape:current-layer="Layer_1" />
<g
   id="g3"
   transform="translate(-68.25095,-309.82509)">
	<path
   clip-rule="evenodd"
   d="m 226.224,365.688 c -9.144,0 -16.416,-7.2 -16.416,-16.056 0,-8.784 7.272,-15.84 16.416,-15.84 9,0 16.272,7.056 16.272,15.84 0,8.784 -7.272,16.056 -16.272,16.056 z"
   id="path5"
   inkscape:connector-curvature="0"
   style="fill:#f8991d;fill-rule:evenodd" />
	<path
   clip-rule="evenodd"
   d="m 97.992,425.592 c 0,0 -8.712,0 -14.4,-4.248 v -10.512 c 3.168,8.28 11.016,8.28 11.016,8.28 7.776,0 11.376,-5.472 11.304,-9.648 0,-3.024 -1.656,-5.976 -6.12,-8.64 -3.024,-1.584 -5.616,-3.312 -7.704,-4.968 -5.688,-4.248 -8.496,-8.712 -8.64,-15.768 -0.144,-7.992 8.136,-14.112 17.28,-14.112 0,0 8.712,0 14.472,4.68 v 9.864 c -3.24,-7.344 -10.8,-8.136 -10.8,-8.136 -7.848,-0.72 -8.64,4.032 -8.496,6.048 0,1.08 1.512,4.32 4.32,5.976 4.968,3.24 11.448,6.624 14.904,11.448 2.088,2.88 3.528,6.336 3.528,10.296 0.288,11.232 -10.224,19.44 -20.664,19.44 z"
   id="path7"
   inkscape:connector-curvature="0"
   style="fill:#ce181e;fill-rule:evenodd" />
	<path
   clip-rule="evenodd"
   d="m 204.984,414.936 c -1.152,1.08 -2.88,3.528 -7.704,4.032 v 5.76 c 4.032,-1.512 6.768,-4.536 7.992,-6.912 0,0 1.008,6.48 4.32,6.912 0,0 7.92,0 15.12,0 -5.832,-3.96 -5.832,-11.52 -5.832,-11.52 v -0.072 -32.328 c 0,-7.776 -8.712,-15.048 -17.784,-15.048 0,0 -1.584,0.072 -3.816,0.432 v 6.264 c 0.504,0 0.72,-0.072 0.72,-0.072 7.56,0 8.28,4.824 8.136,6.768 0.792,2.52 -1.152,5.976 -1.152,5.976 -1.008,1.8 -4.032,3.24 -7.704,4.968 v 6.264 c 3.168,-2.376 6.336,-3.888 7.704,-5.616 v 24.192 z m -7.704,4.032 c -0.576,0.072 -1.152,0.144 -1.8,0.144 -3.528,0 -5.976,-3.6 -5.976,-7.344 0,-7.992 3.816,-12.384 7.776,-15.408 v -6.264 c -7.632,3.456 -18.144,7.776 -19.872,17.712 v 6.12 c 0.072,0.288 0.144,0.648 0.144,1.008 1.728,8.424 7.344,10.8 14.4,10.8 2.016,0 3.744,-0.432 5.328,-1.008 v -5.76 l 0,0 z m 0,-52.776 v 6.264 c -1.944,0.288 -7.2,1.728 -10.44,8.928 0,-7.776 0,-10.368 0,-10.368 3.24,-2.952 7.416,-4.248 10.44,-4.824 z"
   id="path9"
   inkscape:connector-curvature="0"
   style="fill:#ce181e;fill-rule:evenodd" />
	<path
   clip-rule="evenodd"
   d="m 255.672,414.936 c -1.224,1.08 -2.952,3.528 -7.704,4.032 v 5.76 c 4.032,-1.512 6.768,-4.536 7.992,-6.912 0,0 0.936,6.48 4.176,6.912 0,0 7.992,0 15.264,0 -5.904,-3.96 -5.904,-11.52 -5.904,-11.52 v -0.072 -32.328 c 0,-7.776 -8.64,-15.048 -17.712,-15.048 0,0 -1.584,0.072 -3.816,0.432 v 6.264 c 0.36,0 0.576,-0.072 0.576,-0.072 7.704,0 8.352,4.824 8.28,6.768 0.792,2.52 -1.152,5.976 -1.152,5.976 -1.008,1.8 -4.032,3.24 -7.704,4.968 v 6.264 c 3.168,-2.376 6.336,-3.888 7.704,-5.616 v 24.192 z m -7.704,4.032 c -0.576,0.072 -1.152,0.144 -1.8,0.144 -3.528,0 -5.976,-3.6 -5.976,-7.344 0,-7.992 3.816,-12.384 7.776,-15.408 v -6.264 c -7.632,3.456 -18.144,7.776 -19.872,17.712 v 6.048 c 0.072,0.36 0.144,0.72 0.144,1.08 1.728,8.424 7.344,10.8 14.4,10.8 1.944,0 3.744,-0.432 5.328,-1.008 v -5.76 l 0,0 z m 0,-52.776 v 6.264 c -1.8,0.216 -7.128,1.584 -10.512,8.928 0,-7.776 0,-10.368 0,-10.368 3.24,-2.952 7.488,-4.248 10.512,-4.824 z"
   id="path11"
   inkscape:connector-curvature="0"
   style="fill:#ce181e;fill-rule:evenodd" />
	<path
   clip-rule="evenodd"
   d="m 169.848,412.992 v -31.896 c 0,-12.024 -8.496,-15.336 -15.912,-15.336 -8.856,0 -13.32,6.84 -14.688,10.152 v -31.896 c 0,-12.888 -6.696,-13.104 -10.008,-13.104 h -9.216 c 5.256,2.592 5.256,11.736 5.256,11.736 v 68.976 c 0,12.816 6.84,13.104 10.08,13.104 h 9.216 c -5.328,-2.664 -5.328,-11.736 -5.328,-11.736 v -31.896 c 2.592,-5.544 8.28,-5.544 8.28,-5.544 4.608,0 8.352,3.816 8.352,8.208 -0.072,11.664 -0.072,27.864 -0.072,27.864 0,12.816 6.84,13.104 10.152,13.104 h 9.216 c -5.328,-2.664 -5.328,-11.736 -5.328,-11.736 z"
   id="path13"
   inkscape:connector-curvature="0"
   style="fill:#ce181e;fill-rule:evenodd" />
	<path
   clip-rule="evenodd"
   d="m 351.432,412.776 v -33.84 c 0,-13.032 -6.84,-13.032 -10.08,-13.032 h -9.216 c 5.328,2.304 5.328,11.592 5.328,11.592 v 34.632 c 0.216,12.312 6.768,12.6 9.936,12.6 h 9.288 c -5.256,-2.736 -5.256,-11.952 -5.256,-11.952 z"
   id="path15"
   inkscape:connector-curvature="0"
   style="fill:#ce181e;fill-rule:evenodd" />
	<path
   clip-rule="evenodd"
   d="m 341.784,362.52 c 3.888,0 6.984,-3.168 6.984,-6.984 0,-3.816 -3.096,-6.84 -6.984,-6.84 -4.032,0 -7.128,3.024 -7.128,6.84 0,3.816 3.096,6.984 7.128,6.984 z"
   id="path17"
   inkscape:connector-curvature="0"
   style="fill:#ce181e;fill-rule:evenodd" />
	<path
   clip-rule="evenodd"
   d="m 440.352,401.976 c 0,9.72 -3.888,17.568 -8.496,17.568 l -0.072,-0.072 v 4.968 l 0.144,0.072 c 11.016,0 19.872,-9.936 19.872,-22.104 0,-13.968 -8.856,-22.032 -19.872,-22.032 l -0.144,0.072 v 3.96 l 0.072,-0.072 c 4.608,0 8.496,7.92 8.496,17.64 z m -8.568,17.496 c -4.752,0 -8.496,-7.848 -8.496,-17.496 0,-9.648 3.744,-17.568 8.496,-17.568 v -3.96 c -10.8,0 -19.656,9.864 -19.656,21.96 0,14.688 8.856,22.032 19.656,22.032 v -4.968 z"
   id="path19"
   inkscape:connector-curvature="0"
   style="fill:#659941;fill-rule:evenodd" />
	<path
   clip-rule="evenodd"
   d="m 492.552,416.016 -0.072,-23.328 c 0.144,-1.08 1.944,-4.536 6.84,-4.536 2.808,0 5.904,2.88 5.904,6.192 v 20.664 c 0,9.72 5.112,9.864 7.56,9.864 h 6.984 c -3.96,-1.944 -3.96,-8.856 -3.96,-8.856 l -0.072,-23.328 c 0,-9.648 -6.84,-12.744 -11.52,-12.744 0,0 -8.928,0.216 -12.024,9.432 -1.44,-7.056 -7.128,-9.432 -11.232,-9.432 0,0 -8.856,0 -12.024,9.216 -0.432,-8.424 -7.632,-8.424 -7.632,-8.424 h -6.984 c 4.392,1.872 4.392,9 4.392,9 v 25.272 c 0,9.72 5.112,9.864 7.56,9.864 h 6.984 c -4.032,-1.944 -4.032,-8.856 -4.032,-8.856 l 0.072,-23.328 c 0.144,-1.08 1.872,-4.536 6.768,-4.536 2.808,0 5.904,2.88 5.904,6.192 v 20.664 c 0,9.72 5.112,9.864 7.632,9.864 h 6.984 c -4.032,-1.944 -4.032,-8.856 -4.032,-8.856 l 0,0 z m -0.072,-23.328 c 0,-0.072 0,-0.216 0,-0.288 0,0.072 0,0.216 0,0.288 z"
   id="path21"
   inkscape:connector-curvature="0"
   style="fill:#659941;fill-rule:evenodd" />
	<path
   clip-rule="evenodd"
   d="m 369.648,424.584 c 3.96,0 7.128,-3.168 7.128,-6.984 0,-3.888 -3.168,-6.84 -7.128,-6.84 -3.888,0 -6.984,2.952 -6.984,6.84 0,3.816 3.096,6.984 6.984,6.984 z"
   id="path23"
   inkscape:connector-curvature="0"
   style="fill:#659941;fill-rule:evenodd" />
	<path
   clip-rule="evenodd"
   d="m 310.752,414.936 c -2.376,2.592 -4.32,3.24 -5.184,3.6 -1.512,0.36 -2.88,0.576 -4.104,0.504 v 6.192 c 0.72,-0.144 6.192,-1.584 9.576,-7.56 0.36,3.168 1.44,6.048 3.96,7.056 h 15.408 c -4.896,-3.168 -5.76,-9.504 -5.76,-11.592 v -20.088 -13.32 l 0,0 v -35.64 c 0,-12.96 -6.696,-12.816 -10.008,-12.816 h -9.216 c 5.328,2.232 5.328,11.376 5.328,11.376 v 27.72 c -2.736,-3.816 -7.992,-4.32 -9.288,-4.32 v 5.4 c 1.656,0.216 6.696,1.368 9.288,8.568 0,0.504 0,1.008 0,1.512 0,0.504 0,1.008 0,1.44 0,0.504 0,0.936 0,1.44 0,0.432 0,0.864 0,1.368 0,0.432 0,0.864 0,1.296 0,0.432 0,0.864 0,1.296 0,0.36 0,0.792 0,1.224 0,0.432 0,0.864 0,1.224 0,0.36 0,0.792 0,1.152 0,0.36 0,0.792 0,1.152 0,0.36 0,0.72 0,1.08 0,0.432 0,0.792 0,1.08 0,0.36 0,0.72 0,1.08 0,0.288 0,0.648 0,1.008 0,0.288 0,0.576 0,0.936 0,0.36 0,0.648 0,0.936 0,0.288 0,0.576 0,0.936 0,0.288 0,0.504 0,0.864 0,0.288 0,0.576 0,0.792 0,0.288 0,0.576 0,0.792 0,0.36 0,0.576 0,0.864 0,0.216 0,0.432 0,0.72 0,0.216 0,0.504 0,0.72 0,0.216 0,0.432 0,0.72 0,0.144 0,0.432 0,0.648 0,0.216 0,0.432 0,0.648 0,0.216 0,0.36 0,0.648 0,0.144 0,0.36 0,0.504 0,0.216 0,0.432 0,0.576 0,0.216 0,0.36 0,0.576 0,0.144 0,0.288 0,0.504 0,0.216 0,0.288 0,0.504 0,0.144 0,0.288 0,0.432 0,0.216 0,0.288 0,0.432 0,0.216 0,0.288 0,0.432 0,0.144 0,0.288 0,0.36 0,0.144 0,0.288 0,0.36 0,3.312 0,2.664 0,2.664 z m -9.288,4.104 c -10.008,-0.432 -9.288,-15.84 -9.288,-21.168 0,-11.088 0.072,-26.496 8.784,-26.496 0,0 0.216,0.072 0.504,0.072 v -5.4 c -0.144,0 -0.288,-0.072 -0.288,-0.072 -13.536,0 -24.192,12.888 -24.192,31.896 0,13.968 6.984,30.888 24.408,27.432 l 0.072,-0.072 v -6.192 z"
   id="path25"
   inkscape:connector-curvature="0"
   style="fill:#ce181e;fill-rule:evenodd" />
	<path
   clip-rule="evenodd"
   d="m 408.672,414.288 c -1.44,3.528 -5.688,5.472 -8.352,5.112 -5.184,-0.288 -7.704,-7.128 -7.776,-17.496 0,-9.648 1.224,-17.352 6.552,-17.352 2.592,-0.144 7.2,1.512 9.576,4.968 v -6.48 c -1.656,-0.936 -5.256,-2.376 -7.848,-2.664 -13.608,-1.224 -19.8,9.864 -19.8,22.032 0,14.688 8.784,22.968 19.8,22.032 2.448,-0.216 6.048,-1.296 7.848,-3.888 v -6.264 z"
   id="path27"
   inkscape:connector-curvature="0"
   style="fill:#659941;fill-rule:evenodd" />
</g>
</svg>