<svg width="137" height="30" fill="none" xmlns="http://www.w3.org/2000/svg"><path d="M8.8622 29.8946c-2.68504.079-5.35952-.3902-7.85993-1.3709L0 22.2496h.791268l.791272 1.4762c1.79354 3.5325 4.06184 5.0615 7.64892 5.0615 4.11454 0 6.48844-2.0562 6.48844-5.3778 0-3.0053-1.7408-4.4816-6.6467-6.2215C3.53433 15.29.738517 13.1283.738517 8.3304.738517 3.53251 5.11686 0 10.5502 0c3.3761 0 5.3807.474517 7.2269 1.21265l1.0551 6.48507h-.844l-.7386-1.529c-1.688-3.53252-3.798-5.11424-7.0159-5.11424-3.37605 0-5.38059 2.05624-5.38059 4.95606 0 2.89983 1.63529 4.37606 6.33019 5.95786 6.1191 2.0562 8.7039 4.3761 8.7039 9.1212 0 5.2724-5.0114 8.805-11.025 8.805zM34.6567 27.3624c-1.7408 1.4763-3.4816 2.478-5.6971 2.478-3.2706 0-5.0114-1.4762-5.0114-5.0087V11.2816h-3.0068v-.7909l3.2178-1.21265 3.2179-6.37961h1.3187v6.53778h5.4862v1.84538h-5.5389v13.4973c0 2.0035 1.0023 3.0053 2.5848 3.0053 1.0392.0211 2.052-.3322 2.8485-1.0018l.5803.58zM46.1576 29.9998c-5.9609 0-10.3392-3.7435-10.3392-10.7558 0-5.9578 4.2728-10.49205 10.3392-10.49205S56.4968 12.4954 56.4968 19.5077c-.0527 5.9051-4.3256 10.4921-10.3392 10.4921zm-.5803-20.19337c-2.9013 0-4.5366 2.21437-4.5366 8.22497 0 6.5905 2.1101 10.8611 5.6444 10.8611 2.9541 0 4.5366-2.2144 4.5366-8.2249.0528-6.5378-2.0573-10.86117-5.6444-10.86117zM81.6578 29.5253c-.9495 0-3.3761-.0528-5.2224-.0528-1.8463 0-4.2201.0528-5.2224.0528v-.6327l.7385-.1055c1.8463-.3163 2.1629-.8963 2.1629-4.6397v-8.0668c0-3.1107-1.3716-4.6397-3.7454-4.6397-1.5667.0105-3.0807.5694-4.2728 1.5817v11.1248c0 3.7434.2637 4.2707 2.1628 4.6397l.6857.1055v.6327c-1.0022 0-3.376-.0528-5.2223-.0528-1.8463 0-4.2729.0528-5.2224.0528v-.6327l.844-.1055c1.7408-.2636 2.0573-.8963 2.0573-5.0088v-8.8576c0-2.2144-.3692-2.8471-1.899-3.5325L58.5 10.9137v-.4746l7.1214-1.58168.5803.36907v2.84711c2.2683-1.8981 4.3256-3.21618 7.0159-3.21618 3.7981 0 5.8554 2.05628 5.8554 6.32688v8.594c0 4.1652.3165 4.6398 2.11 5.0088l.7385.1055v.6327h-.2637zM87.6733 17.4514v.2636c.1055 5.9051 3.2706 9.4376 7.4906 9.4376 2.3211 0 3.9564-.8435 5.6971-2.5834l.58.4218c-2.2152 3.058-5.0638 5.0087-8.7564 5.0087-5.3806 0-9.4424-3.7434-9.4424-10.0703 0-6.8541 5.1696-11.23018 10.1282-11.23018 5.4861 0 8.1236 3.05798 8.2816 8.69948l-13.9787.0527zm8.9677-1.1072c-.1055-4.2706-1.6881-6.48505-4.1146-6.48505-2.7958 0-4.5366 2.37255-4.8531 6.48505h8.9677zM131.562 29.524c-.739 0-4.431-.1054-5.856-.1054-1.529 0-6.119.1054-6.857.1054v-.5799l1.319-.2109c1.266-.2109 1.793-.5273 1.793-1.3181 0-.6327-.422-1.4763-1.319-2.8471l-4.589-7.0124-4.589 6.3269c-1.055 1.4763-1.53 2.5835-1.53 3.3744 0 .7908.475 1.3181 1.741 1.529l1.371.2109v.5799c-.738 0-4.009-.1054-5.486-.1054-1.477 0-3.798.1054-4.589.1054v-.5799l.685-.1055c1.847-.3163 3.588-1.898 4.959-3.6379l6.699-8.7522-6.593-9.64854c-1.53-2.26713-2.585-3.26889-4.221-3.58524l-.844-.15817v-.57996c.739 0 4.432.10544 5.856.10544 1.53 0 6.013-.10544 6.805-.10544v.57996l-1.319.2109c-1.108.15817-1.741.52724-1.741 1.3181 0 .63269.422 1.47627 1.319 2.8471l3.956 6.06325 3.851-5.37784c1.002-1.47627 1.53-2.58348 1.53-3.37434 0-.79086-.528-1.3181-1.741-1.529l-1.371-.21089v-.57997c.738 0 4.009.10545 5.486.10545 1.477 0 3.798-.10545 4.589-.10545v.57997l-.686.10545c-1.846.31634-3.534 1.73989-4.958 3.63796l-5.961 7.75046 7.227 10.5448c1.53 2.2671 2.585 3.2689 4.22 3.5852l.844.1582v.6854zM135.727 2.26187c.254.14235.459.35325.602.60105.295.52724.295 1.17048 0 1.69772-.143.25307-.354.4587-.607.60633-.527.29525-1.171.29525-1.698 0-.254-.14236-.465-.35326-.607-.60633-.296-.52724-.296-1.17047 0-1.70299.142-.2478.353-.4587.601-.60105.528-.29526 1.177-.29526 1.704 0l.005.00527zm-.11 2.72583c.216-.12653.4-.30579.522-.52724.126-.22671.195-.48506.19-.74868 0-.25835-.064-.51669-.19-.74341-.122-.22144-.306-.4007-.522-.52724-.459-.25835-1.024-.25835-1.483 0-.221.12654-.401.3058-.527.52724-.127.22672-.195.48506-.19.74341 0 .26362.063.52197.19.74868.126.22145.306.40071.527.52724.459.25835 1.024.25835 1.483 0zm-.169-.89103l.364.60632h-.385l-.37-.63796c-.031-.05272-.068-.0949-.121-.12126-.053-.02636-.111-.03691-.169-.03691h-.248v.79086h-.343V2.72057h.829c.184-.01055.364.04218.506.1529.216.22144.237.56942.048.81195-.101.10545-.233.17399-.375.18981.111.0369.206.11599.264.21617v.00527zm-.195-.53252c.068-.06326.1-.14762.095-.23725.01-.09491-.027-.18454-.095-.24781-.085-.05799-.19-.08436-.291-.07908h-.443v.64323h.443c.106.01055.206-.02109.291-.07909z" fill="#040C17"/></svg>