<svg id="symbotic" xmlns="http://www.w3.org/2000/svg" width="205" height="44" viewBox="0 0 205 44">
  <path id="Path_20525" data-name="Path 20525" d="M115.647,11.96a8.661,8.661,0,0,0-6.12-2.21,9.084,9.084,0,0,0-7.805,3.944,7.828,7.828,0,0,0-7.278-3.943H86.551v0h-3.76L76.336,28.734,69.83,9.749H69.5l-.007-.015H60.63c-5.109,0-8.723,2.325-8.723,6.65,0,3.94,2.458,5.957,7.085,6.34l3.9.337c2.794.24,3.95,1.346,3.95,3.462,0,2.785-2.36,4.181-6.311,4.181H52.756l-2.7,2.964,10.527.015c5.781,0,9.637-2.641,9.637-7.21,0-4.467-2.843-6.006-6.986-6.39l-3.713-.336c-2.938-.288-4.239-1.345-4.239-3.46,0-2.45,1.83-3.62,5.3-3.62l6.558-.012,7.46,20.26-1.685,4.614c-.772,2.161-1.493,2.929-3.9,2.929h-1.06l-2.194,3.079h3.687A6.519,6.519,0,0,0,74.069,41.9a6.9,6.9,0,0,0,1.687-2.79l9.465-25.746v20.03h3.471V12.829h4.98c3.565,0,5.83,2.114,5.83,6.292V33.4h3.471V18.74a5.532,5.532,0,0,1,5.925-5.912c3.568,0,5.831,2.114,5.831,6.292V33.4h3.47V18.546a8.8,8.8,0,0,0-2.553-6.585" fill="#78be20" fill-rule="evenodd"/>
  <path id="Path_20526" data-name="Path 20526" d="M197.059,28.544a3.985,3.985,0,0,1-3.418-1.566c-.926-1.148-1.345-2.805-1.345-5.34s.419-4.14,1.345-5.3a4.164,4.164,0,0,1,3.418-1.565,4.859,4.859,0,0,1,3.88,1.886L205,12.607a10.274,10.274,0,0,0-7.941-3.222c-4.8,0-10.761,2.543-10.761,12.254s5.96,12.29,10.76,12.29A10.31,10.31,0,0,0,205,30.663l-4.06-4a4.873,4.873,0,0,1-3.881,1.886M154.158,9.38a9.942,9.942,0,0,0-7.433,2.952c-2.169,2.3-2.722,4.974-2.722,9.3s.553,7.047,2.722,9.352a9.956,9.956,0,0,0,7.433,2.945,10.085,10.085,0,0,0,7.485-2.945c2.213-2.253,2.722-5.02,2.722-9.352s-.554-7-2.722-9.3a9.908,9.908,0,0,0-7.485-2.952m2.819,18.106a3.806,3.806,0,0,1-2.812,1.058,3.725,3.725,0,0,1-2.774-1.058c-1.249-1.2-1.384-3.363-1.384-5.854s.135-4.6,1.384-5.8a3.761,3.761,0,0,1,2.774-1.06,3.842,3.842,0,0,1,2.812,1.06c1.248,1.193,1.39,3.356,1.39,5.8s-.148,4.653-1.39,5.854m15.317-21.92h.013V4.773L166.3.695v26.1c0,3.408,2.08,6.86,6.97,6.86h3.27V28.59h-2.169c-1.436,0-2.079-.783-2.079-2.163V14.912h4.247V10.355h-4.247V5.567ZM133.751,9.11a7.076,7.076,0,0,0-5.825,2.394V5.566h.006v-.8l-6-4.077v32.69h5.818V31.124a7.251,7.251,0,0,0,6.005,2.53,8.048,8.048,0,0,0,5.817-2.164c2.3-2.349,2.491-6.078,2.491-10.14s-.186-7.728-2.49-10.077a8.008,8.008,0,0,0-5.818-2.163m-1.757,19.434c-3.6,0-4.062-3.035-4.062-6.911s.458-6.856,4.062-6.856,4.06,2.992,4.06,6.856-.457,6.911-4.06,6.911m46.312-18.189v23.3h6V12.907l-6-4.073v1.521Z" fill-rule="evenodd"/>
  <path id="Path_20527" data-name="Path 20527" d="M3.129,23.333A6.62,6.62,0,0,0,0,28.618c0,2.043,1.189,3.977,3.348,5.439L14.6,41.683A14.863,14.863,0,0,0,22.876,44a14.852,14.852,0,0,0,8.272-2.317l11.182-7.6c2.158-1.465,3.349-3.394,3.349-5.439s-1.19-3.974-3.349-5.438L22.85,9.949l-7.8,5.292L34.775,28.619,22.85,36.711,3.13,23.333Z" fill="#78be20" fill-rule="evenodd"/>
  <path id="Path_20528" data-name="Path 20528" d="M22.824,0a14.883,14.883,0,0,0-8.275,2.317L3.365,9.924C1.211,11.387.022,13.317.022,15.36A6.718,6.718,0,0,0,3.365,20.8L22.85,34.05l7.8-5.288L10.924,15.381l11.924-8.09L42.57,20.668A6.614,6.614,0,0,0,45.7,15.382c0-2.044-1.188-3.975-3.344-5.44L31.1,2.318A14.865,14.865,0,0,0,22.824,0M43.2,0a2.309,2.309,0,1,1-2.317,2.31A2.313,2.313,0,0,1,43.2,0Zm0,.517A1.742,1.742,0,0,0,41.433,2.31a1.766,1.766,0,1,0,3.531,0A1.742,1.742,0,0,0,43.2.517Zm.16.561a.778.778,0,0,1,.818.772.688.688,0,0,1-.454.65l.518,1.035h-.626l-.448-.95h-.262v.95h-.55V1.078Zm-.07.453h-.384v.638h.384a.32.32,0,1,0,0-.638Z" fill-rule="evenodd"/>
</svg>
