<svg xmlns="http://www.w3.org/2000/svg" width="180" viewBox="0 0 221.466 34.014">
    <g id="Group_409" data-name="Group 409" transform="translate(-10259.163 -4519.918)">
      <path id="Path_661" data-name="Path 661"
        d="M11.506-15.4v1.936H6.952V0H4.928V-13.464H.4V-15.4Zm7.3,4.114a4.09,4.09,0,0,1,3.1,1.221,4.6,4.6,0,0,1,1.166,3.311V0H21.164V-6.644a2.836,2.836,0,0,0-.726-2.079,2.682,2.682,0,0,0-2-.737,3.1,3.1,0,0,0-2.31.891,3.76,3.76,0,0,0-.88,2.739V0H13.332V-15.4h1.914v5.984A3.911,3.911,0,0,1,18.81-11.286ZM27.082-4.62a3.627,3.627,0,0,0,1.353,2.288,4.207,4.207,0,0,0,2.629.814,3.443,3.443,0,0,0,3.168-1.606L35.86-2.2A5.375,5.375,0,0,1,31.02.286a5.759,5.759,0,0,1-4.257-1.639A5.62,5.62,0,0,1,25.124-5.5,5.692,5.692,0,0,1,26.73-9.636a5.546,5.546,0,0,1,4.158-1.65,5.06,5.06,0,0,1,3.949,1.7,5.932,5.932,0,0,1,1.529,4.1,5.781,5.781,0,0,1-.066.858Zm3.806-4.862a3.779,3.779,0,0,0-2.552.869,3.762,3.762,0,0,0-1.254,2.321H34.43A3.666,3.666,0,0,0,33.2-8.668,3.528,3.528,0,0,0,30.888-9.482ZM53.834-15.4H55.88V0H54.23L46.31-11.506V0H44.264V-15.4h1.582L53.834-3.835ZM59.95-13a1.255,1.255,0,0,1-.924-.374,1.229,1.229,0,0,1-.374-.9,1.266,1.266,0,0,1,.374-.913,1.237,1.237,0,0,1,.924-.385,1.212,1.212,0,0,1,.9.385,1.266,1.266,0,0,1,.374.913,1.229,1.229,0,0,1-.374.9A1.229,1.229,0,0,1,59.95-13ZM58.982,0V-11H60.9V0Zm6.754-9.152A3.45,3.45,0,0,1,69.168-11.2v2a3.468,3.468,0,0,0-2.42.748A3.164,3.164,0,0,0,65.736-5.83V0H63.822V-11h1.914Zm13-1.848h2.068l-4.4,11H74.162l-4.4-11H71.83l3.454,8.931ZM91.1-11h1.914V0H91.1V-1.892A4.667,4.667,0,0,1,86.944.286,5.278,5.278,0,0,1,83.006-1.4a5.68,5.68,0,0,1-1.628-4.1,5.681,5.681,0,0,1,1.628-4.1,5.278,5.278,0,0,1,3.938-1.683A4.667,4.667,0,0,1,91.1-9.108ZM87.186-1.562A3.773,3.773,0,0,0,89.98-2.7,3.829,3.829,0,0,0,91.1-5.5,3.829,3.829,0,0,0,89.98-8.305a3.773,3.773,0,0,0-2.794-1.133,3.747,3.747,0,0,0-2.772,1.133A3.829,3.829,0,0,0,83.292-5.5a3.829,3.829,0,0,0,1.122,2.8A3.747,3.747,0,0,0,87.186-1.562ZM101.4-11.286a4.09,4.09,0,0,1,3.1,1.221,4.6,4.6,0,0,1,1.166,3.311V0h-1.914V-6.644a2.836,2.836,0,0,0-.726-2.079,2.682,2.682,0,0,0-2-.737,3.1,3.1,0,0,0-2.31.891,3.76,3.76,0,0,0-.88,2.739V0H95.92V-11h1.914v1.584A3.911,3.911,0,0,1,101.4-11.286ZM117.436-11h1.914V0h-1.914V-1.892A4.667,4.667,0,0,1,113.278.286,5.278,5.278,0,0,1,109.34-1.4a5.68,5.68,0,0,1-1.628-4.1,5.681,5.681,0,0,1,1.628-4.1,5.278,5.278,0,0,1,3.938-1.683,4.667,4.667,0,0,1,4.158,2.178ZM113.52-1.562A3.773,3.773,0,0,0,116.314-2.7a3.829,3.829,0,0,0,1.122-2.8,3.829,3.829,0,0,0-1.122-2.805,3.773,3.773,0,0,0-2.794-1.133,3.747,3.747,0,0,0-2.772,1.133A3.829,3.829,0,0,0,109.626-5.5a3.829,3.829,0,0,0,1.122,2.8A3.747,3.747,0,0,0,113.52-1.562ZM130-1.936h6.644V0h-8.69V-15.4H130ZM147.158-11h1.914V0h-1.914V-1.892A4.667,4.667,0,0,1,143,.286,5.278,5.278,0,0,1,139.062-1.4a5.68,5.68,0,0,1-1.628-4.1,5.68,5.68,0,0,1,1.628-4.1A5.278,5.278,0,0,1,143-11.286a4.667,4.667,0,0,1,4.158,2.178Zm-3.916,9.438A3.773,3.773,0,0,0,146.036-2.7a3.829,3.829,0,0,0,1.122-2.8,3.829,3.829,0,0,0-1.122-2.805,3.773,3.773,0,0,0-2.794-1.133,3.747,3.747,0,0,0-2.772,1.133A3.829,3.829,0,0,0,139.348-5.5a3.829,3.829,0,0,0,1.122,2.8A3.747,3.747,0,0,0,143.242-1.562Zm14.806-9.724A5.278,5.278,0,0,1,161.986-9.6a5.681,5.681,0,0,1,1.628,4.1,5.681,5.681,0,0,1-1.628,4.1A5.278,5.278,0,0,1,158.048.286a4.667,4.667,0,0,1-4.158-2.178V0h-1.914V-15.4h1.914v6.292A4.667,4.667,0,0,1,158.048-11.286Zm-.242,9.724A3.747,3.747,0,0,0,160.578-2.7,3.829,3.829,0,0,0,161.7-5.5a3.829,3.829,0,0,0-1.122-2.805,3.747,3.747,0,0,0-2.772-1.133,3.773,3.773,0,0,0-2.794,1.133A3.829,3.829,0,0,0,153.89-5.5a3.829,3.829,0,0,0,1.122,2.8A3.773,3.773,0,0,0,157.806-1.562Zm9.5-6.5a1.128,1.128,0,0,0,.648,1,7,7,0,0,0,1.544.64l1.8.53a3.162,3.162,0,0,1,1.536,1,2.784,2.784,0,0,1,.629,1.88,2.89,2.89,0,0,1-1.155,2.4,4.665,4.665,0,0,1-2.959.9,5.146,5.146,0,0,1-2.75-.7,3.936,3.936,0,0,1-1.628-1.87l1.65-.946a2.321,2.321,0,0,0,.99,1.254,3.169,3.169,0,0,0,1.738.462,3.043,3.043,0,0,0,1.562-.362,1.219,1.219,0,0,0,.616-1.131,1.156,1.156,0,0,0-.639-1.021,6.72,6.72,0,0,0-1.535-.653l-1.8-.541a3.347,3.347,0,0,1-1.545-.976,2.583,2.583,0,0,1-.638-1.8,2.928,2.928,0,0,1,1.111-2.354,4.206,4.206,0,0,1,2.783-.924,4.677,4.677,0,0,1,2.387.6A3.874,3.874,0,0,1,173.228-9l-1.606.9A2.3,2.3,0,0,0,169.268-9.5a2.465,2.465,0,0,0-1.386.376A1.2,1.2,0,0,0,167.31-8.063Z"
        transform="translate(10307.159 4544.533)" fill="#000000" />
      <g id="Group-100" transform="translate(10259.163 4519.918)">
        <path id="Path_563" data-name="Path 563"
          d="M496.357-829.905a39.449,39.449,0,0,0-2.9,4.8c-2.091,3.692-2.231,4.015-2.31,5.468-.079,1.6.122,2.178,1.811,5.17,1.338,2.353,1.811,3.088,2.047,3.141.1.026,1.006.035,2,.026l1.82-.026-1.846-3.228c-1.015-1.767-1.942-3.421-2.073-3.665a2.52,2.52,0,0,1-.175-1.837c.07-.227,1.338-2.511,2.808-5.083s2.677-4.724,2.677-4.776A20.4,20.4,0,0,0,496.357-829.905Z"
          transform="translate(-485.527 830.001)" fill="#000000" />
        <path id="Path_564" data-name="Path 564"
          d="M575.78-806.88a6.34,6.34,0,0,0-4.26,3.333c-1.006,1.671-2.519,4.435-2.519,4.6,0,.21.193.577,1.12,2.2.595,1.05.761,1.277.849,1.181.052-.061.744-1.233,1.531-2.607,2.6-4.514,2.659-4.619,3.368-5.03l.35-.2,5.756-.079,5.756-.07-.919-1.6a15.418,15.418,0,0,0-1.076-1.732A96.9,96.9,0,0,0,575.78-806.88Z"
          transform="translate(-556.578 809.024)" fill="#000000" />
        <path id="Path_565" data-name="Path 565"
          d="M649.677-734.465c-.56.044-.621.079-.849.359-.227.3-1.828,2.992-1.828,3.088,0,.026,1.9.061,4.225.079,4.077.026,4.225.035,4.61.21a2.394,2.394,0,0,1,1.094,1c.131.21,1.286,2.2,2.563,4.409s2.441,4.243,2.589,4.5c.21.35.289.429.367.35.052-.061.481-.8.945-1.618a8.092,8.092,0,0,0,.84-1.776c0-.245-1.846-3.569-3.858-6.972a6.861,6.861,0,0,0-2.887-2.992c-1.172-.569-1.583-.621-4.584-.656C651.462-734.509,650.009-734.5,649.677-734.465Z"
          transform="translate(-627.754 742.855)" fill="#000000" />
        <path id="Path_566" data-name="Path 566"
          d="M428.338-696.129A11.755,11.755,0,0,0,427-693.513c0,.2,1.767,3.377,3.788,6.815a6.921,6.921,0,0,0,2.957,3.132c1.3.63,1.47.647,5.065.656a22.613,22.613,0,0,0,3.368-.087,29.73,29.73,0,0,0,2.056-3.377c0-.035-1.9-.061-4.208-.061h-4.217l-.464-.262a3.169,3.169,0,0,1-.691-.542c-.28-.332-1.032-1.592-3.587-6.019-1.094-1.9-2.038-3.525-2.1-3.613C428.872-697.012,428.8-696.925,428.338-696.129Z"
          transform="translate(-427 708.568)" fill="#000000" />
        <path id="Path_567" data-name="Path 567"
          d="M676.7-654.633c1.96,3.42,3.779,6.657,3.867,6.928a2.511,2.511,0,0,1-.035,1.6c-.1.236-1.373,2.528-2.843,5.1L675-636.323l1.828.026a15.734,15.734,0,0,0,2.038-.061c.227-.087,1.207-1.68,3.211-5.223,1.951-3.473,2.108-3.867,2.108-5.38a5.318,5.318,0,0,0-.744-2.834c-.63-1.286-2.607-4.733-2.852-5-.193-.21-.2-.21-2.152-.21h-1.96Z"
          transform="translate(-653.305 670.309)" fill="#000000" />
        <path id="Path_568" data-name="Path 568"
          d="M502.824-591.705c-1.041,1.82-2.021,3.482-2.178,3.7a3.15,3.15,0,0,1-.8.7l-.525.306-5.712.044-5.713.044.884,1.5a19.571,19.571,0,0,0,1.094,1.732l.219.236,4.873-.035c4.645-.026,4.908-.035,5.406-.2a6.18,6.18,0,0,0,3.079-2.187c.385-.525,2.467-4.059,2.992-5.091a1.842,1.842,0,0,0,.184-.6,22.379,22.379,0,0,0-1.793-3.333C504.749-594.994,504.364-594.382,502.824-591.705Z"
          transform="translate(-482.572 615.474)" fill="#000000" />
      </g>
    </g>
  </svg>