<?xml version="1.0" standalone="no"?>
<!DOCTYPE svg PUBLIC "-//W3C//DTD SVG 20010904//EN"
 "http://www.w3.org/TR/2001/REC-SVG-20010904/DTD/svg10.dtd">
<svg version="1.0" xmlns="http://www.w3.org/2000/svg"
 width="400.000000pt" height="400.000000pt" viewBox="0 0 400.000000 400.000000"
 preserveAspectRatio="xMidYMid meet">

<g transform="translate(0.000000,400.000000) scale(0.100000,-0.100000)"
fill="#000000" stroke="none">
<path d="M2464 2554 c-7 -26 -44 -34 -44 -10 0 20 -14 28 -35 20 -10 -4 -15
-14 -12 -25 8 -28 -19 -45 -39 -24 -15 14 -19 15 -31 2 -12 -12 -13 -19 -4
-36 15 -28 5 -44 -24 -38 -18 3 -24 -1 -28 -19 -3 -17 2 -24 20 -28 30 -8 30
-34 -1 -46 -34 -13 -25 -52 11 -46 28 6 41 -17 23 -39 -10 -13 -9 -19 6 -36
24 -27 72 -52 84 -44 6 3 10 1 10 -4 0 -19 74 -11 126 13 85 40 131 124 114
213 -8 43 -32 94 -53 111 -15 13 -47 6 -47 -9 0 -4 -7 -6 -15 -3 -8 4 -15 18
-15 34 0 38 -37 49 -46 14z m47 -78 c45 -19 63 -114 32 -167 -21 -35 -83 -62
-121 -52 -27 6 -90 41 -84 45 2 2 -1 16 -7 31 -6 16 -11 35 -11 43 0 13 37 94
43 94 1 0 20 6 41 14 37 13 60 11 107 -8z"/>
<path d="M2938 2555 c-14 -30 -38 -33 -45 -4 -7 27 -48 22 -48 -6 0 -36 -15
-49 -34 -31 -15 14 -20 14 -37 2 -15 -12 -17 -17 -6 -27 6 -7 12 -22 12 -32 0
-15 -5 -18 -24 -15 -30 6 -36 -6 -36 -75 0 -69 31 -123 92 -160 25 -16 64 -31
86 -34 109 -15 222 88 222 202 0 77 -62 172 -95 145 -21 -17 -45 -5 -45 24 0
34 -28 42 -42 11z m18 -95 c19 0 54 -59 54 -92 0 -38 -38 -78 -81 -84 -51 -9
-99 33 -99 86 0 60 49 107 98 94 8 -2 20 -4 28 -4z"/>
<path d="M3328 2565 c-78 -29 -137 -110 -138 -188 0 -111 98 -208 208 -206 87
1 181 85 195 173 14 89 -49 189 -141 220 -54 19 -75 19 -124 1z m107 -184 c10
-40 -44 -68 -73 -39 -33 33 10 100 49 75 10 -6 21 -22 24 -36z"/>
<path d="M3601 2094 c-18 -47 -30 -88 -27 -91 3 -4 11 8 17 25 10 28 15 32 49
32 32 0 39 -4 50 -30 7 -16 16 -30 21 -30 8 0 2 19 -46 138 -9 23 -20 42 -24
42 -4 0 -22 -39 -40 -86z m53 -12 c-35 -8 -41 2 -26 38 l15 35 12 -35 c10 -29
10 -36 -1 -38z"/>
<path d="M3754 2090 c0 -52 1 -74 3 -47 2 26 2 68 0 95 -2 26 -3 4 -3 -48z"/>
<path d="M3310 2031 c-119 -39 -183 -143 -183 -301 0 -101 12 -149 52 -212 80
-126 240 -144 342 -38 62 63 84 127 84 245 0 135 -41 227 -125 280 -42 27
-128 40 -170 26z m138 -55 c36 -19 65 -52 93 -106 32 -62 33 -221 2 -291 -27
-59 -92 -115 -144 -123 -153 -24 -257 126 -228 330 18 131 87 204 192 204 32
0 70 -6 85 -14z"/>
<path d="M230 2010 c0 -19 7 -20 115 -20 l115 0 0 -285 0 -285 25 0 25 0 0
285 0 285 120 0 c113 0 120 1 120 20 0 19 -7 20 -260 20 -253 0 -260 -1 -260
-20z"/>
<path d="M810 1725 l0 -305 25 0 c25 0 25 0 25 98 0 110 8 131 63 175 31 25
47 31 89 31 43 0 54 -4 74 -28 22 -25 24 -35 24 -152 l0 -124 25 0 25 0 0 120
c0 100 -3 127 -20 159 -37 74 -127 91 -224 43 l-56 -29 0 159 0 158 -25 0 -25
0 0 -305z"/>
<path d="M1870 1725 l0 -305 25 0 c24 0 25 3 25 53 0 43 5 58 23 74 40 36 43
35 108 -47 53 -67 68 -80 92 -80 22 0 27 3 20 13 -5 6 -40 50 -78 97 l-67 85
78 72 c67 62 76 73 65 87 -16 19 -30 8 -152 -110 -42 -41 -79 -74 -83 -74 -3
0 -6 99 -6 220 l0 220 -25 0 -25 0 0 -305z"/>
<path d="M2280 2010 c0 -19 7 -20 115 -20 l115 0 -89 -117 c-84 -110 -101
-150 -53 -124 59 32 172 -1 192 -55 16 -42 12 -126 -9 -164 -21 -39 -89 -80
-133 -80 -36 0 -89 22 -107 44 -10 12 -17 14 -27 5 -22 -18 -17 -28 33 -59 87
-56 202 -32 259 53 23 34 29 56 32 113 7 118 -41 183 -141 194 l-49 5 81 107
c45 59 81 110 81 113 0 3 -67 5 -150 5 -143 0 -150 -1 -150 -20z"/>
<path d="M2917 1976 c-135 -115 -197 -202 -219 -310 -20 -92 8 -169 79 -223
32 -24 45 -28 104 -28 60 0 71 3 105 30 53 43 74 88 74 158 0 71 -25 125 -77
164 -32 25 -45 28 -109 28 -61 0 -71 2 -64 15 10 19 135 138 175 167 28 19 29
22 14 38 -15 15 -21 12 -82 -39z m21 -230 c15 -8 38 -26 52 -41 22 -23 25 -36
25 -100 0 -68 -2 -76 -30 -105 -62 -65 -150 -65 -209 0 -54 61 -60 138 -15
202 38 53 120 73 177 44z"/>
<path d="M1270 1890 c0 -25 4 -30 25 -30 21 0 25 5 25 30 0 25 -4 30 -25 30
-21 0 -25 -5 -25 -30z"/>
<path d="M1272 1598 c3 -171 3 -173 26 -176 l22 -3 0 175 0 176 -25 0 -25 0 2
-172z"/>
<path d="M1440 1595 l0 -175 25 0 25 0 0 110 0 111 38 41 c34 36 45 42 94 46
47 4 58 1 84 -21 29 -25 29 -25 32 -156 l4 -131 24 0 24 0 0 118 c-1 189 -34
237 -159 230 -61 -3 -75 -8 -110 -36 l-41 -33 0 36 c0 28 -4 35 -20 35 -19 0
-20 -7 -20 -175z"/>
</g>
</svg>
