<svg width="174" height="50" viewBox="0 0 174 50" fill="none" xmlns="http://www.w3.org/2000/svg">
<g clip-path="url(#clip0_1118_328)">
<path d="M70.7337 42V16.6824H80.3045V12.6333H56.6638V16.6824H66.2346V42H70.7337Z" fill="#231F20"/>
<path d="M86.4413 30.9159C86.4413 26.1305 89.8361 24.0855 94.4987 24.3309V20.0363C90.9404 20.0363 87.6683 21.9177 86.155 24.9035V20.3226H82.3103V42H86.4413V30.9159ZM111.306 33.0836C111.306 36.4784 109.057 38.7688 106.275 38.7688C103.576 38.7688 101.694 37.2146 101.694 33.4517V20.3226H97.5634V34.2698C97.5634 39.8323 100.59 42.409 104.966 42.409C107.911 42.409 110.447 40.8139 111.592 38.5643V42H115.437V20.3226H111.306V33.0836Z" fill="#231F20"/>
<path d="M138.344 35.5377C138.344 32.4292 136.299 30.5478 132.004 29.7707L128.323 29.0754C125.706 28.5846 124.601 27.7665 124.601 26.0078C124.601 24.1264 126.36 23.0221 128.978 23.0221C131.882 23.0221 133.804 24.5354 134.05 27.153H138.017C137.649 22.6948 134.131 19.9136 128.937 19.9136C123.906 19.9136 120.593 22.5721 120.593 26.3759C120.593 29.648 122.843 31.693 126.851 32.4701L130.368 33.1245C133.068 33.6562 134.172 34.4334 134.172 36.233C134.172 38.278 132.25 39.3006 129.346 39.3006C126.033 39.3006 123.865 37.6236 123.702 34.9242H119.734C120.143 39.5869 123.538 42.409 129.264 42.409C135.031 42.409 138.344 39.7914 138.344 35.5377Z" fill="#231F20"/>
<path d="M154.786 37.9917C153.927 38.4007 153.068 38.5643 152.086 38.5643C149.878 38.5643 148.446 37.5009 148.446 34.5152V23.8401H154.99V20.3226H148.446V13.9012H144.315V20.3226H139.53V23.8401H144.315V35.4559C144.315 40.2413 147.096 42.409 151.105 42.409C152.413 42.409 153.518 42.2045 154.786 41.6319V37.9917Z" fill="#231F20"/>
<path d="M171.881 37.9917C171.023 38.4007 170.164 38.5643 169.182 38.5643C166.973 38.5643 165.542 37.5009 165.542 34.5152V23.8401H172.086V20.3226H165.542V13.9012H161.411V20.3226H156.625V23.8401H161.411V35.4559C161.411 40.2413 164.192 42.409 168.2 42.409C169.509 42.409 170.614 42.2045 171.881 41.6319V37.9917Z" fill="#231F20"/>
<path d="M5.74501 0.727295H43.2599C44.7832 0.728207 46.2438 1.33374 47.3209 2.41087C48.3981 3.488 49.0036 4.94865 49.0045 6.47195V43.9868C49.0036 45.5101 48.3981 46.9707 47.3209 48.0479C46.2438 49.125 44.7832 49.7305 43.2599 49.7315H5.74501C4.22171 49.7305 2.76107 49.125 1.68394 48.0479C0.606803 46.9707 0.00126735 45.5101 0.000355738 43.9868V6.47195C-0.0349139 3.31918 2.55698 0.727295 5.74501 0.727295Z" fill="#231F20"/>
<path d="M29.7618 31.3345C30.8936 30.8496 31.8684 30.0598 32.5774 29.0531C33.4551 27.767 33.8257 26.2016 33.6178 24.6585C33.4099 23.1154 32.6381 21.7039 31.4513 20.6959C30.2952 19.7179 28.7846 19.2138 27.2732 19.2138H18.916C18.9121 19.2136 18.9082 19.2143 18.9046 19.2157C18.901 19.2172 18.8978 19.2193 18.895 19.2221C18.8923 19.2248 18.8901 19.2281 18.8887 19.2317C18.8873 19.2353 18.8866 19.2391 18.8867 19.243V37.646H22.0877V31.6003H26.0293L30.3562 37.646H34.2385C34.2385 37.646 34.2677 37.6168 34.2385 37.6168L29.7653 31.3371L29.7618 31.3345ZM28.1652 28.2789C28.004 28.3387 27.8331 28.3679 27.6611 28.3649C27.5751 28.3649 27.4831 28.3942 27.3643 28.3942H22.1436V22.4138H27.1226C28.6048 22.4138 29.9382 23.1252 30.3236 24.4887C30.832 26.1189 29.7919 27.8075 28.1652 28.2789Z" fill="white"/>
<path d="M42.0636 37.6169H38.1521L33.7958 31.5419C35.7219 30.0012 36.8479 27.6304 36.8479 24.9035C36.8479 20.1911 32.9949 16.0129 28.2834 16.0129H15.718V37.6169H12.5171V16.0129H6.94531V12.812H29.4387C32.521 12.812 34.7438 14.2942 36.7585 16.3089C38.711 18.264 39.868 20.8745 40.005 23.6342C40.142 26.394 39.2493 29.1062 37.5 31.2451C37.7073 31.5419 40.4042 35.3054 42.0636 37.6169Z" fill="white"/>
</g>
<defs>
<clipPath id="clip0_1118_328">
<rect width="174" height="50" fill="white"/>
</clipPath>
</defs>
</svg>
