<?xml version="1.0" encoding="UTF-8"?>
<!DOCTYPE svg PUBLIC "-//W3C//DTD SVG 1.1//EN" "http://www.w3.org/Graphics/SVG/1.1/DTD/svg11.dtd">
<svg xmlns="http://www.w3.org/2000/svg" version="1.1" width="225px" height="225px" style="shape-rendering:geometricPrecision; text-rendering:geometricPrecision; image-rendering:optimizeQuality; fill-rule:evenodd; clip-rule:evenodd" xmlns:xlink="http://www.w3.org/1999/xlink">
<g><path style="opacity:1" fill="#fefefe" d="M -0.5,-0.5 C 74.5,-0.5 149.5,-0.5 224.5,-0.5C 224.5,74.5 224.5,149.5 224.5,224.5C 149.5,224.5 74.5,224.5 -0.5,224.5C -0.5,149.5 -0.5,74.5 -0.5,-0.5 Z"/></g>
<g><path style="opacity:1" fill="#0b8163" d="M 206.5,92.5 C 206.5,93.5 206.5,94.5 206.5,95.5C 203.5,95.5 200.5,95.5 197.5,95.5C 193.833,95.5 190.167,95.5 186.5,95.5C 186.755,90.8291 189.089,87.6625 193.5,86C 197.821,85.501 202.154,85.3343 206.5,85.5C 206.5,87.8333 206.5,90.1667 206.5,92.5 Z"/></g>
<g><path style="opacity:1" fill="#1eb985" d="M 206.5,95.5 C 206.5,94.5 206.5,93.5 206.5,92.5C 213.288,83.8698 216.288,84.8698 215.5,95.5C 212.5,95.5 209.5,95.5 206.5,95.5 Z"/></g>
<g><path style="opacity:1" fill="#2ee698" d="M 197.5,95.5 C 200.5,95.5 203.5,95.5 206.5,95.5C 207.98,103.234 204.98,107.901 197.5,109.5C 197.5,104.833 197.5,100.167 197.5,95.5 Z"/></g>
<g><path style="opacity:1" fill="#2ebc8a" d="M 145.5,101.5 C 150.159,101.015 151.492,102.848 149.5,107C 144.728,107.81 143.395,105.977 145.5,101.5 Z"/></g>
<g><path style="opacity:1" fill="#37bd8c" d="M 76.5,103.5 C 78.1667,103.5 79.8333,103.5 81.5,103.5C 81.5,113.167 81.5,122.833 81.5,132.5C 79.8561,132.714 78.3561,132.38 77,131.5C 76.5002,122.173 76.3335,112.839 76.5,103.5 Z"/></g>
<g><path style="opacity:1" fill="#25ba87" d="M 16.5,104.5 C 17.5,104.5 18.5,104.5 19.5,104.5C 19.5,106.5 19.5,108.5 19.5,110.5C 20.5,110.5 21.5,110.5 22.5,110.5C 22.5,111.833 22.5,113.167 22.5,114.5C 21.5,114.5 20.5,114.5 19.5,114.5C 19.2665,120.308 19.9332,125.974 21.5,131.5C 18.4532,132.145 16.2865,131.145 15,128.5C 14.5008,123.845 14.3342,119.179 14.5,114.5C 13.5,114.5 12.5,114.5 11.5,114.5C 11.5,113.167 11.5,111.833 11.5,110.5C 12.5,110.5 13.5,110.5 14.5,110.5C 14.2587,108.114 14.9254,106.114 16.5,104.5 Z"/></g>
<g><path style="opacity:1" fill="#2ebc8a" d="M 67.5,104.5 C 68.5,104.5 69.5,104.5 70.5,104.5C 70.5,106.5 70.5,108.5 70.5,110.5C 71.8333,110.5 73.1667,110.5 74.5,110.5C 74.5,111.833 74.5,113.167 74.5,114.5C 73.1667,114.5 71.8333,114.5 70.5,114.5C 70.5,118.833 70.5,123.167 70.5,127.5C 71.5,127.5 72.5,127.5 73.5,127.5C 73.5,128.833 73.5,130.167 73.5,131.5C 70.3484,132.041 67.8484,131.041 66,128.5C 65.5008,123.845 65.3342,119.179 65.5,114.5C 64.5,114.5 63.5,114.5 62.5,114.5C 62.5,113.167 62.5,111.833 62.5,110.5C 63.5,110.5 64.5,110.5 65.5,110.5C 65.2587,108.114 65.9254,106.114 67.5,104.5 Z"/></g>
<g><path style="opacity:1" fill="#2dbb89" d="M 178.5,104.5 C 179.833,104.5 181.167,104.5 182.5,104.5C 182.5,106.167 182.5,107.833 182.5,109.5C 183.5,109.5 184.5,109.5 185.5,109.5C 185.5,111.167 185.5,112.833 185.5,114.5C 184.5,114.5 183.5,114.5 182.5,114.5C 182.266,120.308 182.933,125.974 184.5,131.5C 181.956,131.896 179.789,131.229 178,129.5C 177.501,124.511 177.334,119.511 177.5,114.5C 176.5,114.5 175.5,114.5 174.5,114.5C 174.5,113.167 174.5,111.833 174.5,110.5C 175.5,110.5 176.5,110.5 177.5,110.5C 177.325,108.379 177.659,106.379 178.5,104.5 Z"/></g>
<g><path style="opacity:1" fill="#24ba87" d="M 25.5,109.5 C 27.1439,109.286 28.6439,109.62 30,110.5C 30.3333,115.5 30.6667,120.5 31,125.5C 33.5867,128.034 36.2533,128.034 39,125.5C 39.3333,120.5 39.6667,115.5 40,110.5C 41.3561,109.62 42.8561,109.286 44.5,109.5C 44.5,116.833 44.5,124.167 44.5,131.5C 42.549,131.773 41.049,131.107 40,129.5C 34.0828,134.181 29.4161,133.181 26,126.5C 25.5006,120.843 25.3339,115.176 25.5,109.5 Z"/></g>
<g><path style="opacity:1" fill="#32bc8b" d="M 55.5,109.5 C 59.938,108.425 61.938,110.092 61.5,114.5C 58.8806,114.232 56.3806,114.565 54,115.5C 52.5962,121.044 52.0962,126.71 52.5,132.5C 50.8561,132.714 49.3561,132.38 48,131.5C 47.5004,124.508 47.3337,117.508 47.5,110.5C 49.4672,110.261 51.3005,110.594 53,111.5C 53.9947,110.934 54.828,110.267 55.5,109.5 Z"/></g>
<g><path style="opacity:1" fill="#27ba88" d="M 91.5,109.5 C 101.26,108.604 106.26,112.937 106.5,122.5C 100.794,122.171 95.1278,122.505 89.5,123.5C 89.968,125.134 90.968,126.3 92.5,127C 95.877,127.369 99.2103,127.369 102.5,127C 103.727,128.587 103.394,129.921 101.5,131C 89.7014,134.185 84.2014,129.685 85,117.5C 86.3046,114.039 88.4713,111.372 91.5,109.5 Z"/></g>
<g><path style="opacity:1" fill="#2abb88" d="M 117.5,109.5 C 120.972,109.126 123.972,110.126 126.5,112.5C 132.14,108.025 136.973,108.691 141,114.5C 141.499,120.491 141.666,126.491 141.5,132.5C 139.856,132.714 138.356,132.38 137,131.5C 136.667,126.5 136.333,121.5 136,116.5C 133.667,113.833 131.333,113.833 129,116.5C 128.667,121.5 128.333,126.5 128,131.5C 126.644,132.38 125.144,132.714 123.5,132.5C 123.666,127.489 123.499,122.489 123,117.5C 120.822,113.935 118.156,113.601 115,116.5C 114.501,121.489 114.334,126.489 114.5,131.5C 112.833,131.5 111.167,131.5 109.5,131.5C 109.5,124.5 109.5,117.5 109.5,110.5C 111.451,110.227 112.951,110.893 114,112.5C 115.145,111.364 116.312,110.364 117.5,109.5 Z"/></g>
<g><path style="opacity:1" fill="#35bd8c" d="M 145.5,110.5 C 147.167,110.5 148.833,110.5 150.5,110.5C 150.666,117.508 150.5,124.508 150,131.5C 148.644,132.38 147.144,132.714 145.5,132.5C 145.5,125.167 145.5,117.833 145.5,110.5 Z"/></g>
<g><path style="opacity:1" fill="#23b987" d="M 161.5,109.5 C 165.803,108.796 169.303,110.13 172,113.5C 173.41,119.379 173.91,125.379 173.5,131.5C 171.833,131.5 170.167,131.5 168.5,131.5C 168.666,126.821 168.499,122.155 168,117.5C 165,113.5 162,113.5 159,117.5C 158.501,122.489 158.334,127.489 158.5,132.5C 156.833,132.5 155.167,132.5 153.5,132.5C 153.5,125.167 153.5,117.833 153.5,110.5C 155.591,110.318 157.591,110.652 159.5,111.5C 160.522,111.145 161.189,110.478 161.5,109.5 Z"/></g>
<g><path style="opacity:1" fill="#f9fcfb" d="M 92.5,114.5 C 94.8568,114.337 97.1902,114.503 99.5,115C 100.357,115.689 101.023,116.522 101.5,117.5C 97.5411,118.66 93.5411,118.827 89.5,118C 90.7101,116.961 91.7101,115.794 92.5,114.5 Z"/></g>
</svg>
