<?xml version="1.0" encoding="UTF-8"?>
<svg version="1.1" xmlns="http://www.w3.org/2000/svg" width="450" height="195">
<path d="M0 0 C0.74967816 -0.00406073 1.49935632 -0.00812145 2.271752 -0.01230523 C4.79810022 -0.02229596 7.32389873 -0.01079837 9.85023499 0.00050831 C11.67400056 -0.00223073 13.49776456 -0.00628148 15.32152462 -0.01153535 C20.34432197 -0.02215382 25.36694218 -0.01397275 30.38973188 -0.00278485 C35.80220291 0.00603548 41.21465022 -0.00238007 46.62712097 -0.00864697 C57.23458122 -0.01814968 67.84197358 -0.01152224 78.4494288 0.00061598 C90.7934364 0.01421673 103.13742771 0.01259982 115.4814409 0.01048265 C137.50127751 0.00729061 159.52108179 0.01897279 181.54090881 0.03854847 C202.92438254 0.05755353 224.30781787 0.06463628 245.69129944 0.05905628 C268.95749408 0.05300298 292.22367205 0.05316732 315.4898653 0.06454211 C317.96921094 0.06574945 320.44855658 0.06695543 322.92790222 0.06816006 C324.14789616 0.0687636 325.3678901 0.06936713 326.62485355 0.06998896 C335.23618663 0.07387369 343.84751351 0.07347234 352.45884705 0.07157421 C362.94831194 0.06945542 373.4377436 0.07465228 383.92719913 0.08918776 C389.28254192 0.09644778 394.63783622 0.10049512 399.99318314 0.0959444 C404.89072398 0.09188384 409.78816447 0.09698811 414.68569005 0.10957048 C416.46220898 0.11251119 418.23873731 0.11204696 420.0152539 0.1079274 C422.42102666 0.10285305 424.82645944 0.10996479 427.23220825 0.12025452 C427.92967749 0.11585803 428.62714673 0.11146155 429.3457514 0.10693184 C432.93927877 0.13641376 435.55641626 0.41762147 438.61610413 2.37473011 C438.64076035 6.62887634 438.65894311 10.88298509 438.67103577 15.13718128 C438.67607514 16.58543084 438.68290666 18.03367528 438.69154358 19.48190784 C438.7036266 21.55947599 438.70933624 23.63697708 438.71376038 25.71457386 C438.7216156 27.59197254 438.7216156 27.59197254 438.72962952 29.50729847 C438.61610413 32.37473011 438.61610413 32.37473011 437.61610413 33.37473011 C435.23435972 33.47439161 432.88157626 33.5083627 430.49926758 33.50057125 C429.74202192 33.50202469 428.98477626 33.50347813 428.20458376 33.50497562 C425.63462504 33.50866216 423.06472465 33.50513701 420.49476624 33.50171375 C418.646705 33.50286453 416.79864398 33.50445175 414.95058346 33.506441 C409.84686221 33.51064035 404.7431595 33.50854091 399.63943815 33.50545478 C394.14517811 33.50320335 388.65092138 33.506679 383.15666199 33.5094347 C372.38338034 33.51389416 361.61010563 33.51291515 350.8368237 33.51002206 C342.085424 33.50776871 333.33402625 33.5074552 324.58262634 33.50854588 C323.33968872 33.50869911 322.0967511 33.50885234 320.8161487 33.50901022 C318.29157996 33.50932993 315.76701122 33.50965414 313.24244249 33.50998281 C290.21537282 33.51275663 267.18830645 33.50987429 244.16123758 33.50464021 C223.121777 33.49989429 202.08232247 33.50031891 181.04286194 33.5051012 C157.42733604 33.51045105 133.81181282 33.51256342 110.1962862 33.50948894 C107.6807181 33.50917037 105.16515001 33.508856 102.64958191 33.50854588 C100.79275336 33.50831446 100.79275336 33.50831446 98.89841312 33.50807837 C90.15195538 33.50721296 81.40549977 33.50867663 72.65904236 33.51102543 C62.00803411 33.51382266 51.35703324 33.5130868 40.70602584 33.50774468 C35.26602507 33.50510663 29.82603661 33.50410436 24.38603592 33.50739384 C19.41454532 33.51035467 14.44307857 33.50876758 9.47159016 33.50341628 C7.66475038 33.50229118 5.85790862 33.50288532 4.05107009 33.50529207 C1.61166421 33.50829434 -0.82765796 33.50525338 -3.26705933 33.50057125 C-3.98289322 33.50291242 -4.69872712 33.50525358 -5.43625295 33.50766569 C-10.26974553 33.48888045 -10.26974553 33.48888045 -11.38389587 32.37473011 C-11.64968427 28.27828942 -11.65511996 24.17828047 -11.67906189 20.07394886 C-11.69627096 18.01467721 -11.7401402 15.95701308 -11.7842865 13.89816761 C-11.79266541 12.60394886 -11.80104431 11.30973011 -11.80967712 9.97629261 C-11.82425964 8.7834264 -11.83884216 7.59056019 -11.85386658 6.36154652 C-11.38389587 3.37473011 -11.38389587 3.37473011 -9.8160162 1.71147472 C-6.5512164 -0.08292809 -3.62935456 -0.03803495 0 0 Z " fill="#A0D5CF" transform="translate(11.383895874023438,161.62526988983154)"/>
<path d="M0 0 C0.94166016 -0.02384766 1.88332031 -0.04769531 2.85351562 -0.07226562 C7.21777833 -0.06302583 9.74154383 -0.04708623 13.30859375 2.6015625 C14.42427734 4.06722656 14.42427734 4.06722656 15.5625 5.5625 C16.61383746 6.80362679 17.6688181 8.04167269 18.7265625 9.27734375 C19.88337483 10.68229457 21.03687777 12.08997516 22.1875 13.5 C22.80359131 14.25144287 23.41968262 15.00288574 24.05444336 15.77709961 C28.24101894 20.89968278 32.35693614 26.07319781 36.42358398 31.29125977 C42.02709886 38.46969328 47.80162864 45.51024094 53.5625 52.5625 C57.29808204 48.97419897 60.53960512 45.17826885 63.6875 41.0625 C67.3754481 36.30078197 71.14168071 31.6343259 75.0625 27.0625 C79.92395619 21.38570341 84.56373115 15.55490457 89.15234375 9.65625 C90.34537109 8.12484375 90.34537109 8.12484375 91.5625 6.5625 C92.28566406 5.6240625 93.00882812 4.685625 93.75390625 3.71875 C95.5625 1.5625 95.5625 1.5625 97.5625 0.5625 C101.03631658 0.32302359 104.51883814 0.37730999 108 0.375 C109.45116211 0.35663086 109.45116211 0.35663086 110.93164062 0.33789062 C112.32479492 0.33499023 112.32479492 0.33499023 113.74609375 0.33203125 C115.02311157 0.32586792 115.02311157 0.32586792 116.32592773 0.31958008 C118.5625 0.5625 118.5625 0.5625 121.5625 2.5625 C121.93723011 5.00505829 121.93723011 5.00505829 121.9367218 8.14245605 C121.94373611 9.32871078 121.95075043 10.51496552 121.95797729 11.73716736 C121.95033356 13.04528885 121.94268982 14.35341034 121.93481445 15.70117188 C121.93724139 17.08736952 121.94095976 18.47356542 121.94587708 19.85975647 C121.95530323 23.63040622 121.94584637 27.40079719 121.93254495 31.17142677 C121.92125155 35.1116402 121.92533631 39.05184048 121.92729187 42.99206543 C121.92817552 49.60982506 121.91707974 56.22748239 121.89868164 62.84521484 C121.8775129 70.50353694 121.8740037 78.16170911 121.8802436 85.82005453 C121.88593229 93.17770975 121.88029746 100.53531201 121.86907005 107.89295959 C121.86441748 111.02849809 121.86355305 114.16400427 121.8656559 117.29954529 C121.86753536 120.98984888 121.85946149 124.67999922 121.8435955 128.37026787 C121.83730778 130.37611297 121.8408667 132.38198128 121.84466553 134.38783264 C121.83758072 135.57408737 121.83049591 136.7603421 121.82319641 137.98254395 C121.82011711 139.53555584 121.82011711 139.53555584 121.81697559 141.11994171 C121.5625 143.5625 121.5625 143.5625 119.5625 145.5625 C115.60201178 146.01905797 111.6087619 145.88652042 107.625 145.875 C105.95920898 145.89916992 105.95920898 145.89916992 104.25976562 145.92382812 C103.19564453 145.92447266 102.13152344 145.92511719 101.03515625 145.92578125 C99.56961304 145.93025269 99.56961304 145.93025269 98.07446289 145.93481445 C95.08961638 145.49241083 94.41064979 144.88304561 92.5625 142.5625 C92.25253248 139.56686693 92.12506165 136.77495039 92.13012695 133.77661133 C92.11483948 132.42996147 92.11483948 132.42996147 92.09924316 131.05610657 C92.06902321 128.08551872 92.05983347 125.11525285 92.05078125 122.14453125 C92.03394124 120.08614523 92.01579193 118.02776954 91.99638367 115.96940613 C91.94880396 110.54923733 91.91904614 105.12911039 91.89294434 99.70880127 C91.86317902 94.17883027 91.81663489 88.64900362 91.77148438 83.11914062 C91.68536057 72.26700247 91.61805567 61.41483467 91.5625 50.5625 C89.51462756 53.07601193 87.46814073 55.59064868 85.421875 58.10546875 C84.85001465 58.807323 84.2781543 59.50917725 83.68896484 60.2322998 C80.01823724 64.74521207 76.39303416 69.29024064 72.8125 73.875 C60.48516142 89.63983858 60.48516142 89.63983858 57.5625 92.5625 C54.3125 92.9375 54.3125 92.9375 50.5625 92.5625 C46.41347091 88.92179566 43.01588083 84.60085691 39.5625 80.3125 C39.00506104 79.62373779 38.44762207 78.93497559 37.87329102 78.2253418 C32.11166955 71.06867412 26.53842549 63.76959588 21.00366211 56.43676758 C19.22183904 54.11946185 17.39066359 51.84334838 15.5625 49.5625 C15.55441315 50.73569794 15.54632629 51.90889587 15.53799438 53.11764526 C15.46063251 64.15422938 15.37291877 75.1906887 15.27497292 86.22710991 C15.22494888 91.90154432 15.17861953 97.57595956 15.140625 103.25048828 C15.10384918 108.72296873 15.05751056 114.19529106 15.00443649 119.66763687 C14.98585146 121.75927085 14.97075883 123.85093877 14.95915604 125.94262314 C14.94236368 128.86409577 14.91334613 131.785203 14.88134766 134.70654297 C14.87918747 135.57832184 14.87702728 136.45010071 14.87480164 137.34829712 C14.79060432 143.33439568 14.79060432 143.33439568 12.5625 145.5625 C8.60303109 146.04531258 4.61055689 145.93288975 0.625 145.9375 C-0.48552734 145.96199219 -1.59605469 145.98648438 -2.74023438 146.01171875 C-3.80435547 146.01558594 -4.86847656 146.01945313 -5.96484375 146.0234375 C-7.43038696 146.03576416 -7.43038696 146.03576416 -8.92553711 146.04833984 C-11.4375 145.5625 -11.4375 145.5625 -13.07026768 143.88558197 C-14.75811191 141.01774419 -14.81712994 139.22494191 -14.82518005 135.90734863 C-14.83508469 134.75489151 -14.84498932 133.60243439 -14.85519409 132.41505432 C-14.85069244 131.15466843 -14.8461908 129.89428253 -14.84155273 128.59570312 C-14.84725639 127.25186088 -14.85422063 125.90802348 -14.86235046 124.56419373 C-14.88029647 120.91751426 -14.87911103 117.27107522 -14.87340808 113.62436485 C-14.87031871 110.57999642 -14.87640577 107.53567434 -14.88244683 104.4913125 C-14.89649477 97.31008712 -14.89492818 90.12898069 -14.88354492 82.94775391 C-14.87205922 75.53813591 -14.88614609 68.12887966 -14.9129414 60.71930933 C-14.93508695 54.35740944 -14.94173851 47.9956232 -14.93586498 41.6336875 C-14.93249192 37.83403707 -14.93493353 34.03461864 -14.95211601 30.23500061 C-14.96756543 26.66273268 -14.96365268 23.09100152 -14.94481087 19.51875496 C-14.93935873 17.58247677 -14.95365374 15.64617459 -14.96850586 13.70994568 C-14.95867172 12.55748856 -14.94883759 11.40503143 -14.93870544 10.21765137 C-14.93849616 9.2162487 -14.93828688 8.21484604 -14.93807125 7.18309784 C-13.40875831 -0.82318335 -6.54447473 -0.07583918 0 0 Z " fill="#423D3A" transform="translate(171.4375,0.4375)"/>
<path d="M0 0 C0.66102722 0.00143005 1.32205444 0.00286011 2.00311279 0.0043335 C12.7193976 0.0617057 21.52582667 1.08778277 31.3125 5.5 C32.36695312 5.9228125 33.42140625 6.345625 34.5078125 6.78125 C50.08639725 13.63423357 60.28044551 26.93051412 67.02734375 42.1875 C75.28508024 63.47187855 74.31700659 87.55193207 65.68359375 108.5078125 C57.55631531 126.2442663 44.70088436 136.92760256 27.03515625 144.47265625 C8.71410899 151.26202013 -13.20429488 150.00536 -31.1875 142.75 C-37.04822807 140.04504858 -41.83988367 136.72118479 -46.6875 132.5 C-47.5021875 131.88253906 -48.316875 131.26507813 -49.15625 130.62890625 C-57.53635931 123.58082049 -62.83100444 113.56908719 -66.6875 103.5 C-67.10128906 102.46488281 -67.51507813 101.42976563 -67.94140625 100.36328125 C-74.82950381 79.69898857 -72.2220649 55.55743163 -63 36.1875 C-59.5191657 29.33399291 -55.25612056 23.83039081 -49.6875 18.5 C-49.09839844 17.87996094 -48.50929688 17.25992187 -47.90234375 16.62109375 C-43.74238217 12.53427435 -39.02594421 9.88188692 -33.875 7.25 C-33.23554443 6.9204834 -32.59608887 6.5909668 -31.93725586 6.25146484 C-21.51463162 1.16694073 -11.52329457 -0.05677934 0 0 Z M-31.5 40.375 C-41.64235224 52.78942653 -42.87434622 68.02971749 -41.6875 83.5 C-39.90591564 95.99871198 -34.75401954 106.66017603 -24.6875 114.5 C-12.85692523 121.20772778 0.44639451 122.45756061 13.7578125 119.81640625 C16.43488947 118.89735276 18.82566825 117.84808051 21.3125 116.5 C22.11945313 116.06429687 22.92640625 115.62859375 23.7578125 115.1796875 C33.27583641 109.43117801 37.99406024 100.9293821 41.3125 90.5 C44.83996677 75.3423705 44.0498571 58.57638485 35.8125 45 C34.99295992 43.82360312 34.16118913 42.65554416 33.3125 41.5 C32.755625 40.63375 32.19875 39.7675 31.625 38.875 C23.81184125 30.8506748 13.64131628 27.47832281 2.69897461 27.1484375 C-11.109064 27.01282914 -21.85112603 29.92547479 -31.5 40.375 Z " fill="#423D3A" transform="translate(70.6875,-0.5)"/>
<path d="M0 0 C0.85229187 -0.00630432 1.70458374 -0.01260864 2.58270264 -0.019104 C3.96537323 -0.01303131 3.96537323 -0.01303131 5.37597656 -0.00683594 C6.81447968 -0.00970612 6.81447968 -0.00970612 8.28204346 -0.01263428 C10.3197048 -0.01399693 12.3573748 -0.01029492 14.39501953 -0.00195312 C17.46309884 0.00860495 20.5305735 -0.001772 23.59863281 -0.01464844 C44.94780785 -0.03148678 64.82491002 1.20936578 81.20800781 16.54394531 C86.65850731 22.20995055 90.01566577 27.92296027 92.76660156 35.25878906 C93.17910156 36.33128906 93.59160156 37.40378906 94.01660156 38.50878906 C97.84954787 52.56292553 96.68589151 68.18260264 89.95410156 81.13378906 C81.73831274 94.99416629 69.04471394 103.05861579 53.51660156 107.07128906 C43.41024819 109.08351602 33.0210198 108.51720358 22.76660156 108.25878906 C22.78231201 109.30856934 22.79802246 110.35834961 22.81420898 111.43994141 C22.86842775 115.32739619 22.90292196 119.21481743 22.93139648 123.10253906 C22.9465016 124.78651546 22.96698702 126.47045241 22.99291992 128.15429688 C23.02922877 130.57203899 23.04631003 132.98926199 23.05957031 135.40722656 C23.07505417 136.16248627 23.09053802 136.91774597 23.10649109 137.69589233 C23.10717773 139.81884766 23.10717773 139.81884766 22.76660156 143.25878906 C19.40947286 145.49687486 18.25522792 145.5152896 14.32910156 145.52441406 C13.26949219 145.52699219 12.20988281 145.52957031 11.11816406 145.53222656 C10.01214844 145.52449219 8.90613281 145.51675781 7.76660156 145.50878906 C6.66058594 145.51652344 5.55457031 145.52425781 4.41503906 145.53222656 C2.825625 145.52835937 2.825625 145.52835937 1.20410156 145.52441406 C0.2334375 145.5221582 -0.73722656 145.51990234 -1.73730469 145.51757812 C-4.23339844 145.25878906 -4.23339844 145.25878906 -7.23339844 143.25878906 C-7.61092186 140.81623077 -7.61092186 140.81623077 -7.61434937 137.67883301 C-7.62703857 135.89945091 -7.62703857 135.89945091 -7.63998413 134.0841217 C-7.63391144 132.77600021 -7.62783875 131.46787872 -7.62158203 130.12011719 C-7.62564539 128.73391811 -7.63098594 127.34772227 -7.63751221 125.96153259 C-7.65121986 122.19089547 -7.6458731 118.42050385 -7.63637495 114.64986229 C-7.62879612 110.70964252 -7.635819 106.7694442 -7.64053345 102.82922363 C-7.64599621 96.21146864 -7.63878581 89.59381399 -7.62451172 82.97607422 C-7.60818415 75.31771253 -7.6134723 67.65959041 -7.62999094 60.00123453 C-7.64359105 53.4338928 -7.64553272 46.86662332 -7.63767493 40.29927206 C-7.63299026 36.37338933 -7.63239521 32.44761933 -7.64228439 28.52174377 C-7.65093044 24.83138845 -7.64497588 21.14134294 -7.62760162 17.45102119 C-7.62172188 15.44517064 -7.63067243 13.43929398 -7.63998413 11.43345642 C-7.63152466 10.24720169 -7.62306519 9.06094696 -7.61434937 7.83874512 C-7.61265275 6.28573322 -7.61265275 6.28573322 -7.61092186 4.70134735 C-7.48633913 3.89530312 -7.3617564 3.08925888 -7.23339844 2.25878906 C-4.14408266 0.19924521 -3.49257951 0.00743442 0 0 Z M22.76660156 27.25878906 C22.76660156 44.74878906 22.76660156 62.23878906 22.76660156 80.25878906 C43.98525348 81.11879651 43.98525348 81.11879651 60.07128906 71.23144531 C64.97463024 65.52594463 66.4679852 59.46610529 66.14550781 52.02832031 C65.13617419 44.65081992 62.2817411 38.74550033 56.75488281 33.72753906 C46.46347344 26.12524059 35.39616815 27.25878906 22.76660156 27.25878906 Z " fill="#423D3A" transform="translate(323.2333984375,0.7412109375)"/>
<path d="M0 0 C1.24458984 0.00064453 2.48917969 0.00128906 3.77148438 0.00195312 C5.72344727 0.02612305 5.72344727 0.02612305 7.71484375 0.05078125 C9.02001953 0.04755859 10.32519531 0.04433594 11.66992188 0.04101562 C21.38548048 0.09641798 21.38548048 0.09641798 23.65234375 2.36328125 C23.91113281 5.22070313 23.91113281 5.22070313 23.91796875 8.83203125 C23.92183594 10.77142578 23.92183594 10.77142578 23.92578125 12.75 C23.91949707 13.76199463 23.91949707 13.76199463 23.91308594 14.79443359 C23.90238445 16.85544282 23.91298318 18.91558044 23.92578125 20.9765625 C23.92320312 22.26949219 23.920625 23.56242187 23.91796875 24.89453125 C23.91571289 26.08626953 23.91345703 27.27800781 23.91113281 28.50585938 C23.65234375 31.36328125 23.65234375 31.36328125 21.65234375 33.36328125 C17.02473259 33.85221468 12.36531692 33.73368819 7.71484375 33.73828125 C5.76288086 33.77501953 5.76288086 33.77501953 3.77148438 33.8125 C2.52689453 33.81636719 1.28230469 33.82023437 0 33.82421875 C-1.14460693 33.83243652 -2.28921387 33.8406543 -3.46850586 33.84912109 C-6.34765625 33.36328125 -6.34765625 33.36328125 -8.21948242 31.70776367 C-9.62946726 28.77764369 -9.73561384 26.64014552 -9.74609375 23.390625 C-9.74996094 22.24400391 -9.75382812 21.09738281 -9.7578125 19.91601562 C-9.74621094 18.72298828 -9.73460937 17.52996094 -9.72265625 16.30078125 C-9.73425781 15.10388672 -9.74585938 13.90699219 -9.7578125 12.67382812 C-9.75394531 11.52849609 -9.75007813 10.38316406 -9.74609375 9.203125 C-9.74270996 8.15503662 -9.73932617 7.10694824 -9.73583984 6.02709961 C-9.34765625 3.36328125 -9.34765625 3.36328125 -8.21948242 1.52099609 C-5.46022265 -0.18559186 -3.22494018 -0.00839887 0 0 Z " fill="#9FBE3D" transform="translate(426.34765625,112.63671875)"/>
<path d="M0 0 C0.33 0 0.66 0 1 0 C1.33 9.24 1.66 18.48 2 28 C1.01 28 0.02 28 -1 28 C-1.02898097 23.89584811 -1.0467922 19.79172247 -1.0625 15.6875 C-1.07087891 14.52025391 -1.07925781 13.35300781 -1.08789062 12.15039062 C-1.09111328 11.03212891 -1.09433594 9.91386719 -1.09765625 8.76171875 C-1.10289307 7.73006592 -1.10812988 6.69841309 -1.11352539 5.63549805 C-1 3 -1 3 0 0 Z " fill="#A5DCD6" transform="translate(1,166)"/>
</svg>
