<svg xmlns="http://www.w3.org/2000/svg" width="457.934" height="265.255" viewBox="0 0 457.934 265.255">
  <g id="lendenclub" transform="translate(4326.69 -3857.309)">
    <path id="Path_22518" data-name="Path 22518" d="M244,225.041c-1.2-3.073-2.635-6.077-3.548-9.232-3.364-11.622-9.837-21.28-17.763-30.292-21.775-24.758-12.921-63.232,17.707-75.449,20.545-8.194,43.94-2.645,57.572,16.971,12.672,18.233,10.913,43.4-4.257,59.433a76.339,76.339,0,0,0-17.778,31.394c-.756,2.542-2.965,4.652-4.505,6.96-2.609-2.118-6.094-3.734-7.651-6.454-3.658-6.387-3.406-13.794-1.1-20.378,2.657-7.577,6.563-14.8,10.619-21.776,3.679-6.329,8.31-12.009,7.877-20.006a22.657,22.657,0,0,0-39.155-14.347c-6.189,6.591-8.205,16.224-4.247,24.038,2.765,5.46,6.491,10.436,9.814,15.611,6.437,10.026,9.636,20.826,7.323,32.744-1.079,5.561-3.8,9.991-10.571,10.666C243.994,224.976,244,225.041,244,225.041Z" transform="translate(-4355.042 3750.896)" fill="#7aac49"/>
    <path id="Path_22519" data-name="Path 22519" d="M243.962,224.974c2.549,1.176,5.064,2.544,7.726,3.5,6.1,2.181,12.309,4.072,18.416,6.242,6.943,2.468,9.6,6.752,7.853,12.282-1.716,5.435-7.322,8.417-13.84,6.5-8.125-2.391-16.046-5.474-24.062-8.24-4.243-1.464-8.45-3.074-12.78-4.215-1.256-.331-2.879.734-4.334,1.159.9,1.167,1.573,2.986,2.742,3.4,12.377,4.4,24.742,8.872,37.3,12.705a15.99,15.99,0,0,0,19.9-9.078c3-6.782-.3-11.852-4.711-16.767,14.7-8.206,29.179-16.383,43.76-24.367,5.168-2.829,10.434-1.716,13.475,2.315,3.089,4.093,2.235,8.568-2.73,12.486-13.332,10.52-26.76,20.918-40.13,31.39-7.208,5.646-14.368,11.355-21.562,17.019-6.666,5.247-14.241,6.061-22.227,4.29q-25.576-5.672-51.112-11.521c-15.206-3.481-23.448-15.865-20.321-30.36,3.008-13.943,16-22.5,30.764-19.112,10.491,2.408,20.624,6.378,30.919,9.644a22.207,22.207,0,0,0,4.644,1.046C244,225.041,243.994,224.976,243.962,224.974Z" transform="translate(-4355.042 3750.896)" fill="#1687bb"/>
    <path id="Path_22520" data-name="Path 22520" d="M132,341.906H100.531c6.041,14.848,22.657,15.914,36.858,2.279l14.389,9.022c-10.615,17.08-32.808,23.312-50.392,14.357A39.045,39.045,0,0,1,83.055,317.8c7.521-18.421,28.639-28.139,47.838-22.014,19.374,6.18,30.564,25.88,25.807,46.124H132m3.136-22.465c-11.731-11.7-30.219-9.315-34.41,4.223h37.3C137.059,322.15,136.358,321.058,135.136,319.441Z" transform="translate(-4355.042 3750.896)" fill="#121924"/>
    <path id="Path_22521" data-name="Path 22521" d="M344.964,293.995c24.714-.013,43.688,23.716,37.462,47.866H326.191c6.429,14.939,22.782,15.939,36.892,2.274l14.453,9.111c-10.774,16.142-30.236,22.518-47.377,15.743a39.155,39.155,0,0,1-23.83-42.726c3.262-18.623,18.563-31.559,38.635-32.268m-8.537,19.564a19.188,19.188,0,0,0-10.5,10.1h37.386C358.2,313.533,348.918,309.92,336.427,313.559Z" transform="translate(-4355.042 3750.896)" fill="#121924"/>
    <path id="Path_22522" data-name="Path 22522" d="M235.1,323V291.49c13.636.549,27.28-.442,40.271,2.015,15.875,3,23.77,14.994,26.2,30.777,3.242,21.028-7.9,39.428-27.273,44.129a52.663,52.663,0,0,1-11.341,1.252c-9.106.175-18.218.057-27.86.057V323m43.525-7.025c-6.872-8.275-16.139-5.788-24.933-5.951v41.684c3.881,0,7.369.137,10.843-.027,9.209-.434,15.386-5.568,17.717-14.649A24.5,24.5,0,0,0,278.62,315.975Z" transform="translate(-4355.042 3750.896)" fill="#121824"/>
    <path id="Path_22523" data-name="Path 22523" d="M209.684,329.094c.5-7.072-1.856-12.288-7.693-15.539a13.23,13.23,0,0,0-14.21.524c-4.734,2.984-6.911,7.408-6.889,13.028.055,13.981.018,27.961.018,42.279H163.475V296.335c6.083.385,12.251-1.143,19.386,1.426,19.775-11.851,43.48,2.606,44.7,26.686.746,14.783.138,29.635.138,44.867H209.684Z" transform="translate(-4355.042 3750.896)" fill="#141a26"/>
    <path id="Path_22524" data-name="Path 22524" d="M389,298.344c.685-1,1.347-1.967,2.041-1.99,4.326-.143,8.665-.2,12.987,0,1.229.059,2.412,1.084,3.87,1.788,21.884-12.538,44.743,4.039,45.284,26.206.365,14.95.07,29.915.07,45.122H435.275V364.2c0-12.494.04-24.987-.015-37.48-.037-8.542-6.034-14.773-14.1-14.814-8.092-.041-14.329,6.133-14.4,14.606-.114,14.141-.031,28.283-.031,42.816H388.991C388.991,345.938,388.991,322.376,389,298.344Z" transform="translate(-4355.042 3750.896)" fill="#141a26"/>
    <path id="Path_22525" data-name="Path 22525" d="M47.9,298.182v51.893H77.652v19.567h-49.3V294c5.627,0,11.4-.154,17.152.165C46.365,294.212,47.106,296.467,47.9,298.182Z" transform="translate(-4355.042 3750.896)" fill="#111723"/>
    <path id="Path_22526" data-name="Path 22526" d="M475.8,291.973c8.622,1.739,11.529,6.708,9.607,14.875-.539,2.292.143,4.871.279,7.626H457.913c-.071-1.525-.15-3.227-.242-5.2l7.153-.374c-3.063-10.671.666-16.552,10.98-16.923m3.03,15.58c.265-2.562,1.292-5.4.51-7.585-.473-1.323-3.869-2.485-5.749-2.229-3.6.49-5.228,3.324-4.436,6.945C470,308.539,473.56,309.743,478.834,307.553Z" transform="translate(-4355.042 3750.896)" fill="#1e232e"/>
    <path id="Path_22527" data-name="Path 22527" d="M486.025,328.591c-.78,5.76-3.385,8.643-8.536,9.045-4.261.332-8.568.068-13.131.068V332.07c3.474,0,6.919-.059,10.362.019,2.862.065,5.767-.2,5.8-3.772.031-3.718-2.9-4.331-5.989-4.3-3.3.036-6.6.008-10.177.008v-5.369c5.533,0,10.994-.013,16.454.009,1.467.006,2.934.119,4.671.2C485.668,322.1,485.846,325.122,486.025,328.591Z" transform="translate(-4355.042 3750.896)" fill="#1c222d"/>
    <path id="Path_22528" data-name="Path 22528" d="M469.076,350.86c1.258,1.842,3.459,3.087,1.275,5.59-2.3,2.636-2.069,6.023.876,7.746a8.367,8.367,0,0,0,7.051.119c3.007-1.65,3.042-4.853,1.156-7.809-.42-.659-.887-1.288-1.384-2l3.141-3.423c4.488,3.146,6.07,7.657,4.509,12.508a11.836,11.836,0,0,1-10.574,7.727,11.628,11.628,0,0,1-10.956-7.192C462.278,359.091,463.765,354.7,469.076,350.86Z" transform="translate(-4355.042 3750.896)" fill="#1c222d"/>
    <path id="Path_22530" data-name="Path 22530" d="M485.759,343.2c-.936,1.537-1.86,3.569-2.847,3.6-8.238.257-16.486.146-25,.146v-5.6c8.931,0,17.786-.019,26.641.06C484.95,341.417,485.344,342.3,485.759,343.2Z" transform="translate(-4355.042 3750.896)" fill="#262a35"/>
    <path id="Path_22542" data-name="Path 22542" d="M273.675,155.637c-.46,2.329-.866,4.25-1.271,6.171-1.533-8.9-3.748-16.968-14.928-18.237C266.226,138.665,273.64,144.26,273.675,155.637Z" transform="translate(-4355.042 3750.896)" fill="#87b35c"/>
    <path id="Path_22550" data-name="Path 22550" d="M135.4,319.7c.961,1.355,1.662,2.447,2.633,3.961h-37.3C104.917,310.126,123.4,307.739,135.4,319.7Z" transform="translate(-4355.042 3750.896)" fill="#fff"/>
    <path id="Path_22551" data-name="Path 22551" d="M336.776,313.37c12.142-3.45,21.427.163,26.54,10.284H325.93C328.112,318.682,331.762,315.609,336.776,313.37Z" transform="translate(-4355.042 3750.896)" fill="#fafafa"/>
    <path id="Path_22552" data-name="Path 22552" d="M278.838,316.273c4.488,6.618,5.273,13.5,3.409,20.759-2.331,9.081-8.508,14.215-17.717,14.649-3.474.164-6.962.027-10.843.027V310.024C262.481,310.187,271.748,307.7,278.838,316.273Z" transform="translate(-4355.042 3750.896)" fill="#fafafa"/>
    <path id="Path_22553" data-name="Path 22553" d="M478.52,307.78c-4.96,1.963-8.519.759-9.361-3.1-.792-3.621.837-6.455,4.436-6.945,1.88-.256,5.276.906,5.749,2.229C480.126,302.156,479.1,304.991,478.52,307.78Z" transform="translate(-4355.042 3750.896)" fill="#f4f3f4"/>
  </g>
</svg>
