<?xml version="1.0" standalone="no"?>
<!DOCTYPE svg PUBLIC "-//W3C//DTD SVG 20010904//EN"
 "http://www.w3.org/TR/2001/REC-SVG-20010904/DTD/svg10.dtd">
<svg version="1.0" xmlns="http://www.w3.org/2000/svg"
 width="1125.000000pt" height="285.000000pt" viewBox="0 0 1125.000000 285.000000"
 preserveAspectRatio="xMidYMid meet">

<g transform="translate(0.000000,285.000000) scale(0.100000,-0.100000)"
fill="#000000" stroke="none">
<path d="M73 2839 c-18 -5 -41 -22 -50 -36 -17 -25 -18 -85 -18 -909 0 -938
-1 -913 48 -943 27 -17 130 -26 193 -16 32 4 56 16 76 35 l28 28 0 889 c0 986
5 920 -66 949 -37 16 -161 17 -211 3z"/>
<path d="M2274 2841 c-34 -6 -177 -71 -455 -206 -222 -109 -579 -283 -793
-387 -215 -104 -396 -194 -403 -199 -7 -6 -26 -32 -43 -57 -42 -63 -42 -139
-2 -203 16 -24 38 -51 48 -60 10 -9 145 -78 299 -152 154 -74 516 -251 805
-392 289 -142 545 -264 569 -271 24 -8 79 -14 121 -14 68 0 82 3 120 29 47 31
69 63 70 99 0 28 -21 71 -46 93 -11 9 -334 169 -719 354 -385 186 -716 350
-735 365 -45 35 -48 59 -13 92 15 15 274 144 578 288 804 383 828 395 853 423
13 14 26 43 29 64 4 32 0 45 -21 70 -44 52 -158 80 -262 64z"/>
<path d="M3023 2839 c-18 -5 -41 -22 -50 -36 -17 -25 -18 -87 -21 -891 -2
-585 1 -876 8 -903 17 -61 45 -74 165 -74 111 0 147 13 165 61 6 15 10 369 10
902 0 974 5 909 -66 938 -37 16 -161 17 -211 3z"/>
<path d="M5224 2840 c-35 -5 -173 -67 -445 -200 -217 -106 -574 -280 -794
-387 -219 -107 -405 -199 -412 -205 -7 -5 -26 -31 -43 -56 -52 -79 -37 -185
37 -254 15 -14 159 -89 318 -166 160 -77 522 -253 805 -392 283 -139 535 -259
559 -266 24 -8 78 -14 120 -14 67 0 81 3 120 30 69 45 86 91 56 150 -8 16 -27
37 -42 48 -16 10 -338 169 -718 352 -379 183 -706 345 -725 360 -45 35 -48 59
-13 92 16 16 324 168 713 353 376 179 693 333 703 343 52 47 58 119 14 160
-47 44 -159 67 -253 52z"/>
<path d="M6341 2819 c-51 -10 -123 -32 -159 -49 -128 -60 -254 -168 -304 -261
l-23 -44 0 -585 0 -585 28 -57 c40 -81 118 -148 241 -208 186 -90 123 -85
1031 -85 l800 0 60 29 c93 45 201 160 258 274 25 50 51 116 57 146 10 49 9 61
-7 93 -28 56 -61 75 -142 81 -88 6 -92 3 -170 -128 -31 -52 -73 -112 -93 -133
l-37 -39 -683 5 c-571 5 -697 8 -767 22 -100 19 -157 42 -191 79 l-25 28 -3
495 c-3 563 -8 528 81 568 94 43 168 46 904 43 680 -3 692 -3 720 -24 27 -20
44 -49 115 -198 43 -91 71 -111 151 -110 60 1 62 2 103 48 36 39 44 55 50 103
29 236 -169 465 -426 493 -47 5 -398 11 -780 13 -645 4 -702 3 -789 -14z"/>
<path d="M8884 2826 c-17 -7 -40 -26 -52 -41 -22 -27 -22 -33 -23 -449 0 -231
-4 -583 -8 -781 -5 -214 -5 -384 1 -420 10 -66 36 -115 73 -139 69 -45 78 -46
1226 -53 l1087 -6 12 23 c31 58 35 148 35 950 l0 805 -23 33 c-52 72 29 66
-1127 74 -572 3 -1069 9 -1105 12 -45 4 -75 2 -96 -8z"/>
<path d="M5032 475 c-67 -35 -100 -82 -115 -169 -14 -81 0 -161 38 -219 62
-93 234 -115 317 -40 20 18 58 84 58 102 0 5 -20 16 -45 24 l-45 16 -14 -34
c-18 -43 -59 -69 -104 -68 -76 2 -126 103 -107 214 9 50 54 104 96 113 41 8
96 -16 111 -49 11 -25 16 -26 53 -20 56 9 61 17 34 65 -32 57 -76 82 -157 87
-58 4 -74 1 -120 -22z"/>
<path d="M5945 485 c-51 -18 -109 -82 -125 -140 -8 -27 -11 -76 -8 -124 4 -65
10 -87 31 -120 41 -61 94 -92 169 -98 80 -7 139 9 185 50 55 48 73 97 73 197
0 100 -18 149 -73 197 -60 52 -166 68 -252 38z m171 -92 c39 -25 56 -78 52
-159 -3 -61 -7 -77 -28 -100 -72 -78 -182 -58 -219 39 -15 39 -14 121 3 160
33 78 123 106 192 60z"/>
<path d="M8035 477 c-89 -43 -124 -108 -125 -228 0 -102 33 -171 104 -214 45
-27 57 -30 136 -30 77 0 93 3 146 30 l59 31 3 102 3 102 -106 0 -105 0 0 -39
0 -40 53 -3 c50 -3 52 -4 52 -32 0 -39 -49 -69 -112 -69 -82 0 -133 63 -133
166 0 105 48 160 138 160 39 0 50 -5 79 -36 31 -34 37 -37 73 -31 22 4 43 10
46 15 10 17 -36 88 -72 110 -57 35 -173 38 -239 6z"/>
<path d="M0 250 l0 -240 50 0 50 0 0 73 c0 71 1 74 38 110 45 44 37 51 116
-85 l57 -98 64 0 65 0 -96 147 -95 146 93 94 93 93 -70 0 -71 0 -89 -99 c-50
-55 -93 -100 -97 -100 -5 -1 -8 44 -8 99 l0 100 -50 0 -50 0 0 -240z"/>
<path d="M490 250 l0 -240 185 0 185 0 0 40 0 40 -135 0 -135 0 0 65 0 65 120
0 120 0 0 40 0 40 -120 0 -120 0 0 55 0 55 130 0 130 0 0 40 0 40 -180 0 -180
0 0 -240z"/>
<path d="M894 473 c8 -28 106 -450 106 -457 0 -4 26 -6 58 -4 l57 3 44 168
c26 97 47 163 52 155 4 -7 23 -76 44 -153 20 -77 38 -148 41 -157 4 -14 16
-18 59 -18 l53 0 56 232 c31 128 56 236 56 241 0 4 -22 7 -49 7 l-48 0 -33
-155 c-18 -85 -36 -155 -40 -155 -3 0 -23 70 -44 155 l-38 155 -58 0 -59 0
-15 -52 c-8 -29 -27 -99 -42 -156 -15 -56 -29 -100 -32 -98 -2 3 -19 72 -36
153 l-32 148 -53 3 c-47 3 -52 1 -47 -15z"/>
<path d="M1587 268 c-47 -123 -89 -231 -93 -241 -6 -16 -1 -18 47 -15 l54 3
19 53 19 53 96 -3 96 -3 19 -53 19 -52 53 0 c30 0 54 1 54 3 0 1 -42 108 -94
237 l-94 235 -54 3 -55 3 -86 -223z m172 17 c17 -43 29 -80 27 -82 -2 -2 -30
-3 -63 -1 l-59 3 29 83 c17 45 31 81 33 80 1 -2 16 -39 33 -83z"/>
<path d="M2030 250 l0 -240 170 0 170 0 0 40 0 39 -122 3 -123 3 -3 198 -2
197 -45 0 -45 0 0 -240z"/>
<path d="M2610 250 l0 -240 50 0 50 0 0 73 c0 72 1 74 39 111 l38 38 64 -111
64 -110 63 -1 c34 0 62 2 62 5 0 3 -41 68 -91 145 l-91 140 86 92 85 93 -62 3
-62 3 -97 -103 -97 -103 -1 103 0 102 -50 0 -50 0 0 -240z"/>
<path d="M3090 250 l0 -240 50 0 50 0 0 240 0 240 -50 0 -50 0 0 -240z"/>
<path d="M3280 250 l0 -240 50 0 50 0 0 100 c0 99 0 100 24 100 50 0 73 -19
132 -109 l59 -91 58 0 c31 0 57 3 57 6 0 16 -95 157 -121 178 l-29 25 43 19
c74 33 99 127 52 198 -29 44 -70 54 -230 54 l-145 0 0 -240z m281 143 c19 -19
15 -74 -6 -89 -12 -9 -47 -14 -97 -14 l-78 0 0 61 0 61 85 -3 c48 -2 89 -9 96
-16z"/>
<path d="M3831 298 c-41 -106 -83 -214 -93 -241 l-18 -47 53 0 54 0 18 55 19
55 96 0 97 0 18 -55 19 -55 54 0 c46 0 53 2 48 18 -3 9 -45 116 -94 237 l-88
220 -55 3 -54 3 -74 -193z m158 -5 c13 -38 26 -74 29 -80 3 -10 -12 -13 -57
-13 -34 0 -61 3 -61 8 0 15 53 152 59 152 3 0 17 -30 30 -67z"/>
<path d="M4260 250 l0 -240 45 0 44 0 3 150 3 149 91 -147 90 -147 52 -3 52
-3 0 240 0 241 -45 0 -44 0 -3 -157 -3 -157 -95 157 -95 156 -47 1 -48 0 0
-240z"/>
<path d="M5420 250 l0 -240 170 0 170 0 0 40 0 40 -120 0 -120 0 0 200 0 200
-50 0 -50 0 0 -240z"/>
<path d="M6320 450 l0 -40 70 0 70 0 0 -200 0 -200 50 0 50 0 0 200 0 200 70
0 70 0 0 40 0 40 -190 0 -190 0 0 -40z"/>
<path d="M6760 250 l0 -240 50 0 50 0 0 105 0 105 95 0 95 0 0 -105 0 -105 50
0 50 0 0 240 0 240 -50 0 -50 0 0 -95 0 -95 -95 0 -95 0 0 95 0 95 -50 0 -50
0 0 -240z"/>
<path d="M7250 250 l0 -240 45 0 45 0 0 240 0 240 -45 0 -45 0 0 -240z"/>
<path d="M7440 250 l0 -240 45 0 44 0 3 150 3 149 91 -147 90 -147 52 -3 52
-3 0 240 0 241 -45 0 -44 0 -3 -157 -3 -157 -95 157 -95 156 -47 1 -48 0 0
-240z"/>
<path d="M8640 250 l0 -240 170 0 170 0 0 40 0 39 -122 3 -123 3 -3 198 -2
197 -45 0 -45 0 0 -240z"/>
<path d="M9040 250 l0 -240 50 0 50 0 0 240 0 240 -50 0 -50 0 0 -240z"/>
<path d="M9230 250 l0 -240 45 0 45 0 2 177 3 178 45 -178 44 -177 48 0 c44 0
48 2 55 28 3 15 23 92 44 172 l37 145 1 -172 1 -173 50 0 50 0 0 240 0 241
-77 -3 -78 -3 -39 -153 c-21 -84 -41 -150 -43 -148 -4 4 -26 80 -63 224 l-22
82 -74 0 -74 0 0 -240z"/>
<path d="M9790 250 l0 -240 50 0 50 0 0 240 0 240 -50 0 -50 0 0 -240z"/>
<path d="M9950 450 l0 -40 70 0 70 0 0 -200 0 -200 50 0 50 0 0 200 0 200 70
0 70 0 0 40 0 40 -190 0 -190 0 0 -40z"/>
<path d="M10390 250 l0 -240 185 0 185 0 0 40 0 40 -135 0 -135 0 0 65 0 65
120 0 120 0 0 40 0 40 -120 0 -120 0 0 55 0 55 130 0 130 0 0 40 0 40 -180 0
-180 0 0 -240z"/>
<path d="M10840 250 l0 -240 128 0 c163 0 202 16 245 99 23 47 27 66 27 142 0
75 -4 94 -28 140 -42 83 -82 99 -244 99 l-128 0 0 -240z m234 150 c44 -16 66
-65 66 -146 0 -130 -30 -164 -145 -164 l-55 0 0 160 0 160 54 0 c30 0 66 -4
80 -10z"/>
</g>
</svg>
