<?xml version="1.0" encoding="utf-8"?>
<!-- Generator: Adobe Illustrator 24.2.1, SVG Export Plug-In . SVG Version: 6.00 Build 0)  -->
<svg version="1.1" xmlns="http://www.w3.org/2000/svg" xmlns:xlink="http://www.w3.org/1999/xlink" x="0px" y="0px"
	 viewBox="0 0 864 111.7" style="enable-background:new 0 0 864 111.7;" xml:space="preserve">
<style type="text/css">
	.st0{fill:#1B190F;}
	.st1{fill:#991C26;}
</style>
<g id="Titles_Artboard">
</g>
<g id="Backgrounds_Artboard">
</g>
<g id="full-cmyk">
	<g id="type_1_">
		<path id="type__x3C_CompoundPathItem_x3E__21_" class="st0" d="M225,110.1l-26.7-40.5c2.8-0.6,5.1-1.5,7.5-2.7
			c8.8-4.7,13.6-13.2,13.6-23.8c0-17.2-12.2-27.5-32.3-27.5h-25.8v94.5h11.9V70.5l12.5,0.4l25.7,39.3H225z M173.2,62.4V25.8H187
			c13,0,20.1,6.4,20.1,18.1c0,11.9-7.8,18.4-22.1,18.4H173.2z"/>
		<path id="type__x3C_CompoundPathItem_x3E__20_" class="st0" d="M241.1,80.9c0.6,5.5,1.6,8.4,4.2,11.9c4.2,5.8,10.5,8.9,17.6,8.9
			c8.1,0,15.7-4.4,19.5-11.2l9.5,3.5c-5.4,10.9-16.6,17.6-29,17.6c-19.4,0-33.3-14.2-33.3-34c0-20.1,13.7-34.4,32.9-34.4
			c19,0,33.1,14.3,33.1,33.4c0,0.9,0,2.7-0.1,4.2H241.1z M284.2,73c-0.4-5.1-1.4-7.9-3.7-11.2c-4.1-5.5-10.8-8.9-18-8.9
			c-7.2,0-13.7,3.4-17.6,9.1c-2,3.1-2.8,5.8-3.7,11H284.2z"/>
		<path id="type__x3C_CompoundPathItem_x3E__19_" class="st0" d="M318.7,44.8V54c5.7-7.7,11.3-10.8,19.4-10.8c5.9,0,11.3,2,15.2,5.4
			c4.1,4,5.5,8.5,5.5,17.4v44.1H348V68.5c0-5.8-0.7-8.9-2.4-11.2c-2-2.7-5.8-4.4-10.2-4.4c-4.8,0-9.2,1.8-12.5,5.5
			c-3.1,3.4-4.2,6.5-4.2,11.9v39.8h-10.8V44.8H318.7z"/>
		<path id="type__x3C_CompoundPathItem_x3E__18_" class="st0" d="M426,44.8h10.8v65.3H426V97.5c-6.5,9.8-13.9,14.2-23.8,14.2
			c-18,0-30.7-14.2-30.7-34c0-20,13-34.4,31-34.4c9.9,0,17.1,3.8,23.5,12.3V44.8z M388.2,60.7c-3.4,4.7-5.4,10.9-5.4,17.3
			c0,13.9,9.1,24.4,21,24.4c12.3,0,22.4-11.5,22.4-25.5c0-14.2-9.1-23.9-22.1-23.9C396.9,52.9,392,55.3,388.2,60.7z"/>
		<path id="type__x3C_CompoundPathItem_x3E__17_" class="st0" d="M465.5,26.5c0,3.8-3.1,6.8-6.9,6.8s-6.8-3-6.8-6.9s3-6.9,6.9-6.9
			C462.5,19.5,465.5,22.6,465.5,26.5z M463.9,110.1h-10.8V44.8h10.8V110.1z"/>
		<path id="type__x3C_CompoundPathItem_x3E__16_" class="st0" d="M514.4,62.7V62c0-6.1-5-9.9-12.5-9.9c-7.2,0-11.8,3.7-11.8,9.4
			c0,5.7,2.8,7.8,14.6,11c8.4,2.3,12.8,4.4,15.9,7.5c3.3,3.3,5.2,7.9,5.2,12.7c0,11.3-9.3,19-23.2,19c-14.9,0-23.2-6.9-24.4-20.1
			h10.6c0.7,7.4,5.5,11.3,13.7,11.3c7.4,0,12.2-3.8,12.2-9.6c0-5.7-3.7-8.5-14.9-11.3c-14.2-3.8-20.5-9.8-20.5-19.7
			c0-11.3,9.2-19,22.9-19c13.9,0,22.2,7.1,22.8,19.4H514.4z"/>
		<path id="type__x3C_CompoundPathItem_x3E__15_" class="st0" d="M571.2,62.7V62c0-6.1-5-9.9-12.5-9.9c-7.2,0-11.8,3.7-11.8,9.4
			c0,5.7,2.8,7.8,14.6,11c8.4,2.3,12.8,4.4,15.9,7.5c3.3,3.3,5.2,7.9,5.2,12.7c0,11.3-9.3,19-23.2,19c-14.9,0-23.2-6.9-24.4-20.1
			h10.6c0.7,7.4,5.5,11.3,13.7,11.3c7.4,0,12.2-3.8,12.2-9.6c0-5.7-3.7-8.5-14.9-11.3c-14.2-3.8-20.5-9.8-20.5-19.7
			c0-11.3,9.2-19,22.9-19c13.9,0,22.2,7.1,22.8,19.4H571.2z"/>
		<path id="type__x3C_CompoundPathItem_x3E__14_" class="st0" d="M646.4,44.8h10.8v65.3h-10.8V97.5c-6.5,9.8-13.9,14.2-23.8,14.2
			c-18,0-30.7-14.2-30.7-34c0-20,13-34.4,31-34.4c9.9,0,17.1,3.8,23.5,12.3V44.8z M608.6,60.7c-3.4,4.7-5.4,10.9-5.4,17.3
			c0,13.9,9.1,24.4,21,24.4c12.3,0,22.4-11.5,22.4-25.5c0-14.2-9.1-23.9-22.1-23.9C617.3,52.9,612.4,55.3,608.6,60.7z"/>
		<path id="type__x3C_CompoundPathItem_x3E__13_" class="st0" d="M684.3,44.8V54c5.7-7.7,11.3-10.8,19.4-10.8c5.9,0,11.3,2,15.2,5.4
			c4.1,4,5.5,8.5,5.5,17.4v44.1h-10.8V68.5c0-5.8-0.7-8.9-2.4-11.2c-2-2.7-5.8-4.4-10.2-4.4c-4.8,0-9.2,1.8-12.5,5.5
			c-3.1,3.4-4.2,6.5-4.2,11.9v39.8h-10.8V44.8H684.3z"/>
		<path id="type__x3C_CompoundPathItem_x3E__12_" class="st0" d="M791.3,102.1c-7.4,6.7-14.6,9.6-24.1,9.6c-18.7,0-32-14.2-32-34
			c0-20.3,13.5-34.4,32.6-34.4c9.4,0,17,3.1,23.8,9.8l-6.9,6.9c-5-4.5-10.5-6.8-16.6-6.8c-12.9,0-21.8,9.9-21.8,24.1
			c0,14.4,8.9,24.5,21.7,24.5c6.4,0,11.5-2.1,16.7-7.1L791.3,102.1z"/>
		<path id="type__x3C_CompoundPathItem_x3E__11_" class="st0" d="M809.5,80.9c0.6,5.5,1.6,8.4,4.2,11.9c4.2,5.8,10.5,8.9,17.6,8.9
			c8.1,0,15.7-4.4,19.5-11.2l9.5,3.5c-5.4,10.9-16.6,17.6-29,17.6c-19.4,0-33.3-14.2-33.3-34c0-20.1,13.7-34.4,32.9-34.4
			c19,0,33.1,14.3,33.1,33.4c0,0.9,0,2.7-0.1,4.2H809.5z M852.5,73c-0.4-5.1-1.4-7.9-3.7-11.2c-4.1-5.5-10.8-8.9-18-8.9
			s-13.7,3.4-17.6,9.1c-2,3.1-2.8,5.8-3.7,11H852.5z"/>
	</g>
	<g id="logoMark_1_">
		<a xlink:href="82.2657454" >
			<polygon id="logoMark__x3C_PathItem_x3E__13_" class="st1" points="25.9,15.6 0,41.5 0,32.9 17.3,15.6 			"/>
		</a>
		<a xlink:href="82.2657454" >
			<polygon id="logoMark__x3C_PathItem_x3E__12_" class="st1" points="67.3,0 0,67.2 0,58.7 58.7,0 			"/>
		</a>
		<a xlink:href="82.2657454" >
			<polygon id="logoMark__x3C_PathItem_x3E__11_" class="st1" points="77.4,15.6 0,93 0,84.4 68.8,15.6 			"/>
		</a>
		<a xlink:href="82.2657454" >
			<polygon id="logoMark__x3C_PathItem_x3E__10_" class="st1" points="114.5,0 118.8,0 8.6,110.2 3.6,110.2 0,110.2 110.2,0 			"/>
		</a>
		<a xlink:href="82.2657454" >
			<polygon id="logoMark__x3C_PathItem_x3E__9_" class="st1" points="102,33.9 102,42.5 34.4,110.2 25.8,110.2 			"/>
		</a>
		<a xlink:href="82.2657454" >
			<polygon id="logoMark__x3C_PathItem_x3E__8_" class="st1" points="118.8,42.9 118.8,51.5 60.1,110.2 51.5,110.2 			"/>
		</a>
		<a xlink:href="82.2657454" >
			<polygon id="logoMark__x3C_PathItem_x3E__7_" class="st1" points="102,85.5 102,94.1 86,110.2 77.4,110.2 			"/>
		</a>
	</g>
</g>
</svg>
